<?xml version="1.0" encoding="UTF-8" standalone="no"?><!-- Created with Inkscape (http://www.inkscape.org/) -->

<svg version="1.1" id="svg2" width="32" height="41.333332" viewBox="0 0 32 41.333332"
    sodipodi:docname="aptel.eps" xmlns:inkscape="http://www.inkscape.org/namespaces/inkscape"
    xmlns:sodipodi="http://sodipodi.sourceforge.net/DTD/sodipodi-0.dtd"
    xmlns="http://www.w3.org/2000/svg">
  <defs id="defs6" />
  <sodipodi:namedview id="namedview4" pagecolor="#ffffff" bordercolor="#000000" borderopacity="0.25"
      inkscape:showpageshadow="2" inkscape:pageopacity="0.0" inkscape:pagecheckerboard="0"
      inkscape:deskcolor="#d1d1d1" />
  <g id="g8" inkscape:groupmode="layer" inkscape:label="ink_ext_XXXXXX"
      transform="matrix(1.3333333,0,0,-1.3333333,0,41.333333)">
    <g id="g10" transform="scale(0.1)">
      <path
          d="m 98.2383,164.57 h 0.9805 c -0.9805,-0.98 -2.9297,-0.98 -3.9102,-1.992 0,0 0,0 -1.0078,-0.976 -0.9805,-0.981 -1.961,-0.981 -2.9297,-0.981 -0.9805,-0.973 0,0 -1.9609,-0.973 h -0.9688 c -1.0195,-0.976 -1.9922,-0.976 -2.9726,-0.976 0,0 0,0 -0.9805,-0.973 -0.9688,0 -0.9688,0 -1.9492,0 -1.0196,0 0,0 -1.0196,0.973 -0.9687,0 -2.9297,0 -3.8984,0 -0.9805,0 -4.9219,-0.973 -5.9023,0 -0.9805,0 -2.9297,0 -3.9493,0.976 l -1.9492,0.973 c -0.9805,0 -0.9805,0 -1.9492,0.981 -0.9805,0 -0.9805,0 -1.9922,0.976 l -2.9297,1.992 c -0.9804,0 -0.9804,0 -0.9804,0 -0.9805,0.981 -0.9805,0 -0.9805,0.981 0,-0.981 0,-0.981 0,-1.961 2.9336,-3.942 4.8906,-6.871 7.8515,-9.84 1.961,-3.91 4.9297,-6.871 8.8321,-8.828 l 1.9883,-1.992 c 0.9804,0 0,0 1.9609,-0.981 0,0 0,0 0,-0.969 1.9492,-0.98 2.9297,-1.96 5.8984,-2.929 l 3.9024,-2 c 1.9883,-0.973 4.9179,-1.949 7.8867,-2.93 0.9805,0 1.9609,0 3.9102,-0.973 1.9532,0 3.9412,0 5.9022,-0.976 3.938,0 9.84,0 12.77,0 l 6.879,0.976 c 0.968,0 1.949,0 3.941,0.973 1.949,0 3.91,0.981 5.898,0.981 0.981,0.976 1.95,0.976 2.93,0.976 0,0.973 0,0.973 0.981,0.973 l 1.949,1.019 c 1.011,0 1.992,0 2.972,0.981 0.969,0.969 0.969,0.969 1.95,0.969 V 140 c 1.988,0.98 0.98,0 2.968,0.98 l 2.93,1.95 c 0,1.019 0.981,1.019 0.981,1.019 0.968,0.973 0.968,0.973 1.992,0.973 8.828,7.848 20.617,23.558 18.629,36.328 -0.981,5.898 -3.911,9.84 -7.852,11.801 -1.949,0.969 -5.898,2.969 -7.848,2.969 -0.98,0 -1.961,0 -1.961,0 -2.96,0.968 -4.921,0.968 -7.851,0 -1.008,0 -2.969,0 -3.938,0 l -5.902,-2 c -0.98,0 -1.949,0 -1.949,0 0,0 0,0 -0.981,-0.969 h -1.019 l -1.949,-0.981 c -0.981,0 0,0 -0.981,-0.98 l -4.922,-2.969 c -0.968,0 -0.968,0 -1.949,-0.973 0,0 -0.98,0 -0.98,-0.976 l -5.899,-3.942 c 0,-0.98 -0.969,-0.98 -0.969,-1.96 -0.98,0 -0.98,0 -1.992,-0.969 l -4.89,-4.922 c -0.969,-0.981 -2.969,-2.93 -4.918,-4.891 -0.981,-1.008 -2.969,-2.968 -3.942,-3.937 h -0.9802 c 0,0 0,-0.981 -0.9805,-0.981 z"
          style="fill:#e03016;fill-opacity:1;fill-rule:evenodd;stroke:none" id="path12" />
      <path
          d="m 196.48,231.371 h -0.968 c 0,0.969 0,0.969 1.949,1.949 0.98,0.981 0.98,0.981 1.949,1.989 2,0 2,0 4.93,0.98 6.871,2.93 16.711,2.93 23.59,0 3.91,-0.98 3.91,-1.988 6.871,-2.969 0.98,-0.98 1.961,-0.98 1.961,-1.949 l -1.961,3.938 c 0,0.98 -0.973,0.98 -0.973,1.961 0,0.968 -2.969,4.921 -3.949,5.89 -1.949,1.961 -2.93,3.91 -4.918,4.93 -6.871,6.871 -14.731,11.75 -24.531,14.719 -2.969,0.98 -4.918,0.98 -7.891,1.961 -1.949,0 -6.879,0.968 -8.828,0.968 -1.949,0 -9.801,-0.968 -11.801,-0.968 -0.969,0 0,0 -1.949,0 -1.949,0 -2.93,-0.981 -3.941,-0.981 -0.981,0 -1.961,0 -1.961,0 l -5.899,-1.949 c 0,0 0,0 -0.969,-1.02 h -0.98 c 0,0 0,0 -0.981,0 -0.968,-0.98 -2.96,-1.949 -3.941,-1.949 l -0.98,-0.98 c -0.969,0 -0.969,-0.981 -1.95,-0.981 l -5.898,-3.941 -7.852,-6.879 c -2.968,-3.899 -3.949,-4.918 -5.898,-8.82 -0.981,0 -0.981,-0.981 -0.981,-0.981 -1.011,-0.98 -1.011,0 -1.011,-1.988 -0.981,0 -0.981,-0.981 -0.981,-0.981 l -0.968,-2.929 c -0.981,-0.981 -0.981,-0.981 -0.981,-1.95 -0.98,-1.992 -0.98,-1.019 -0.98,-1.992 l -0.969,-3.91 c -1.02,-3.949 -1.02,-6.879 0,-10.82 0.969,-1.949 2.93,-4.918 3.898,-5.899 0.981,0 0.981,0 1.992,-0.98 0,0 0,0 0,-0.969 0.981,0 0.981,0 0.981,0 l 0.98,-0.98 c 0.969,0 0.969,0 1.95,0 l 0.98,-1.012 c 0.969,0 1.988,0 2.969,-0.981 0.969,0 1.949,0 1.949,0 0.981,0 1.949,0 2.93,-0.976 1.011,0 4.922,0 6.91,0 0.98,0 2.93,0.976 3.91,0.976 l 4.922,0.981 c 0.98,0 0,0 0.98,0 l 0.969,1.012 h 0.981 c 0.98,0 0.98,0 1.988,0.98 0.98,0 0.98,0 1.961,0 l 2.93,1.949 c 4.921,2.969 10.82,7.852 14.761,11.801 1.949,1.949 2.93,3.899 4.879,4.918 l 4.93,4.883 c 0.969,1.019 3.941,3.949 5.89,3.949 z"
          style="fill:#e03016;fill-opacity:1;fill-rule:evenodd;stroke:none" id="path14" />
      <path
          d="m 62.8906,203.871 c 0,-1.992 0,-0.98 -1.0117,-1.992 v -0.981 c 0,-0.976 0,0 0,-0.976 1.0117,0 1.9922,0 2.9609,0 0.9805,0 0.9805,0 1.961,0 0,0.976 0,0.976 0.9687,0.976 2,0 2.9688,-0.976 5.9024,0 0,0 0,0 0.9765,0 l 1.0118,0.981 c 0.9804,0 1.9609,1.012 2.9296,1.012 1.961,0.98 0.9805,0.98 1.961,0.98 v 0.969 c 0.9687,0 0.9687,0.98 1.9883,1.961 0.9804,0.969 3.9101,7.847 4.8828,9.84 0,0.98 1.0195,2.929 1.0195,4.879 0,1.019 0.9688,2 0.9688,2.968 0,0.981 0.9804,1.961 0.9804,2.934 -0.9804,0 -4.9218,0 -5.9023,1.019 -0.9688,0 -1.9492,0 -2.9688,0 l -1.9492,0.969 c -2.9297,0.981 -6.8711,1.961 -8.832,3.91 -0.9688,0 -0.9688,0.981 -1.9492,0.981 -1.0196,0 -1.0196,1.008 -1.9883,1.008 -1.961,1.961 -6.8789,5.863 -6.8789,8.832 -0.9727,0.98 -0.9727,1.949 0,2.929 l 1.957,-0.98 c 1.0117,0 0,-0.969 1.9922,-0.969 h 0.9687 c 2.9297,0 2.9297,-0.98 6.879,-0.98 2.9296,0 1.9531,0.98 3.9414,0.98 1.9609,0.969 0.9804,0.969 1.9609,0.969 l 2.9297,2 c 0,0 0.9687,0 0.9687,0.969 1.0196,0 1.0196,0 1.0196,0 l 1.9492,1.961 c 0.9805,0.968 0.9805,0.968 0.9805,0.968 0.9804,0.981 0.9804,0.981 0.9804,0.981 0.9727,0.98 2.961,1.992 3.9414,2.972 0,0.969 0,0 0.9805,0.969 h -0.9805 v 0.981 c 0,1.949 -1.9492,10.82 -1.9492,12.769 -3.9531,11.801 -7.8906,22.578 -16.7226,30.469 -3.9493,2.93 -8.8282,6.883 -14.7305,7.851 -4.918,1.961 -9.8399,0.981 -14.7578,-1.949 l -3.9102,-4.922 c -0.9805,-1.988 -2.9687,-4.918 -2.9687,-7.847 -1.9532,-13.793 7.8867,-27.543 15.7382,-37.352 4.9297,-7.851 9.8086,-16.711 11.8008,-26.519 1.9492,-3.942 1.9492,-8.871 1.9492,-13.75 0,-2.969 0,-6.871 -0.9687,-9.84 0,-0.981 -0.9805,-1.961 -0.9805,-2.93 z"
          style="fill:#a21a16;fill-opacity:1;fill-rule:evenodd;stroke:none" id="path16" />
      <path
          d="m 82.5391,206.801 c -1.0196,-0.981 -1.0196,-1.961 -1.9883,-1.961 v -0.969 c -0.9805,0 0,0 -1.961,-0.98 -0.9687,0 -1.9492,-1.012 -2.9296,-1.012 l -1.0118,-0.981 c -0.9765,0 -0.9765,0 -0.9765,0 -2.9336,-0.976 -3.9024,0 -5.9024,0 -0.9687,0 -0.9687,0 -0.9687,-0.976 -0.9805,0 -0.9805,0 -1.961,0 -0.9687,0 -1.9492,0 -2.9609,0 0,0.976 0,0 0,0.976 v 0.981 c 1.0117,1.012 1.0117,0 1.0117,1.992 v -0.98 c -1.0117,-1.012 -1.0117,-1.012 -1.9922,-1.993 -2.9296,0 -7.8476,2.973 -9.8086,4.922 -2.9687,1.95 -7.8515,6.879 -11.789,10.821 -2.9297,2.929 -4.9219,3.91 -7.8516,5.898 -5.8984,2.93 -12.7773,4.883 -18.6797,3.91 -1.9492,0 -0.9687,0 -2.92966,0 -1.98828,-0.98 -3.9414,-1.961 -5.89062,-2.929 l -1.01953,-2 C 0.980469,220.551 0,217.621 0,216.641 c 0,-3.942 0,-6.871 1.94922,-9.84 2,-4.922 3.94922,-7.852 6.87891,-11.801 1.01171,0 1.99217,-0.98 1.99217,-1.949 l 7.8516,-4.93 c 0,-0.973 0,-0.973 0.9765,-0.973 0,-0.976 0.9727,0 0.9727,-0.976 0.9805,0 0.9805,0 0.9805,0 0.9765,-0.973 1.9882,-0.973 2.9687,-1.953 0,0 0,0 0.9805,0 l 0.9687,-0.981 c 0.9805,0 0.9805,0 0.9805,0 1.9883,-1.008 4.9219,-1.008 5.8984,-1.008 2.9727,-0.98 10.8204,-0.98 13.75,-0.98 0.9727,0.98 0.9727,0.98 1.9922,0.98 1.9492,0 3.9102,1.008 5.8594,1.008 1.0195,0.981 1.0195,0.981 1.0195,0.981 0.9688,0 0.9688,0 1.9493,0 0,0 0,0 0,0.98 0.9804,0 0.9804,0 1.9531,0.973 0.9765,0 0.9765,0 1.957,0 l 1.9922,0.976 c 0.9687,0.973 0.9687,0.973 0.9687,0.973 2.9297,2 1.961,1.02 3.9493,2 2.9297,2.93 6.8711,5.899 9.8007,9.801 l 2.9297,3.949 c 0,0.969 1.0196,1.949 1.0196,2.93 z"
          style="fill:#e03016;fill-opacity:1;fill-rule:evenodd;stroke:none" id="path18" />
      <path
          d="m 94.3008,85.9805 c -4.8906,0 -9.8125,0 -14.7305,0 C 74.6484,85 69.7695,85 65.8203,85 c -4.9219,-1.0195 -8.832,-1.0195 -13.75,-1.9883 -0.9805,0 -11.8008,-1.9609 -11.8008,-1.9609 l -0.9687,-0.9727 c 0.9687,-0.9765 0,0 0,-0.9765 l 6.8711,-1.9922 c 3.9492,-0.9805 10.8164,-1.9492 14.7265,-1.9492 1.9922,0 2.9727,0 3.9414,-0.9805 h 11.8008 c 2.9297,-0.9805 5.8985,-0.9805 8.8282,-0.9805 1.9531,0 5.9023,0 7.8515,0 2.9688,0 5.8985,0 8.8707,0 6.868,0 15.7,0 22.579,0 h 22.609 c 5.859,0 12.742,0.9805 18.641,0.9805 3.941,0 6.871,0 9.839,0.9805 1.95,0 2.93,0 4.922,0 0.981,0 0.981,0 2.93,0 l 5.898,0.9687 c 2.93,0 6.871,0.9805 9.801,1.9922 1.02,0.9805 1.02,0.9805 1.02,1.957 l -1.02,0.9727 c -0.969,0 -1.949,0 -1.949,0 l -3.91,0.9805 -8.86,1.9492 c -1.961,0 -4.921,0 -7.851,1.0195 -2.93,0 -6.879,0 -9.809,0 -3.941,0 -8.871,0.9805 -13.793,0.9805 -4.879,0 -8.828,0 -13.75,0 -3.898,0 -6.867,0 -9.797,0 l -12.781,0.9687 c -7.851,0 -15.738,-0.9687 -22.6092,-0.9687 z"
          style="fill:#c4c4c4;fill-opacity:1;fill-rule:evenodd;stroke:none" id="path20" />
      <path
          d="m 90.3906,257.891 v -0.981 h 0.9805 c -0.9805,-0.969 -0.9805,0 -0.9805,-0.969 -0.9804,-0.98 -2.9687,-1.992 -3.9414,-2.972 0,0 0,0 -0.9804,-0.981 0,0 0,0 -0.9805,-0.968 l -1.9492,-1.961 c 0,0 0,0 -1.0196,0 0,-0.969 -0.9687,-0.969 -0.9687,-0.969 l -2.9297,-2 c -0.9805,0 0,0 -1.9609,-0.969 -1.9883,0 -1.0118,-0.98 -3.9414,-0.98 -3.9493,0 -3.9493,0.98 -6.879,0.98 h -0.9687 c -1.9922,0 -0.9805,0.969 -1.9922,0.969 l -1.957,0.98 c -0.9727,-0.98 -0.9727,-1.949 0,-2.929 0,-2.969 4.9179,-6.871 6.8789,-8.832 0.9687,0 0.9687,-1.008 1.9883,-1.008 0.9804,0 0.9804,-0.981 1.9492,-0.981 1.9609,-1.949 5.9023,-2.929 8.832,-3.91 l 1.9492,-0.969 c 1.0196,0 2,0 2.9688,0 0.9805,-1.019 4.9219,-1.019 5.9023,-1.019 0.9805,0 1.9492,0 2.9297,0 4.918,1.019 5.8985,1.019 10.8207,1.988 4.918,1.961 6.879,2.93 10.82,5.899 1.949,0.98 2.93,1.961 3.91,3.91 2.969,1.953 4.918,5.902 6.867,8.871 l 1.992,3.898 c 0,0.981 0,0.981 0,0.981 0,0.98 0,0.98 0.981,0.98 0,1.992 0,1.012 0,3.942 0,0.98 -0.981,4.918 -1.992,5.898 -0.981,0.981 0,0 -1.949,1.949 0,0 0,0 -0.981,0 0,0.981 0,0.981 -1.949,1.992 h -1.02 c -0.98,0 -0.98,0 -1.949,0 -1.961,0.981 -4.922,0.981 -7.851,0.981 0,0 -0.981,0 -0.981,-0.981 -1.949,0 -1.949,0 -4.918,-1.011 -3.949,-0.981 -7.8515,-3.91 -9.8124,-5.899 l -1.9883,-1.949 c -2.9297,-1.961 -1.9492,-1.961 -2.9297,-0.98 z"
          style="fill:#e03016;fill-opacity:1;fill-rule:evenodd;stroke:none" id="path22" />
      <path
          d="m 185.66,165.551 c 1.02,0 1.02,0 1.02,0 v -0.981 c 0,0 0,-0.98 0,-1.992 0,-1.957 0,-3.906 0,-4.879 l -1.02,-0.98 -0.969,-2.969 c 0,-0.98 0,-0.98 -0.98,-1.949 v -0.981 c 0,0 -0.981,0 -0.981,-0.98 0,0 0,-1.012 -0.968,-1.012 0,-0.976 -0.981,-0.976 -0.981,-1.949 -1.011,-0.981 -1.011,0 -1.011,-0.981 l -1.961,-0.976 c 0,-0.973 0,-0.973 0,-0.973 0.98,0 0.98,0 0.98,0 h 3.941 c 0.981,0 0.981,0 1.961,0.973 0,0 0,0 0.969,0 h 1.02 l 1.949,0.976 c 0.98,0 0.98,0 0.98,0 l 1.95,0.981 0.98,0.973 c 1.012,0 0,0 1.012,0 l 0.98,0.976 1.949,1.012 c 0.981,0.98 0.981,0.98 0.981,0.98 0.98,0.981 0,0 0.98,0.981 0,0 0,0.969 0.969,0.969 0,0.98 1.02,0.98 1.02,0.98 0.98,0.98 1.949,1.949 1.949,1.949 0.98,1.02 0.98,1.02 0.98,1.02 l 1.95,2.929 c 0,0 0,0 1.019,0 v 0.973 c 0.973,0 0.973,0.981 1.953,1.957 0,1.012 0,1.012 0,1.992 0.981,0.981 0.981,0 0.981,0.981 0,0 0,0 0,0.969 0.968,0 0.968,0 0.968,0.98 0.981,1.988 1.961,4.922 1.961,6.879 0,0 1.008,0.973 1.008,1.992 v 0.969 c 0.981,6.879 0,13.75 -1.988,18.68 -2.93,6.871 -8.832,16.679 -16.68,15.699 -4.922,0 -8.871,-2.93 -9.84,-5.899 -1.961,-3.941 -3.91,-7.851 -3.91,-12.769 -1.011,-8.832 2.93,-15.711 4.879,-23.563 0,-1.008 1.02,-2.968 0,-3.937 z"
          style="fill:#e03016;fill-opacity:1;fill-rule:evenodd;stroke:none" id="path24" />
      <path
          d="m 116.91,116.41 c 0,0 -0.969,0 -0.969,-0.98 -0.98,0 -0.98,0 -0.98,0 l -2.973,-0.981 c -0.968,-0.969 -6.867,-0.969 -7.847,0 -1.95,0.981 -1.95,0 -2.969,0 -0.973,0.981 -1.9532,0.981 -1.9532,1.961 h -1.9493 v 1.012 h -0.9804 c 2.9297,-6.91 6.8709,-11.801 14.7309,-14.762 0.968,0 0.968,0 0.968,0 1.961,-0.98 3.953,-1.961 5.903,-1.961 5.898,-0.9685 10.82,-0.9685 16.718,0.981 6.871,1.949 12.77,6.871 16.68,12.769 0.981,1.961 0.981,1.961 0.981,3.949 0.968,1.954 1.992,3.903 0,6.872 0,0 0,0 0,0.98 l -1.961,1.949 c -0.969,0.981 -1.95,2 -3.938,2 -2.93,0.973 -9.812,0.973 -12.781,-1.019 -0.969,-0.981 -2.93,-0.981 -3.899,-1.95 -0.98,0 -0.98,-0.98 -1.961,-1.96 -1.011,0 -1.992,-0.969 -2.96,-1.989 z"
          style="fill:#e03016;fill-opacity:1;fill-rule:evenodd;stroke:none" id="path26" />
      <path
          d="m 146.371,30.9414 -0.98,-13.75 c 0,-5.9023 0.98,-8.83202 4.918,-12.78124 3.953,-2.92969 11.8,-1.94922 16.722,-1.94922 4.879,0 19.649,0 20.629,0 0.969,0 2.93,1.94922 1.949,3.94922 -0.98,2.92968 -2.929,1.94922 -5.898,1.94922 h -23.59 c -3.91,0 -4.891,0.98046 -6.883,2.92972 -0.968,0.9804 -0.968,1.9922 -0.968,2.9726 v 6.8672 c 7.851,0 16.71,0 24.57,0 h 10.82 c 0.969,0.9805 1.949,0.9805 1.949,2.9297 0,0.9805 0,0.9805 0,1.9922 -0.98,0 -0.98,0 -0.98,0 0,0.9805 0,0.9805 0,0.9805 -8.859,0 -19.649,0 -28.508,0 h -7.851 c 0,1.9492 0,4.8789 0,6.8789 0,1.9492 0.968,2.9296 1.992,3.8984 1.949,1.9922 2.929,1.9922 4.879,1.9922 h 26.519 c 1.02,0 2,0 2.969,0 0.98,1.9609 1.961,3.9101 0,5.8984 -0.969,0.9805 -0.969,0 -2.969,0 -8.82,0 -16.68,0.9805 -25.539,0 -6.883,0 -9.812,-1.0078 -12.742,-6.8711 -1.988,-1.9883 -1.008,-4.9179 -1.008,-7.8867 z"
          style="fill:#9d9e9d;fill-opacity:1;fill-rule:evenodd;stroke:none" id="path28" />
      <path
          d="m 56.0195,21.1289 c 7.8516,0 15.6993,0 23.5508,0 2.9688,0 4.918,0 6.8789,0.9805 1.9922,0.9804 2.961,1.9492 4.9219,2.9297 3.9375,4.9218 3.9375,12.7695 -0.9805,17.6914 -2.9687,2.9687 -5.9023,2.9687 -11.8008,2.9687 H 55 c -1.9492,0 -4.8789,0.9805 -4.8789,-1.9883 0,-1.9492 0,-2.9296 0.9687,-3.9101 0.9805,0 1.961,0 2.9297,0 h 23.6016 c 1.9492,0 4.918,0 6.8672,-0.9727 0.9805,-1.0195 2.9336,-1.9883 2.9336,-4.9179 0,-2 -0.9727,-3.9493 -1.9531,-4.9297 -2.9297,-1.9492 -2.9297,-1.9492 -6.879,-1.9492 -4.9179,0 -9.8007,0 -15.6992,0 -1.9922,0 -4.9218,0 -7.8906,0 -0.9805,0 -2.9297,0 -2.9297,0 -0.9805,0 -0.9805,-0.9805 -0.9805,-0.9805 l -0.9687,-1.0117 c 0,-1.9493 0,-16.67972 0,-19.64847 0,-0.98047 0,-1.94922 0.9687,-2.92969 0.9805,0 3.9102,0 4.9297,0.98047 0,0.96875 0,0.96875 0,1.94922 0,4.91797 0,9.83987 0,15.73827 z"
          style="fill:#9d9e9d;fill-opacity:1;fill-rule:evenodd;stroke:none" id="path30" />
      <path
          d="m 20.6211,45.6992 c -4.9219,0 -8.8203,-1.0078 -11.79297,-3.9375 C 5.89844,39.8008 3.94922,36.8398 1.94922,32.9297 0,28.0117 0,26.0508 0,19.1797 0,17.1914 0,6.41016 0,4.41016 0.980469,2.46094 3.94922,1.48047 5.89844,3.44141 c 0.98047,0.96875 0,0.96875 0,2.96875 0,4.87894 0,14.71874 0.98047,19.64064 0.97265,7.8594 7.85159,14.7305 16.71089,13.75 4.8907,-0.9727 8.8321,-2.961 9.8086,-5.8906 2.9727,-2.9688 3.9414,-6.8789 3.9414,-11.8008 0,-4.918 0,-10.8203 0,-15.69924 0,-1.01953 0,-2 0.9805,-2.96875 0.9805,-0.98047 3.9102,-1.96094 4.918,0 0.9805,0.96875 0.9805,1.94922 0.9805,3.9375 0,4.89059 0,17.66019 -0.9805,22.58199 0,1.9493 -1.9883,3.9493 -1.9883,5.8985 -3.9102,5.9023 -12.7695,10.8203 -20.6289,9.8398 z"
          style="fill:#9d9e9d;fill-opacity:1;fill-rule:evenodd;stroke:none" id="path32" />
      <path
          d="m 196.48,231.371 3.95,-1.961 c 0.98,0 1.949,-0.969 2.929,-1.988 6.871,-3.902 12.77,-7.852 21.602,-9.801 1.988,-0.98 6.879,-0.98 8.867,0 2.934,0.969 4.883,1.949 5.902,4.918 0.969,3.91 -2,7.852 -3.949,11.762 l -0.98,2.969 c -0.973,0 -0.973,0 -0.973,0 0,-0.981 0.973,-0.981 0.973,-1.961 l 1.961,-3.938 c 0,0.969 -0.981,0.969 -1.961,1.949 -2.961,0.981 -2.961,1.989 -6.871,2.969 -6.879,2.93 -16.719,2.93 -23.59,0 -2.93,-0.98 -2.93,-0.98 -4.93,-0.98 -0.969,-1.008 -0.969,-1.008 -1.949,-1.989 -1.949,-0.98 -1.949,-0.98 -1.949,-1.949 z"
          style="fill:#a21a16;fill-opacity:1;fill-rule:evenodd;stroke:none" id="path34" />
      <path
          d="m 56.9883,165.551 c 0,-0.981 0,0 0.9805,-0.981 0,0 0,0 0.9804,0 l 2.9297,-1.992 c 1.0117,-0.976 1.0117,-0.976 1.9922,-0.976 0.9687,-0.981 0.9687,-0.981 1.9492,-0.981 l 1.9492,-0.973 c 1.0196,-0.976 2.9688,-0.976 3.9493,-0.976 0.9804,-0.973 4.9218,0 5.9023,0 0.9687,0 2.9297,0 3.8984,0 1.0196,-0.973 0,-0.973 1.0196,-0.973 0.9804,0 0.9804,0 1.9492,0 0.9805,0.973 0.9805,0.973 0.9805,0.973 0.9804,0 1.9531,0 2.9726,0.976 h 0.9688 c 1.9609,0.973 0.9804,0 1.9609,0.973 0.9687,0 1.9492,0 2.9297,0.981 1.0078,0.976 1.0078,0.976 1.0078,0.976 0.9805,1.012 2.9297,1.012 3.9102,1.992 h -0.9805 c -10.8164,3.91 -16.7188,12.77 -31.4375,14.731 -2.9297,0.969 -6.8789,0 -8.832,-0.981 C 56.9883,177.34 55,175.352 55,173.398 c -0.9805,-2.929 0,-6.878 1.9883,-7.847 z"
          style="fill:#a21a16;fill-opacity:1;fill-rule:evenodd;stroke:none" id="path36" />
      <path
          d="m 116.91,39.8008 c 0,-0.9727 0,-3.9414 0,-4.9219 V 19.1797 c 0,-1.0195 0,-13.78907 0,-14.76954 0,-0.96875 0.981,-1.94922 2.93,-1.94922 3.949,0 2.969,2.92969 2.969,6.8789 0,2.92966 0,29.48826 0,30.46096 0.98,0 4.921,0 5.902,0 1.949,0 3.91,0 5.898,0 0.981,0 4.879,0 5.86,0 1.992,1.9609 1.992,4.8906 0,5.8984 -0.981,0.9805 -1.949,0 -2.93,0 h -35.348 c -1.992,0 -2.9722,0 -3.9527,-1.9883 -0.9688,-1.9492 0,-1.9492 0,-2.9296 1.9607,-0.9805 -0.9688,-0.9805 6.8827,-0.9805 1.949,0 3.938,0 5.899,0 0.968,0 4.921,0 5.89,0 z"
          style="fill:#9d9e9d;fill-opacity:1;fill-rule:evenodd;stroke:none" id="path38" />
      <path
          d="m 198.441,46.6797 c -0.98,-0.9805 -2.929,-1.9883 -2.929,-2.9688 V 27.0313 c 0,-3.9415 0,-6.8711 0,-10.8204 0,-3.9414 0.968,-5.9023 2.929,-8.83199 0.969,-1.98828 2.969,-3.9375 5.899,-4.91797 2.961,-0.98047 7.851,0 10.82,0 6.871,0 14.719,0 21.602,0 0.968,0 0.968,0 1.949,0.98047 1.019,0.96875 1.019,3.9375 -0.981,4.91797 -0.968,0.98046 -19.64,0 -21.601,0 -2.93,0 -8.828,0 -10.82,0.98046 -0.969,0.96876 -2.93,3.94146 -2.93,4.92186 0,3.8985 0,9.7969 0,13.75 0,0.9688 0,15.6992 0,16.6797 -0.969,0 -1.949,1.9883 -3.938,1.9883 z"
          style="fill:#9d9e9d;fill-opacity:1;fill-rule:evenodd;stroke:none" id="path40" />
      <path
          d="m 113.949,296.211 c 1.012,1.949 -0.98,0.98 1.992,1.949 2.93,0 8.829,0 10.778,-0.969 -2.93,4.918 -8.828,9.84 -14.731,10.821 -7.847,0 -14.7185,-1.992 -18.6677,-6.883 -0.9805,-1.988 -3.9101,-5.899 -2.9297,-8.859 0,-1.961 0.9805,-2.93 1.9492,-3.911 1.961,-0.98 3.9493,-0.98 5.8985,-0.98 3.9527,0 6.8827,1.961 8.8317,3.91 1.02,0.981 1.989,1.949 2.969,2.973 0.981,0 2.93,1.949 3.91,1.949 z"
          style="fill:#e03016;fill-opacity:1;fill-rule:evenodd;stroke:none" id="path42" />
      <path
          d="m 185.66,165.551 -0.969,-0.981 c -0.98,-0.98 -1.961,-0.98 -2.929,-1.992 -4.922,-2.93 -11.801,-6.879 -13.75,-12.738 -0.981,-1.012 -0.981,-1.988 -0.981,-2.961 0,-0.981 0.981,-1.957 1.949,-1.957 0.981,-1.992 1.961,-1.992 4.93,-1.992 5.86,0 10.781,1.019 16.68,2.968 6.871,3.942 13.75,10.821 17.691,17.692 l 1.949,3.91 c 0,-0.98 0,-0.98 -0.968,-0.98 0,-0.969 0,-0.969 0,-0.969 0,-0.981 0,0 -0.981,-0.981 0,-0.98 0,-0.98 0,-1.992 -0.98,-0.976 -0.98,-1.957 -1.953,-1.957 v -0.973 c -1.019,0 -1.019,0 -1.019,0 l -1.95,-2.929 c 0,0 0,0 -0.98,-1.02 0,0 -0.969,-0.969 -1.949,-1.949 0,0 -1.02,0 -1.02,-0.98 -0.969,0 -0.969,-0.969 -0.969,-0.969 -0.98,-0.981 0,0 -0.98,-0.981 0,0 0,0 -0.981,-0.98 l -1.949,-1.012 -0.98,-0.976 c -1.012,0 0,0 -1.012,0 l -0.98,-0.973 -1.95,-0.981 c 0,0 0,0 -0.98,0 l -1.949,-0.976 h -1.02 c -0.969,0 -0.969,0 -0.969,0 -0.98,-0.973 -0.98,-0.973 -1.961,-0.973 h -3.941 c 0,0 0,0 -0.98,0 0,0 0,0 0,0.973 l 1.961,0.976 c 0,0.981 0,0 1.011,0.981 0,0.973 0.981,0.973 0.981,1.949 0.968,0 0.968,1.012 0.968,1.012 0,0.98 0.981,0.98 0.981,0.98 v 0.981 c 0.98,0.969 0.98,0.969 0.98,1.949 l 0.969,2.969 1.02,0.98 c 0,0.973 0,2.922 0,4.879 0,1.012 0,1.992 0,1.992 v 0.981 c 0,0 0,0 -1.02,0 z"
          style="fill:#a21a16;fill-opacity:1;fill-rule:evenodd;stroke:none" id="path44" />
      <path
          d="m 96.2891,117.422 h 0.9804 v -1.012 h 1.9493 c 0,-0.98 0.9802,-0.98 1.9532,-1.961 1.019,0 1.019,0.981 2.969,0 0.98,-0.969 6.879,-0.969 7.847,0 l 2.973,0.981 c 0,0 0,0 0.98,0 0,0.98 0.969,0.98 0.969,0.98 -1.949,1.012 -4.922,2.969 -5.89,3.942 -1.961,0.976 -3.95,1.949 -5.899,2.929 -1.961,1.02 -5.9022,1.989 -7.8515,1.02 -0.9804,0 -1.9609,-1.02 -1.9609,-2 -1.0078,-1.949 0,-2.922 0.9805,-4.879 z"
          style="fill:#a21a16;fill-opacity:1;fill-rule:evenodd;stroke:none" id="path46" />
      <path
          d="m 113.949,296.211 c 1.992,-0.981 6.871,-3.941 8.86,-4.922 4.921,-0.98 5.902,1.949 3.91,5.902 -1.949,0.969 -7.848,0.969 -10.778,0.969 -2.972,-0.969 -0.98,0 -1.992,-1.949 z"
          style="fill:#a21a16;fill-opacity:1;fill-rule:evenodd;stroke:none" id="path48" />
    </g>
  </g>
</svg>
