<?xml version="1.0" encoding="UTF-8"?>
<!DOCTYPE svg PUBLIC "-//W3C//DTD SVG 1.1//EN" "http://www.w3.org/Graphics/SVG/1.1/DTD/svg11.dtd">
<!-- Creator: CorelDRAW -->
<svg xmlns="http://www.w3.org/2000/svg" xml:space="preserve" width="32px" height="41px" version="1.1" style="shape-rendering:geometricPrecision; text-rendering:geometricPrecision; image-rendering:optimizeQuality; fill-rule:evenodd; clip-rule:evenodd"
viewBox="0 0 2.44 3.13"
 xmlns:xlink="http://www.w3.org/1999/xlink"
 xmlns:xodm="http://www.corel.com/coreldraw/odm/2003">
 <defs>
  <style type="text/css">
   <![CDATA[
    .fil3 {fill:#9D9E9D}
    .fil1 {fill:#A21A16}
    .fil2 {fill:#C4C4C4}
    .fil0 {fill:#E03016}
   ]]>
  </style>
 </defs>
 <g id="Layer_x0020_1">
  <metadata id="CorelCorpID_0Corel-Layer"/>
  <g id="_2598197893776">
   <path class="fil0" d="M1 1.48l0.01 0c0,0 0,0 0,0 -0.01,0.01 -0.03,0.01 -0.04,0.02 0,0 0,0 -0.01,0.01 -0.01,0.01 -0.02,0.01 -0.03,0.01 -0.01,0.01 0,0 -0.02,0.01 0,0 0,0 0,0l-0.01 0c-0.01,0.01 -0.02,0.01 -0.03,0.01 0,0 0,0 -0.01,0.01 -0.01,0 -0.01,0 -0.02,0 -0.01,0 0,0 -0.01,-0.01 -0.01,0 -0.03,0 -0.04,0 -0.01,0 -0.05,0.01 -0.06,0 -0.01,0 -0.03,0 -0.04,-0.01l-0.02 -0.01c-0.01,0 -0.01,0 -0.02,-0.01 -0.01,0 -0.01,0 -0.02,-0.01l-0.03 -0.02c0,0 0,0 0,0l0 0c-0.01,0 -0.01,0 -0.01,0l0 0c-0.01,-0.01 -0.01,0 -0.01,-0.01 0,0.01 0,0.01 0,0.02 0.03,0.04 0.05,0.07 0.08,0.1 0.02,0.04 0.05,0.07 0.09,0.09l0.02 0.02c0.01,0 0,0 0.02,0.01l0 0c0,0 0,0 0,0.01 0,0 0,0 0,0 0.02,0.01 0.03,0.02 0.06,0.03 0,0 0,0 0,0 0,0 0,0 0,0 0,0 0,0 0,0 0,0 0,0 0,0l0.04 0.02c0.02,0.01 0.05,0.02 0.08,0.03 0.01,0 0.02,0 0.04,0.01 0.02,0 0.04,0 0.06,0.01 0.04,0 0.1,0 0.13,0l0.07 -0.01c0.01,0 0.02,0 0.04,-0.01 0.02,0 0.04,-0.01 0.06,-0.01 0.01,-0.01 0.02,-0.01 0.03,-0.01 0,-0.01 0,-0.01 0.01,-0.01l0.02 -0.01c0.01,0 0.02,0 0.03,-0.01 0.01,-0.01 0.01,-0.01 0.02,-0.01l0 -0.01c0.02,-0.01 0.01,0 0.03,-0.01l0.03 -0.02c0,-0.01 0.01,-0.01 0.01,-0.01 0.01,-0.01 0.01,-0.01 0.02,-0.01 0.09,-0.08 0.21,-0.24 0.19,-0.37 -0.01,-0.06 -0.04,-0.1 -0.08,-0.12 -0.02,-0.01 -0.06,-0.03 -0.08,-0.03 -0.01,0 -0.02,0 -0.02,0 -0.03,-0.01 -0.05,-0.01 -0.08,0 -0.01,0 -0.03,0 -0.04,0l-0.06 0.02c-0.01,0 -0.02,0 -0.02,0 0,0 0,0 -0.01,0.01 0,0 0,0 0,0 0,0 -0.01,0 -0.01,0l-0.02 0.01c-0.01,0 0,0 -0.01,0.01l-0.05 0.03c-0.01,0 -0.01,0 -0.02,0.01 0,0 -0.01,0 -0.01,0.01l-0.06 0.04c0,0.01 -0.01,0.01 -0.01,0.02 -0.01,0 -0.01,0 -0.02,0.01l-0.05 0.05c-0.01,0.01 -0.03,0.03 -0.05,0.05 -0.01,0.01 -0.03,0.03 -0.04,0.04 0,0 -0.01,0 -0.01,0 0,0 0,0.01 -0.01,0.01z"/>
   <path class="fil0" d="M2 0.8c0,0 -0.01,0 -0.01,0 0,-0.01 0,-0.01 0.02,-0.02 0.01,-0.01 0.01,-0.01 0.02,-0.02 0.02,0 0.02,0 0.05,-0.01 0.07,-0.03 0.17,-0.03 0.24,0 0.04,0.01 0.04,0.02 0.07,0.03 0.01,0.01 0.02,0.01 0.02,0.02 0,0 0,0 0,0 0,0 0,0 0,0l-0.02 -0.04c0,0 0,0 0,0 0,-0.01 -0.01,-0.01 -0.01,-0.02 0,-0.01 -0.03,-0.05 -0.04,-0.06 -0.02,-0.02 -0.03,-0.04 -0.05,-0.05 -0.07,-0.07 -0.15,-0.12 -0.25,-0.15 -0.03,-0.01 -0.05,-0.01 -0.08,-0.02 -0.02,0 -0.07,-0.01 -0.09,-0.01 -0.02,0 -0.1,0.01 -0.12,0.01 -0.01,0 0,0 -0.02,0 -0.02,0 -0.03,0.01 -0.04,0.01 -0.01,0 -0.02,0 -0.02,0l-0.06 0.02c0,0 0,0 -0.01,0.01l-0.01 0c0,0 0,0 -0.01,0 -0.01,0.01 -0.03,0.02 -0.04,0.02l-0.01 0.01c-0.01,0 -0.01,0.01 -0.02,0.01l-0.06 0.04c0,0 0,0 0,0l-0.08 0.07c-0.03,0.04 -0.04,0.05 -0.06,0.09 -0.01,0 -0.01,0.01 -0.01,0.01 -0.01,0.01 -0.01,0 -0.01,0.02 -0.01,0 -0.01,0.01 -0.01,0.01l-0.01 0.03c-0.01,0.01 -0.01,0.01 -0.01,0.02 -0.01,0.02 -0.01,0.01 -0.01,0.02l-0.01 0.04c-0.01,0.04 -0.01,0.07 0,0.11 0.01,0.02 0.03,0.05 0.04,0.06 0.01,0 0.01,0 0.02,0.01 0,0 0,0 0,0.01 0,0 0,0 0,0 0,0 0,0 0,0 0.01,0 0.01,0 0.01,0l0.01 0.01c0.01,0 0.01,0 0.02,0l0.01 0.01c0.01,0 0.02,0 0.03,0.01 0,0 0,0 0,0 0,0 0,0 0,0 0.01,0 0.02,0 0.02,0 0.01,0 0.02,0 0.03,0.01 0.01,0 0.05,0 0.07,0 0.01,0 0.03,-0.01 0.04,-0.01l0.05 -0.01c0.01,0 0,0 0.01,0 0,0 0.01,-0.01 0.01,-0.01 0,0 0.01,0 0.01,0 0.01,0 0.01,0 0.02,-0.01 0.01,0 0.01,0 0.02,0l0.03 -0.02c0.05,-0.03 0.11,-0.08 0.15,-0.12 0.02,-0.02 0.03,-0.04 0.05,-0.05l0.05 -0.05c0.01,-0.01 0.04,-0.04 0.06,-0.04z"/>
   <path class="fil1" d="M0.64 1.08c0,0.02 0,0.01 -0.01,0.02 0,0 0,0.01 0,0.01 0,0.01 0,0 0,0.01 0.01,0 0.02,0 0.03,0 0.01,0 0.01,0 0.02,0 0,-0.01 0,-0.01 0.01,-0.01 0.02,0 0.03,0.01 0.06,0 0,0 0,0 0.01,0l0.01 -0.01c0.01,0 0.02,-0.01 0.03,-0.01 0.02,-0.01 0.01,-0.01 0.02,-0.01l0 -0.01c0.01,0 0.01,-0.01 0.02,-0.02 0.01,-0.01 0.04,-0.08 0.05,-0.1 0,-0.01 0.01,-0.03 0.01,-0.05 0,-0.01 0.01,-0.02 0.01,-0.03 0,-0.01 0.01,-0.02 0.01,-0.03 -0.01,0 -0.05,0 -0.06,-0.01 -0.01,0 -0.02,0 -0.03,0l-0.02 -0.01c-0.03,-0.01 -0.07,-0.02 -0.09,-0.04 -0.01,0 -0.01,-0.01 -0.02,-0.01 -0.01,0 -0.01,-0.01 -0.02,-0.01 -0.02,-0.02 -0.07,-0.06 -0.07,-0.09 -0.01,-0.01 -0.01,-0.02 0,-0.03 0,0 0.02,0.01 0.02,0.01 0.01,0 0,0.01 0.02,0.01 0,0 0.01,0 0.01,0 0.03,0 0.03,0.01 0.07,0.01 0.03,0 0.02,-0.01 0.04,-0.01 0.02,-0.01 0.01,-0.01 0.02,-0.01l0.03 -0.02c0,0 0.01,0 0.01,-0.01 0.01,0 0.01,0 0.01,0l0.02 -0.02c0.01,-0.01 0.01,-0.01 0.01,-0.01 0.01,-0.01 0.01,-0.01 0.01,-0.01 0.01,-0.01 0.03,-0.02 0.04,-0.03 0,-0.01 0,0 0.01,-0.01l-0.01 0c0,0 0,0 0,0 0,0 0,0 0,0l0 -0.01c0,-0.02 -0.02,-0.11 -0.02,-0.13 -0.04,-0.12 -0.08,-0.23 -0.17,-0.31 -0.04,-0.03 -0.09,-0.07 -0.15,-0.08 -0.05,-0.02 -0.1,-0.01 -0.15,0.02l-0.04 0.05c-0.01,0.02 -0.03,0.05 -0.03,0.08 -0.02,0.14 0.08,0.28 0.16,0.38 0.05,0.08 0.1,0.17 0.12,0.27 0.02,0.04 0.02,0.09 0.02,0.14 0,0.03 0,0.07 -0.01,0.1 0,0.01 -0.01,0.02 -0.01,0.03z"/>
   <path class="fil0" d="M0.84 1.05c-0.01,0.01 -0.01,0.02 -0.02,0.02l0 0.01c-0.01,0 0,0 -0.02,0.01 -0.01,0 -0.02,0.01 -0.03,0.01l-0.01 0.01c-0.01,0 -0.01,0 -0.01,0 -0.03,0.01 -0.04,0 -0.06,0 -0.01,0 -0.01,0 -0.01,0.01 -0.01,0 -0.01,0 -0.02,0 -0.01,0 -0.02,0 -0.03,0 0,-0.01 0,0 0,-0.01 0,0 0,-0.01 0,-0.01 0.01,-0.01 0.01,0 0.01,-0.02l0 0.01c-0.01,0.01 -0.01,0.01 -0.02,0.02 -0.03,0 -0.08,-0.03 -0.1,-0.05 -0.03,-0.02 -0.08,-0.07 -0.12,-0.11 -0.03,-0.03 -0.05,-0.04 -0.08,-0.06 -0.06,-0.03 -0.13,-0.05 -0.19,-0.04 -0.02,0 -0.01,0 -0.03,0 -0.02,0.01 -0.04,0.02 -0.06,0.03l-0.01 0.02c-0.02,0.01 -0.03,0.04 -0.03,0.05 0,0.04 0,0.07 0.02,0.1 0.02,0.05 0.04,0.08 0.07,0.12 0.01,0 0.02,0.01 0.02,0.02l0.08 0.05c0,0.01 0,0.01 0.01,0.01 0,0.01 0.01,0 0.01,0.01 0.01,0 0.01,0 0.01,0 0.01,0.01 0.02,0.01 0.03,0.02 0,0 0,0 0.01,0l0.01 0.01c0.01,0 0.01,0 0.01,0 0.02,0.01 0.05,0.01 0.06,0.01 0.03,0.01 0.11,0.01 0.14,0.01 0.01,-0.01 0.01,-0.01 0.02,-0.01 0.02,0 0.04,-0.01 0.06,-0.01 0.01,-0.01 0.01,-0.01 0.01,-0.01 0.01,0 0.01,0 0.02,0 0,0 0,0 0,-0.01 0.01,0 0.01,0 0.02,-0.01 0.01,0 0.01,0 0.02,0l0.02 -0.01c0.01,-0.01 0.01,-0.01 0.01,-0.01 0.03,-0.02 0.02,-0.01 0.04,-0.02 0.03,-0.03 0.07,-0.06 0.1,-0.1l0.03 -0.04c0,-0.01 0.01,-0.02 0.01,-0.03z"/>
   <path class="fil2" d="M0.96 2.28c-0.05,0 -0.1,0 -0.15,0 -0.05,0.01 -0.1,0.01 -0.14,0.01 -0.05,0.01 -0.09,0.01 -0.14,0.02 -0.01,0 -0.12,0.02 -0.12,0.02 0,0 -0.01,0.01 -0.01,0.01 0,0 0,0 0,0 0.01,0.01 0,0 0,0.01l0.07 0.02c0.04,0.01 0.11,0.02 0.15,0.02 0.02,0 0.03,0 0.04,0.01l0.12 0c0.03,0.01 0.06,0.01 0.09,0.01 0.02,0 0.06,0 0.08,0 0.03,0 0.06,0 0.09,0 0.07,0 0.16,0 0.23,0l0.23 0c0.06,0 0.13,-0.01 0.19,-0.01 0.04,0 0.07,0 0.1,-0.01 0.02,0 0.03,0 0.05,0 0.01,0 0.01,0 0.03,0l0.06 -0.01c0.03,0 0.07,-0.01 0.1,-0.02 0.01,-0.01 0.01,-0.01 0.01,-0.02 0,0 -0.01,-0.01 -0.01,-0.01 -0.01,0 -0.02,0 -0.02,0l-0.04 -0.01 -0.09 -0.02c-0.02,0 -0.05,0 -0.08,-0.01 -0.03,0 -0.07,0 -0.1,0 -0.04,0 -0.09,-0.01 -0.14,-0.01 -0.05,0 -0.09,0 -0.14,0 -0.04,0 -0.07,0 -0.1,0l-0.13 -0.01c-0.08,0 -0.16,0.01 -0.23,0.01z"/>
   <path class="fil0" d="M0.92 0.53l0 0.01c0,0 0,0 0,0 0,0 0,0 0,0l0.01 0c-0.01,0.01 -0.01,0 -0.01,0.01 -0.01,0.01 -0.03,0.02 -0.04,0.03 0,0 0,0 -0.01,0.01 0,0 0,0 -0.01,0.01l-0.02 0.02c0,0 0,0 -0.01,0 0,0.01 -0.01,0.01 -0.01,0.01l-0.03 0.02c-0.01,0 0,0 -0.02,0.01 -0.02,0 -0.01,0.01 -0.04,0.01 -0.04,0 -0.04,-0.01 -0.07,-0.01 0,0 -0.01,0 -0.01,0 -0.02,0 -0.01,-0.01 -0.02,-0.01 0,0 -0.02,-0.01 -0.02,-0.01 -0.01,0.01 -0.01,0.02 0,0.03 0,0.03 0.05,0.07 0.07,0.09 0.01,0 0.01,0.01 0.02,0.01 0.01,0 0.01,0.01 0.02,0.01 0.02,0.02 0.06,0.03 0.09,0.04l0.02 0.01c0.01,0 0.02,0 0.03,0 0.01,0.01 0.05,0.01 0.06,0.01 0.01,0 0.02,0 0.03,0 0.05,-0.01 0.06,-0.01 0.11,-0.02 0.05,-0.02 0.07,-0.03 0.11,-0.06 0.02,-0.01 0.03,-0.02 0.04,-0.04 0.03,-0.02 0.05,-0.06 0.07,-0.09l0.02 -0.04c0,0 0,0 0,0 0,-0.01 0,-0.01 0,-0.01 0,-0.01 0,-0.01 0.01,-0.01 0,-0.02 0,-0.01 0,-0.04 0,-0.01 -0.01,-0.05 -0.02,-0.06 -0.01,-0.01 0,0 -0.02,-0.02 0,0 0,0 -0.01,0 0,-0.01 0,-0.01 -0.02,-0.02 0,0 -0.01,0 -0.01,0 -0.01,0 -0.01,0 -0.02,0 -0.02,-0.01 -0.05,-0.01 -0.08,-0.01 0,0 -0.01,0 -0.01,0.01 -0.02,0 -0.02,0 -0.05,0.01 -0.04,0.01 -0.08,0.04 -0.1,0.06l-0.02 0.02c-0.03,0.02 -0.02,0.02 -0.03,0.01z"/>
   <path class="fil0" d="M1.89 1.47c0.01,0 0.01,0 0.01,0 0,0 0,0.01 0,0.01 0,0 0,0.01 0,0.02 0,0.02 0,0.04 0,0.05 0,0 -0.01,0.01 -0.01,0.01l-0.01 0.03c0,0.01 0,0.01 -0.01,0.02l0 0.01c0,0 -0.01,0 -0.01,0.01 0,0 0,0.01 -0.01,0.01 0,0.01 -0.01,0.01 -0.01,0.02 0,0 0,0 0,0 -0.01,0.01 -0.01,0 -0.01,0.01l-0.02 0.01c0,0 0,0 0,0 0,0.01 0,0.01 0,0.01 0.01,0 0.01,0 0.01,0 0,0 0.04,0 0.04,0 0,0 0,0 0,0 0.01,0 0.01,0 0.02,-0.01 0,0 0,0 0.01,0l0 0c0,0 0.01,0 0.01,0l0.02 -0.01c0.01,0 0.01,0 0.01,0l0.02 -0.01c0,0 0,0 0,0l0.01 -0.01c0.01,0 0,0 0.01,0 0,0 0,0 0,0l0.01 -0.01c0,0 0,0 0,0 0,0 0,0 0,0l0.02 -0.01c0.01,-0.01 0.01,-0.01 0.01,-0.01 0,0 0,0 0,0 0.01,-0.01 0,0 0.01,-0.01 0,0 0,-0.01 0.01,-0.01 0,-0.01 0.01,-0.01 0.01,-0.01 0.01,-0.01 0.02,-0.02 0.02,-0.02 0.01,-0.01 0.01,-0.01 0.01,-0.01 0,0 0,0 0,0l0.02 -0.03c0,0 0,0 0.01,0 0,0 0,-0.01 0,-0.01 0.01,0 0.01,-0.01 0.02,-0.02 0,-0.01 0,-0.01 0,-0.02l0 0c0,0 0,0 0,0 0.01,-0.01 0.01,0 0.01,-0.01 0,0 0,0 0,-0.01 0.01,0 0.01,0 0.01,-0.01 0,0 0,0 0,0 0.01,-0.02 0.02,-0.05 0.02,-0.07 0,0 0.01,-0.01 0.01,-0.02 0,0 0,-0.01 0,-0.01 0.01,-0.07 0,-0.14 -0.02,-0.19 -0.03,-0.07 -0.09,-0.17 -0.17,-0.16 -0.05,0 -0.09,0.03 -0.1,0.06 -0.02,0.04 -0.04,0.08 -0.04,0.13 -0.01,0.09 0.03,0.16 0.05,0.24 0,0.01 0.01,0.03 0,0.04z"/>
   <path class="fil0" d="M1.19 1.97c0,0 -0.01,0 -0.01,0.01 -0.01,0 -0.01,0 -0.01,0l-0.03 0.01c-0.01,0.01 -0.07,0.01 -0.08,0 -0.02,-0.01 -0.02,0 -0.03,0 -0.01,-0.01 -0.02,-0.01 -0.02,-0.02l-0.02 0c0,0 0,-0.01 0,-0.01l-0.01 0c0.03,0.07 0.07,0.12 0.15,0.15 0.01,0 0.01,0 0.01,0 0.02,0.01 0.04,0.02 0.06,0.02 0.06,0.01 0.11,0.01 0.17,-0.01 0.07,-0.02 0.13,-0.07 0.17,-0.13 0.01,-0.02 0.01,-0.02 0.01,-0.04 0.01,-0.02 0.02,-0.04 0,-0.07 0,0 0,0 0,-0.01l-0.02 -0.02c-0.01,-0.01 -0.02,-0.02 -0.04,-0.02 -0.03,-0.01 -0.1,-0.01 -0.13,0.01 -0.01,0.01 -0.03,0.01 -0.04,0.02 -0.01,0 -0.01,0.01 -0.02,0.02 -0.01,0 -0.02,0.01 -0.03,0.02l-0.08 0.07z"/>
   <path class="fil3" d="M1.49 2.84l-0.01 0.14c0,0.06 0.01,0.09 0.05,0.13 0.04,0.03 0.12,0.02 0.17,0.02 0.05,0 0.2,0 0.21,0 0.01,0 0.03,-0.02 0.02,-0.04 -0.01,-0.03 -0.03,-0.02 -0.06,-0.02l-0.24 0c-0.04,0 -0.05,-0.01 -0.07,-0.03 -0.01,-0.01 -0.01,-0.02 -0.01,-0.03l0 -0.07c0.08,0 0.17,0 0.25,0l0.11 0c0.01,-0.01 0.02,-0.01 0.02,-0.03 0,-0.01 0,-0.01 0,-0.02 -0.01,0 -0.01,0 -0.01,0 0,-0.01 0,-0.01 0,-0.01 -0.09,0 -0.2,0 -0.29,0l-0.08 0c0,-0.02 0,-0.05 0,-0.07 0,-0.02 0.01,-0.03 0.02,-0.04 0.02,-0.02 0.03,-0.02 0.05,-0.02l0.27 0c0.01,0 0.02,0 0.03,0 0.01,-0.02 0.02,-0.04 0,-0.06 -0.01,-0.01 -0.01,0 -0.03,0 -0.09,0 -0.17,-0.01 -0.26,0 -0.07,0 -0.1,0.01 -0.13,0.07 -0.02,0.02 -0.01,0.05 -0.01,0.08z"/>
   <path class="fil3" d="M0.57 2.94c0.08,0 0.16,0 0.24,0 0.03,0 0.05,0 0.07,-0.01 0.02,-0.01 0.03,-0.02 0.05,-0.03 0.04,-0.05 0.04,-0.13 -0.01,-0.18 -0.03,-0.03 -0.06,-0.03 -0.12,-0.03l-0.24 0c-0.02,0 -0.05,-0.01 -0.05,0.02 0,0.02 0,0.03 0.01,0.04 0.01,0 0.02,0 0.03,0l0.24 0c0.02,0 0.05,0 0.07,0.01 0.01,0.01 0.03,0.02 0.03,0.05 0,0.02 -0.01,0.04 -0.02,0.05 -0.03,0.02 -0.03,0.02 -0.07,0.02 -0.05,0 -0.1,0 -0.16,0 -0.02,0 -0.05,0 -0.08,0 -0.01,0 -0.03,0 -0.03,0 -0.01,0 -0.01,0.01 -0.01,0.01 0,0 -0.01,0.01 -0.01,0.01 0,0.02 0,0.17 0,0.2 0,0.01 0,0.02 0.01,0.03 0.01,0 0.04,0 0.05,-0.01 0,-0.01 0,-0.01 0,-0.02 0,-0.05 0,-0.1 0,-0.16z"/>
   <path class="fil3" d="M0.21 2.69c-0.05,0 -0.09,0.01 -0.12,0.04 -0.03,0.02 -0.05,0.05 -0.07,0.09 -0.02,0.05 -0.02,0.07 -0.02,0.14 0,0.02 0,0.13 0,0.15 0.01,0.02 0.04,0.03 0.06,0.01 0.01,-0.01 0,-0.01 0,-0.03 0,-0.05 0,-0.15 0.01,-0.2 0.01,-0.08 0.08,-0.15 0.17,-0.14 0.05,0.01 0.09,0.03 0.1,0.06 0.03,0.03 0.04,0.07 0.04,0.12 0,0.05 0,0.11 0,0.16 0,0.01 0,0.02 0.01,0.03 0.01,0.01 0.04,0.02 0.05,0 0.01,-0.01 0.01,-0.02 0.01,-0.04 0,-0.05 0,-0.18 -0.01,-0.23 0,-0.02 -0.02,-0.04 -0.02,-0.06 -0.04,-0.06 -0.13,-0.11 -0.21,-0.1z"/>
   <path class="fil1" d="M2 0.8l0.04 0.02c0.01,0 0.02,0.01 0.03,0.02 0.07,0.04 0.13,0.08 0.22,0.1 0.02,0.01 0.07,0.01 0.09,0 0.03,-0.01 0.05,-0.02 0.06,-0.05 0.01,-0.04 -0.02,-0.08 -0.04,-0.12l-0.01 -0.03c-0.01,0 -0.01,0 -0.01,0 0,0.01 0.01,0.01 0.01,0.02 0,0 0,0 0,0l0.02 0.04c0,0 0,0 0,0 0,0 0,0 0,0 0,-0.01 -0.01,-0.01 -0.02,-0.02 -0.03,-0.01 -0.03,-0.02 -0.07,-0.03 -0.07,-0.03 -0.17,-0.03 -0.24,0 -0.03,0.01 -0.03,0.01 -0.05,0.01 -0.01,0.01 -0.01,0.01 -0.02,0.02 -0.02,0.01 -0.02,0.01 -0.02,0.02 0,0 0.01,0 0.01,0z"/>
   <path class="fil1" d="M0.58 1.47c0,0.01 0,0 0.01,0.01l0 0c0,0 0,0 0.01,0l0 0c0,0 0,0 0,0l0.03 0.02c0.01,0.01 0.01,0.01 0.02,0.01 0.01,0.01 0.01,0.01 0.02,0.01l0.02 0.01c0.01,0.01 0.03,0.01 0.04,0.01 0.01,0.01 0.05,0 0.06,0 0.01,0 0.03,0 0.04,0 0.01,0.01 0,0.01 0.01,0.01 0.01,0 0.01,0 0.02,0 0.01,-0.01 0.01,-0.01 0.01,-0.01 0.01,0 0.02,0 0.03,-0.01l0.01 0c0,0 0,0 0,0 0.02,-0.01 0.01,0 0.02,-0.01 0.01,0 0.02,0 0.03,-0.01 0.01,-0.01 0.01,-0.01 0.01,-0.01 0.01,-0.01 0.03,-0.01 0.04,-0.02 0,0 0,0 0,0l-0.01 0c-0.11,-0.04 -0.17,-0.13 -0.32,-0.15 -0.03,-0.01 -0.07,0 -0.09,0.01 -0.01,0.01 -0.03,0.03 -0.03,0.05 -0.01,0.03 0,0.07 0.02,0.08z"/>
   <path class="fil3" d="M1.19 2.75c0,0.01 0,0.04 0,0.05l0 0.16c0,0.01 0,0.14 0,0.15 0,0.01 0.01,0.02 0.03,0.02 0.04,0 0.03,-0.03 0.03,-0.07 0,-0.03 0,-0.3 0,-0.31 0.01,0 0.05,0 0.06,0 0.02,0 0.04,0 0.06,0 0.01,0 0.05,0 0.06,0 0.02,-0.02 0.02,-0.05 0,-0.06 -0.01,-0.01 -0.02,0 -0.03,0l-0.36 0c-0.02,0 -0.03,0 -0.04,0.02 -0.01,0.02 0,0.02 0,0.03 0.02,0.01 -0.01,0.01 0.07,0.01 0.02,0 0.04,0 0.06,0 0.01,0 0.05,0 0.06,0z"/>
   <path class="fil3" d="M2.02 2.68c-0.01,0.01 -0.03,0.02 -0.03,0.03l0 0.17c0,0.04 0,0.07 0,0.11 0,0.04 0.01,0.06 0.03,0.09 0.01,0.02 0.03,0.04 0.06,0.05 0.03,0.01 0.08,0 0.11,0 0.07,0 0.15,0 0.22,0 0.01,0 0.01,0 0.02,-0.01 0.01,-0.01 0.01,-0.04 -0.01,-0.05 -0.01,-0.01 -0.2,0 -0.22,0 -0.03,0 -0.09,0 -0.11,-0.01 -0.01,-0.01 -0.03,-0.04 -0.03,-0.05 0,-0.04 0,-0.1 0,-0.14 0,-0.01 0,-0.16 0,-0.17 -0.01,0 -0.02,-0.02 -0.04,-0.02z"/>
   <path class="fil0" d="M1.16 0.14c0.01,-0.02 -0.01,-0.01 0.02,-0.02 0.03,0 0.09,0 0.11,0.01 0,0 0,0 0,0 -0.03,-0.05 -0.09,-0.1 -0.15,-0.11 -0.08,0 -0.15,0.02 -0.19,0.07 -0.01,0.02 -0.04,0.06 -0.03,0.09 0,0.02 0.01,0.03 0.02,0.04 0.02,0.01 0.04,0.01 0.06,0.01 0.04,0 0.07,-0.02 0.09,-0.04 0.01,-0.01 0.02,-0.02 0.03,-0.03 0.01,0 0.03,-0.02 0.04,-0.02z"/>
   <path class="fil1" d="M1.89 1.47c0,0 -0.01,0.01 -0.01,0.01 -0.01,0.01 -0.02,0.01 -0.03,0.02 -0.05,0.03 -0.12,0.07 -0.14,0.13 -0.01,0.01 -0.01,0.02 -0.01,0.03 0,0.01 0.01,0.02 0.02,0.02 0.01,0.02 0.02,0.02 0.05,0.02 0.06,0 0.11,-0.01 0.17,-0.03 0.07,-0.04 0.14,-0.11 0.18,-0.18l0.02 -0.04c0,0 0,0 0,0 0,0.01 0,0.01 -0.01,0.01 0,0.01 0,0.01 0,0.01 0,0.01 0,0 -0.01,0.01 0,0 0,0 0,0l0 0c0,0.01 0,0.01 0,0.02 -0.01,0.01 -0.01,0.02 -0.02,0.02 0,0 0,0.01 0,0.01 -0.01,0 -0.01,0 -0.01,0l-0.02 0.03c0,0 0,0 0,0 0,0 0,0 -0.01,0.01 0,0 -0.01,0.01 -0.02,0.02 0,0 -0.01,0 -0.01,0.01 -0.01,0 -0.01,0.01 -0.01,0.01 -0.01,0.01 0,0 -0.01,0.01 0,0 0,0 0,0 0,0 0,0 -0.01,0.01l-0.02 0.01c0,0 0,0 0,0 0,0 0,0 0,0l-0.01 0.01c0,0 0,0 0,0 -0.01,0 0,0 -0.01,0l-0.01 0.01c0,0 0,0 0,0l-0.02 0.01c0,0 0,0 -0.01,0l-0.02 0.01c0,0 -0.01,0 -0.01,0l0 0c-0.01,0 -0.01,0 -0.01,0 -0.01,0.01 -0.01,0.01 -0.02,0.01 0,0 0,0 0,0 0,0 -0.04,0 -0.04,0 0,0 0,0 -0.01,0 0,0 0,0 0,-0.01 0,0 0,0 0,0l0.02 -0.01c0,-0.01 0,0 0.01,-0.01 0,0 0,0 0,0 0,-0.01 0.01,-0.01 0.01,-0.02 0.01,0 0.01,-0.01 0.01,-0.01 0,-0.01 0.01,-0.01 0.01,-0.01l0 -0.01c0.01,-0.01 0.01,-0.01 0.01,-0.02l0.01 -0.03c0,0 0.01,-0.01 0.01,-0.01 0,-0.01 0,-0.03 0,-0.05 0,-0.01 0,-0.02 0,-0.02 0,0 0,-0.01 0,-0.01 0,0 0,0 -0.01,0z"/>
   <path class="fil1" d="M0.98 1.96l0.01 0c0,0 0,0.01 0,0.01l0.02 0c0,0.01 0.01,0.01 0.02,0.02 0.01,0 0.01,-0.01 0.03,0 0.01,0.01 0.07,0.01 0.08,0l0.03 -0.01c0,0 0,0 0.01,0 0,-0.01 0.01,-0.01 0.01,-0.01 -0.02,-0.01 -0.05,-0.03 -0.06,-0.04 -0.02,-0.01 -0.04,-0.02 -0.06,-0.03 -0.02,-0.01 -0.06,-0.02 -0.08,-0.01 -0.01,0 -0.02,0.01 -0.02,0.02 -0.01,0.02 0,0.03 0.01,0.05z"/>
   <path class="fil1" d="M1.16 0.14c0.02,0.01 0.07,0.04 0.09,0.05 0.05,0.01 0.06,-0.02 0.04,-0.06 0,0 0,0 0,0 -0.02,-0.01 -0.08,-0.01 -0.11,-0.01 -0.03,0.01 -0.01,0 -0.02,0.02z"/>
  </g>
 </g>
</svg>
