<?xml version="1.0" encoding="UTF-8"?>
<!DOCTYPE svg PUBLIC "-//W3C//DTD SVG 1.1//EN" "http://www.w3.org/Graphics/SVG/1.1/DTD/svg11.dtd">
<!-- Creator: CorelDRAW -->
<svg xmlns="http://www.w3.org/2000/svg" xml:space="preserve" width="32px" height="37px" version="1.1" style="shape-rendering:geometricPrecision; text-rendering:geometricPrecision; image-rendering:optimizeQuality; fill-rule:evenodd; clip-rule:evenodd"
viewBox="0 0 2.98 3.41"
 xmlns:xlink="http://www.w3.org/1999/xlink"
 xmlns:xodm="http://www.corel.com/coreldraw/odm/2003">
 <defs>
  <style type="text/css">
   <![CDATA[
    .fil2 {fill:#231F20}
    .fil1 {fill:#54C5D0}
    .fil0 {fill:#F9A61A}
   ]]>
  </style>
 </defs>
 <g id="Layer_x0020_1">
  <metadata id="CorelCorpID_0Corel-Layer"/>
  <g id="_2598054442160">
   <path class="fil0" d="M0.54 1.45c-0.01,0.02 -0.02,0.03 -0.03,0.05 -0.05,0.09 -0.17,0.29 0.01,0.34 0.12,0.04 0.32,-0.03 0.43,-0.06 0.13,-0.04 0.24,-0.1 0.36,-0.16 0.01,-0.01 0.03,-0.01 0.03,-0.02 0.03,-0.01 0.02,0 0.02,-0.03 -0.02,0 -0.04,0.02 -0.06,0.03 -0.16,0.06 -0.31,0.14 -0.51,0.14 -0.29,0 -0.04,-0.33 0.04,-0.43l0.33 -0.32c0.1,-0.1 0.36,-0.28 0.48,-0.36 0.18,-0.12 0.76,-0.47 1.06,-0.43 0.21,0.02 0.05,0.26 -0.01,0.34 -0.04,0.07 -0.11,0.14 -0.17,0.2 -0.03,0.03 -0.06,0.07 -0.09,0.1 -0.04,0.03 -0.19,0.15 -0.2,0.17l0.03 0 0.03 -0.03 0.14 -0.12c0.02,-0.01 0.03,-0.02 0.04,-0.04 0.02,-0.02 0.03,-0.02 0.05,-0.04l0.29 -0.31c0.08,-0.1 0.28,-0.38 0.09,-0.45 -0.07,-0.04 -0.23,-0.01 -0.3,0.01 -0.5,0.14 -1.03,0.49 -1.45,0.81 -0.16,0.13 -0.3,0.26 -0.45,0.42l-0.12 0.14c-0.02,0.02 -0.02,0.03 -0.04,0.05z"/>
   <path class="fil1" d="M2.29 0.98l-0.03 0.03c0.52,0 0.52,0.19 0.14,0.42 -0.23,0.14 -0.54,0.26 -0.8,0.33 -0.07,0.02 -0.14,0.04 -0.22,0.06 -0.21,0.05 -0.5,0.1 -0.73,0.1 -0.11,0 -0.41,0.01 -0.42,-0.14 0,-0.12 0.24,-0.27 0.28,-0.28 0.01,-0.02 0.02,-0.03 0.03,-0.05 -0.05,0.01 -0.19,0.1 -0.23,0.12l-0.11 0.08c-0.02,0.01 -0.04,0.02 -0.05,0.04 -0.05,0.03 -0.1,0.08 -0.13,0.14 -0.09,0.17 0.13,0.22 0.27,0.24 0.22,0.02 0.49,-0.01 0.68,-0.04 0.39,-0.06 0.78,-0.16 1.14,-0.31 0.15,-0.06 0.95,-0.4 0.78,-0.63 -0.07,-0.1 -0.37,-0.12 -0.5,-0.11 -0.03,0 -0.07,0 -0.1,0z"/>
   <path class="fil2" d="M2.28 2.9c0,-0.04 0.02,-0.04 0.04,-0.06 0.02,-0.02 0.03,-0.04 0.05,-0.06 0,0.09 0.03,0.15 -0.09,0.12zm0.14 -0.03l0 -0.13c0.04,0.01 0.16,0.04 0.06,0.11 -0.02,0.01 -0.03,0.02 -0.06,0.02zm-0.05 0.12l0 0.06 -0.13 0.06c-0.03,0.01 -0.05,0.02 -0.07,0.03l-0.34 0.16 0 0.11c0.03,0 0.3,-0.13 0.35,-0.16l0.46 -0.21 0 -0.12c-0.03,0.01 -0.08,0.04 -0.11,0.05 -0.04,0.01 -0.08,0.04 -0.11,0.05l0 -0.06 0.16 -0.08c0.05,-0.02 0.04,-0.02 0.04,-0.1 0,-0.06 -0.12,-0.15 -0.17,-0.18 -0.03,-0.02 -0.05,-0.04 -0.08,-0.05 0,0.19 -0.02,0.08 -0.13,0.27 -0.03,0.03 -0.05,0.1 -0.02,0.15 0.04,0.05 0.1,0.03 0.15,0.02z"/>
   <path class="fil2" d="M0.94 2.58l0 0.53c-0.07,0.03 -0.36,0.17 -0.39,0.17 -0.07,0 -0.08,-0.08 0.01,-0.12l0.27 -0.13 0 -0.11c-0.03,0.01 -0.2,0.09 -0.24,0.11 -0.13,0.07 -0.17,0.07 -0.17,0.21 0,0.08 0.04,0.15 0.12,0.15 0.08,0 0.26,-0.1 0.36,-0.15 0.17,-0.07 0.14,-0.06 0.14,-0.37 0,-0.11 0,-0.22 0,-0.33l-0.1 0.04z"/>
   <path class="fil2" d="M1.15 2.98c0,-0.04 -0.01,-0.08 0.08,-0.08 0.02,0 0.03,0.01 0.04,0.03l-0.12 0.05zm-0.07 -0.02c0,0.08 -0.01,0.12 0.08,0.12 0.07,0 0.16,-0.06 0.2,-0.08l0 0.04 -0.32 0.15 0 0.11 0.34 -0.15c0.11,-0.06 0.06,-0.2 -0.02,-0.28l-0.01 -0.01c-0.11,-0.1 -0.27,-0.08 -0.27,0.1z"/>
   <path class="fil2" d="M1.68 3.21c-0.09,0 0.07,-0.14 0.09,-0.15 0.02,-0.02 0.03,-0.03 0.05,-0.04 0.03,0.01 0.08,0.06 0.08,0.09 -0.02,0 -0.03,0.02 -0.05,0.03 -0.03,0.02 -0.13,0.07 -0.17,0.07zm-0.1 -0.02c0,0.19 0.16,0.09 0.26,0.04 0.14,-0.07 0.15,-0.06 0.15,-0.14 0,-0.07 -0.12,-0.15 -0.17,-0.19 -0.02,-0.01 -0.03,-0.02 -0.04,-0.03 -0.02,-0.01 -0.02,-0.01 -0.04,-0.02 0,0.18 0,0.06 -0.13,0.25 -0.01,0.03 -0.03,0.05 -0.03,0.09z"/>
   <polygon class="fil2" points="2.03,2.58 2.03,3.15 2.14,3.1 2.14,2.53 "/>
   <path class="fil2" d="M1.47 2.58l0 0.56c0.02,0 0.08,-0.03 0.1,-0.04l0 -0.56c-0.04,0.01 -0.07,0.03 -0.1,0.04z"/>
  </g>
 </g>
</svg>
