<?xml version="1.0" encoding="UTF-8" standalone="no"?><!-- Created with Inkscape (http://www.inkscape.org/) -->

<svg version="1.1" id="svg2" width="33.333332" height="37.333332" viewBox="0 0 33.333332 37.333332"
    sodipodi:docname="hamrah_avval.eps" xmlns:inkscape="http://www.inkscape.org/namespaces/inkscape"
    xmlns:sodipodi="http://sodipodi.sourceforge.net/DTD/sodipodi-0.dtd"
    xmlns="http://www.w3.org/2000/svg">
  <defs id="defs6" />
  <sodipodi:namedview id="namedview4" pagecolor="#ffffff" bordercolor="#000000" borderopacity="0.25"
      inkscape:showpageshadow="2" inkscape:pageopacity="0.0" inkscape:pagecheckerboard="0"
      inkscape:deskcolor="#d1d1d1" />
  <g id="g8" inkscape:groupmode="layer" inkscape:label="ink_ext_XXXXXX"
      transform="matrix(1.3333333,0,0,-1.3333333,0,37.333333)">
    <g id="g10" transform="scale(0.1)">
      <path
          d="m 43.5508,163.238 c -0.7813,-1.597 -1.6016,-2.418 -2.3789,-4.019 -4.0625,-7.27 -13.711,-23.36 0.7773,-27.379 9.6914,-3.211 25.7813,2.422 34.6524,4.84 10.4687,3.199 19.3398,8.05 28.9884,12.89 0.82,0.782 2.422,0.782 2.422,1.602 2.418,0.777 1.597,0 1.597,2.418 -1.597,0 -3.199,-1.641 -4.839,-2.418 -12.8911,-4.844 -24.9692,-11.293 -41.0591,-11.293 -23.3593,0 -3.2421,26.601 3.1993,34.652 l 26.6093,25.739 c 8.0395,8.089 28.9805,22.582 38.6285,29.031 14.493,9.648 61.211,37.847 85.391,34.609 16.91,-1.609 4.02,-20.941 -0.82,-27.39 -3.199,-5.622 -8.867,-11.25 -13.668,-16.09 -2.43,-2.418 -4.852,-5.629 -7.27,-8.051 -3.203,-2.418 -15.312,-12.109 -16.09,-13.707 h 2.418 l 2.379,2.418 11.293,9.648 c 1.598,0.821 2.418,1.641 3.239,3.242 1.601,1.61 2.39,1.61 4.031,3.211 l 23.359,25 c 6.399,8.039 22.539,30.579 7.219,36.207 -5.617,3.243 -18.508,0.821 -24.141,-0.777 C 169.219,266.328 126.52,238.121 92.6992,212.379 79.8008,201.91 68.5508,191.449 56.4492,178.551 L 46.8008,167.27 c -1.6016,-1.61 -1.6016,-2.43 -3.25,-4.032 z"
          style="fill:#f9a61a;fill-opacity:1;fill-rule:evenodd;stroke:none" id="path12" />
      <path
          d="m 184.488,201.09 -2.379,-2.418 c 41.871,0 41.871,-15.313 11.25,-33.832 -18.519,-11.25 -43.48,-20.93 -64.41,-26.559 -5.629,-1.601 -11.289,-3.242 -17.738,-4.84 -16.9102,-4.031 -40.2696,-8.05 -58.7891,-8.05 -8.8711,0 -33.0117,-0.821 -33.8321,11.289 0,9.648 19.3399,21.718 22.5821,22.539 0.7773,1.601 1.5976,2.422 2.3789,4.019 -4.0195,-0.816 -15.2695,-8.039 -18.5117,-9.648 l -8.8672,-6.442 c -1.6016,-0.82 -3.2031,-1.636 -4.0235,-3.238 -4.02731,-2.43 -8.04684,-6.449 -10.46871,-11.25 -7.23047,-13.711 10.46871,-17.738 21.76171,-19.34 17.7305,-1.601 39.4492,0.782 54.7578,3.2 31.4098,4.851 62.8208,12.89 91.8008,24.96 12.109,4.848 76.52,32.231 62.809,50.75 -5.618,8.04 -29.758,9.68 -40.231,8.86 -2.418,0 -5.668,0 -8.09,0 z"
          style="fill:#54c5d0;fill-opacity:1;fill-rule:evenodd;stroke:none" id="path14" />
      <path
          d="m 183.711,46.4805 c 0,3.2109 1.598,3.2109 3.199,4.8086 1.641,1.6015 2.43,3.2422 4.031,4.8398 0,-7.2578 2.418,-12.0703 -7.23,-9.6484 z m 11.25,2.3906 v 10.4687 c 3.238,-0.789 12.891,-3.2109 4.84,-8.8281 -1.602,-0.8203 -2.422,-1.6406 -4.84,-1.6406 z m -4.02,-9.6523 V 34.3789 L 180.469,29.5703 C 178.09,28.75 176.449,27.9297 174.84,27.1484 L 147.461,14.2617 V 5.39063 c 2.418,0 24.18,10.46877 28.199,12.89067 l 37.039,16.9179 v 9.6406 c -2.429,-0.7812 -6.449,-3.1992 -8.871,-4.0195 -3.207,-0.7812 -6.449,-3.1992 -8.867,-4.0195 v 4.8398 l 12.891,6.4492 c 4.027,1.6016 3.238,1.6016 3.238,8.0391 0,4.8516 -9.68,12.0703 -13.711,14.4922 -2.418,1.6094 -4.02,3.25 -6.438,4.0273 0,-15.3086 -1.601,-6.4492 -10.472,-21.7578 -2.379,-2.3789 -4.02,-8.0508 -1.598,-12.0703 3.238,-4.0195 8.039,-2.4219 12.07,-1.6015 z"
          style="fill:#231f20;fill-opacity:1;fill-rule:evenodd;stroke:none" id="path16" />
      <path
          d="M 75.7813,72.2305 V 29.5703 C 70.1602,27.1484 46.8008,15.8594 44.3789,15.8594 c -5.6289,0 -6.4492,6.4414 0.8203,9.6523 l 21.711,10.4688 v 8.8593 C 64.4883,44.0586 50.8203,37.6211 47.5781,35.9805 37.1094,30.3516 33.9102,30.3516 33.9102,19.1016 c 0,-6.4414 3.1992,-12.11332 9.6406,-12.11332 6.4492,0 20.9375,8.05082 29.0273,12.11332 13.6719,5.6289 11.25,4.8086 11.25,29.7695 0,8.8594 0,17.7305 0,26.5977 z"
          style="fill:#231f20;fill-opacity:1;fill-rule:evenodd;stroke:none" id="path18" />
      <path
          d="m 92.6992,40.0391 c 0,3.1992 -0.8203,6.4414 6.4414,6.4414 1.5974,0 2.4184,-0.8203 3.1994,-2.4219 z m -5.6289,1.6015 c 0,-6.4414 -0.8203,-9.6914 6.4492,-9.6914 5.6211,0 12.8905,4.8516 16.0895,6.4492 V 35.1992 L 83.8281,23.1211 v -8.8594 l 27.3829,12.0664 c 8.867,4.8438 4.84,16.0938 -1.602,22.543 l -0.82,0.8203 c -8.8281,8.0391 -21.7187,6.4375 -21.7187,-8.0508 z"
          style="fill:#231f20;fill-opacity:1;fill-rule:evenodd;stroke:none" id="path20" />
      <path
          d="m 135.391,21.4805 c -7.27,0 5.629,11.289 7.23,12.1093 1.641,1.6094 2.418,2.3907 4.02,3.211 2.418,-0.8203 6.449,-4.8516 6.449,-7.2305 -1.61,0 -2.391,-1.6406 -4.031,-2.4219 -2.418,-1.6367 -10.469,-5.6679 -13.668,-5.6679 z m -8.051,1.6406 c 0,-15.31251 12.859,-7.2617 20.941,-3.2422 11.25,5.6328 12.071,4.8516 12.071,11.293 0,5.6289 -9.653,12.0664 -13.711,15.3086 -1.602,0.789 -2.379,1.6093 -3.2,2.3906 -1.601,0.8203 -1.601,0.8203 -3.242,1.6406 0,-14.5312 0,-4.8515 -10.469,-20.1601 -0.781,-2.4219 -2.39,-4.0235 -2.39,-7.2305 z"
          style="fill:#231f20;fill-opacity:1;fill-rule:evenodd;stroke:none" id="path22" />
      <path d="M 163.551,72.2305 V 26.3281 l 8.871,4.0235 V 76.25 Z"
          style="fill:#231f20;fill-opacity:1;fill-rule:evenodd;stroke:none" id="path24" />
      <path
          d="M 118.48,72.2305 V 27.1484 c 1.598,0 6.442,2.4219 8.04,3.2032 v 45.1172 c -3.2,-0.8204 -5.622,-2.418 -8.04,-3.2383 z"
          style="fill:#231f20;fill-opacity:1;fill-rule:evenodd;stroke:none" id="path26" />
    </g>
  </g>
</svg>
