<?xml version="1.0" encoding="UTF-8"?>
<!DOCTYPE svg PUBLIC "-//W3C//DTD SVG 1.1//EN" "http://www.w3.org/Graphics/SVG/1.1/DTD/svg11.dtd">
<!-- Creator: CorelDRAW -->
<svg xmlns="http://www.w3.org/2000/svg" xml:space="preserve" width="32px" height="32px" version="1.1" style="shape-rendering:geometricPrecision; text-rendering:geometricPrecision; image-rendering:optimizeQuality; fill-rule:evenodd; clip-rule:evenodd"
viewBox="0 0 2.46 2.46"
 xmlns:xlink="http://www.w3.org/1999/xlink"
 xmlns:xodm="http://www.corel.com/coreldraw/odm/2003">
 <defs>
  <style type="text/css">
   <![CDATA[
    .fil1 {fill:#005C87;fill-rule:nonzero}
    .fil3 {fill:#C21906;fill-rule:nonzero}
    .fil0 {fill:#FFBE00;fill-rule:nonzero}
    .fil2 {fill:white;fill-rule:nonzero}
   ]]>
  </style>
 </defs>
 <g id="Layer_x0020_1">
  <metadata id="CorelCorpID_0Corel-Layer"/>
  <g id="_2597901112384">
   <g>
    <polygon class="fil0" points="0,0 2.46,0 2.46,1.66 0,1.66 "/>
    <path class="fil0" d="M0 0l2.46 0 0 1.66 -2.46 0 0 -1.66zm0 1.73l2.46 0 0 0.73 -2.46 0 0 -0.73z"/>
    <ellipse class="fil1" cx="1.23" cy="0.86" rx="1.19" ry="0.49"/>
    <path class="fil2" d="M2.03 0.6l0 0.38 -0.07 0 -0.01 -0.38 0.08 0zm-0.19 0.47l0 -0.01 0.04 -0.04 0.01 0 0.04 0.04 0 0.01 -0.04 0.05 -0.01 0 -0.04 -0.05zm-0.1 0l0 -0.01 0.04 -0.04 0.01 0 0.05 0.04 0 0.01 -0.05 0.05 -0.01 0 -0.04 -0.05zm0.03 -0.19l0.01 0c0.01,0 0.02,0 0.03,0 0,0 0.01,-0.01 0.01,-0.01 0,0 0.01,0 0.01,0 0,-0.01 0,-0.01 0,-0.01 0,-0.01 0,-0.02 0,-0.04 0,-0.01 -0.01,-0.04 -0.01,-0.07l0.08 -0.01c0,0.01 0,0.02 0,0.03 0,0.01 0,0.02 0.01,0.03 0,0.01 0,0.02 0,0.03 0,0.01 0,0.01 0,0.02 0,0.02 -0.01,0.04 -0.01,0.06 -0.01,0.02 -0.02,0.03 -0.03,0.04 -0.01,0.01 -0.03,0.02 -0.04,0.02 -0.02,0.01 -0.04,0.01 -0.05,0.01l-0.01 0c-0.01,0 -0.02,0 -0.03,0 -0.01,-0.01 -0.02,-0.01 -0.02,-0.02 -0.01,0.05 -0.03,0.09 -0.06,0.12 -0.03,0.02 -0.07,0.04 -0.12,0.04l-0.02 -0.09c0.02,0 0.04,-0.01 0.06,-0.01 0.01,-0.01 0.02,-0.02 0.03,-0.02 0.01,-0.01 0.02,-0.01 0.02,-0.02 0.01,0 0.01,-0.01 0.01,-0.02 0,-0.01 0,-0.02 -0.01,-0.05 0,-0.03 -0.01,-0.07 -0.02,-0.11l0.08 -0.02c0.01,0.02 0.01,0.04 0.02,0.05 0,0.02 0,0.03 0.01,0.03 0,0.01 0.01,0.01 0.02,0.02 0.01,0 0.01,0 0.03,0l0 0zm-0.21 -0.28l0 0.38 -0.07 0 -0.01 -0.38 0.08 0zm-0.13 0.05l0 0.01 -0.05 0.04 0 0 -0.05 -0.04 0 -0.01 0.05 -0.05 0 0 0.05 0.05zm-0.13 0.33c-0.01,0 -0.02,0 -0.03,0 0,0 -0.01,0 -0.02,-0.01 -0.01,0 -0.01,0 -0.02,-0.01 -0.01,0 -0.01,-0.01 -0.02,-0.02 0,0.01 -0.01,0.02 -0.02,0.03 -0.02,0.01 -0.03,0.01 -0.04,0.01 -0.01,0 -0.02,0 -0.02,0 -0.01,0 -0.02,-0.01 -0.02,-0.01 -0.01,0 -0.02,0 -0.02,-0.01 -0.01,0 -0.01,-0.01 -0.02,-0.02 -0.01,0.02 -0.02,0.03 -0.03,0.03 -0.02,0.01 -0.03,0.01 -0.04,0.01 -0.02,0 -0.04,0 -0.05,-0.01 -0.01,-0.01 -0.02,-0.02 -0.03,-0.03 -0.01,0.01 -0.02,0.02 -0.03,0.03 -0.02,0.01 -0.03,0.01 -0.06,0.01l-0.01 0c-0.01,0 -0.02,0 -0.03,0 -0.01,-0.01 -0.01,-0.01 -0.02,-0.02l0 0.02c0,0.02 0,0.04 -0.01,0.06 -0.01,0.02 -0.03,0.04 -0.04,0.05 -0.02,0.01 -0.04,0.02 -0.07,0.03 -0.02,0.01 -0.04,0.01 -0.07,0.01 -0.05,0 -0.09,-0.01 -0.11,-0.04 -0.03,-0.02 -0.04,-0.05 -0.04,-0.1 0,-0.01 0,-0.03 0,-0.05 0.01,-0.03 0.02,-0.06 0.03,-0.1l0.06 0.02c0,0.02 0,0.03 -0.01,0.04 0,0.01 0,0.02 0,0.03 0,0.02 0,0.03 0,0.04 0,0.01 0,0.02 0,0.03 0,0 0.01,0.01 0.01,0.01 0.01,0.01 0.02,0.01 0.03,0.01 0.01,0.01 0.02,0.01 0.04,0.01 0.01,0 0.03,0 0.04,-0.01 0.02,0 0.03,0 0.04,-0.01 0.01,0 0.01,-0.01 0.02,-0.01 0,-0.01 0.01,-0.01 0.01,-0.02l-0.01 -0.38 0.08 0 0 0.22c0,0.01 0,0.02 0,0.03 0.01,0.01 0.01,0.01 0.01,0.02 0.01,0 0.01,0 0.02,0.01 0.01,0 0.01,0 0.02,0l0.01 0c0.02,0 0.03,0 0.03,-0.01 0.01,0 0.02,0 0.02,-0.01 0.01,0 0.01,-0.01 0.01,-0.03 0,-0.01 0,-0.02 0,-0.04l0.07 0 0 0.04c0,0 0,0.01 0,0.01 0,0.01 0,0.02 0,0.02 0.01,0.01 0.01,0.01 0.02,0.02 0.01,0 0.01,0 0.02,0 0.01,0 0.01,0 0.02,-0.01 0,0 0.01,0 0.01,-0.01 0,-0.01 0.01,-0.02 0.01,-0.03 0,-0.01 0,-0.02 0,-0.04l0.07 0 0 0.04c0,0 0,0.01 0,0.02 0,0 0,0.01 0,0.01 0.01,0.01 0.01,0.01 0.02,0.02 0,0 0.01,0 0.02,0 0,0 0.01,0 0.01,0 0.01,-0.01 0.01,-0.01 0.01,-0.02 0,0 0.01,-0.01 0.01,-0.03 0,-0.01 0,-0.03 0,-0.05l0.07 0 0 0.06c0,0.01 0,0.02 0.01,0.03 0.01,0.01 0.02,0.01 0.04,0.01l0.01 0c0.01,0 0.02,0 0.03,0 0,0 0.01,-0.01 0.01,-0.01 0,0 0.01,0 0.01,0 0,-0.01 0,-0.01 0,-0.01 0,-0.01 0,-0.02 0,-0.03 0,-0.02 -0.01,-0.05 -0.01,-0.08l0.08 -0.01c0,0.01 0,0.02 0,0.03 0,0.01 0,0.02 0.01,0.03 0,0.01 0,0.02 0,0.03 0,0.01 0,0.02 0,0.02 0,0.02 0,0.04 -0.01,0.06 -0.01,0.02 -0.02,0.03 -0.03,0.04 -0.01,0.01 -0.03,0.02 -0.04,0.02 -0.02,0.01 -0.04,0.01 -0.05,0.01l-0.01 0 0 0z"/>
    <g>
     <path class="fil1" d="M1.54 1.99l0.03 -0.14 -0.45 0 -0.03 0.14 0.15 0 -0.05 0.24 0.17 0 0.05 -0.24 0.13 0zm-0.46 -0.14l-0.22 0 -0.14 0.28 -0.02 -0.28 -0.23 0 -0.15 0.49 0.16 0 0.1 -0.32 0.02 0.32 0.12 0 0.19 -0.34 -0.09 0.34 0.15 0 0.11 -0.49zm1.09 0l-0.16 0 -0.08 0.3 -0.16 -0.3 -0.15 0 -0.1 0.49 0.16 0 0.05 -0.29 0.15 0.29 0.16 0 0.13 -0.49z"/>
     <polygon class="fil3" points="1.19,2.27 1.17,2.34 1.34,2.34 1.35,2.27 "/>
    </g>
   </g>
  </g>
 </g>
</svg>
