<?xml version="1.0" encoding="UTF-8" standalone="no"?><!-- Created with Inkscape (http://www.inkscape.org/) -->

<svg version="1.1" id="svg2" width="32" height="32" viewBox="0 0 32 32"
    sodipodi:docname="irancell.eps" xmlns:inkscape="http://www.inkscape.org/namespaces/inkscape"
    xmlns:sodipodi="http://sodipodi.sourceforge.net/DTD/sodipodi-0.dtd"
    xmlns="http://www.w3.org/2000/svg">
  <defs id="defs6" />
  <sodipodi:namedview id="namedview4" pagecolor="#ffffff" bordercolor="#000000" borderopacity="0.25"
      inkscape:showpageshadow="2" inkscape:pageopacity="0.0" inkscape:pagecheckerboard="0"
      inkscape:deskcolor="#d1d1d1" />
  <g id="g8" inkscape:groupmode="layer" inkscape:label="ink_ext_XXXXXX"
      transform="matrix(1.3333333,0,0,-1.3333333,0,32)">
    <g id="g10" transform="scale(0.1)">
      <path d="m 0,78.0508 h 240 v 161.949 H 0 Z"
          style="fill:#ffbe00;fill-opacity:1;fill-rule:nonzero;stroke:none" id="path12" />
      <path d="M 0,240 H 240 V 78.0508 H 0 Z M 0,71.2109 H 240 V 0 H 0 Z"
          style="fill:#ffbe00;fill-opacity:1;fill-rule:nonzero;stroke:none" id="path14" />
      <path
          d="m 236.09,156.09 c 0,-26.399 -51.988,-47.809 -116.09,-47.809 -64.1016,0 -116.08984,21.41 -116.08984,47.809 0,26.41 51.98824,47.82 116.08984,47.82 64.102,0 116.09,-21.41 116.09,-47.82 z"
          style="fill:#005c87;fill-opacity:1;fill-rule:nonzero;stroke:none" id="path16" />
      <path
          d="m 198.051,181.449 v -37.07 h -6.84 l -0.981,37.07 z m -18.52,-45.828 v 0.981 l 3.867,3.867 h 0.981 l 3.902,-3.867 v -0.981 l -3.902,-4.883 h -0.981 z m -9.761,0 v 0.981 l 3.902,3.867 h 0.976 l 4.883,-3.867 v -0.981 l -4.883,-4.883 h -0.976 z m 2.929,18.52 h 0.973 c 0.976,0 1.949,0 2.93,0 l 0.976,0.98 h 0.973 c 0,0.969 0,0.969 0,0.969 0,0.98 0,1.961 0,3.91 0,0.98 -0.973,3.91 -0.973,6.84 l 7.774,0.969 c 0,-0.969 0,-1.95 0,-2.93 0,-0.969 0,-1.949 0.976,-2.93 0,-0.969 0,-1.949 0,-2.929 0,-0.969 0,-0.969 0,-1.95 0,-1.949 -0.976,-3.91 -0.976,-5.859 -0.973,-1.949 -1.954,-2.93 -2.93,-3.91 -0.973,-0.973 -2.891,-1.949 -3.871,-1.949 -1.949,-0.973 -3.903,-0.973 -4.879,-0.973 h -0.973 c -0.98,0 -1.961,0 -2.929,0 -0.981,0.973 -1.961,0.973 -1.961,1.949 -0.969,-4.879 -2.93,-8.75 -5.86,-11.68 -2.929,-1.949 -6.828,-3.91 -11.719,-3.91 l -1.949,8.793 c 1.949,0 3.91,0.938 5.86,0.938 0.98,0.98 1.949,1.953 2.929,1.953 0.981,0.976 1.95,0.976 1.95,1.957 0.98,0 0.98,0.973 0.98,1.949 0,0.973 0,1.953 -0.98,4.883 0,2.93 -0.969,6.84 -1.95,10.738 l 7.809,1.961 c 0.98,-1.961 0.98,-3.91 1.961,-4.89 0,-1.95 0,-2.93 0.969,-2.93 0,-0.969 0.98,-0.969 1.961,-1.949 0.968,0 0.968,0 2.929,0 z m -20.508,27.308 v -37.07 h -6.839 l -0.973,37.07 z m -12.66,-4.847 v -0.981 l -4.883,-3.902 -4.878,3.902 v 0.981 l 4.878,4.847 z M 126.84,144.379 c -0.981,0 -1.961,0 -2.93,0 0,0 -0.98,0 -1.961,0.973 -0.969,0 -0.969,0 -1.949,0.976 -0.98,0 -0.98,0.973 -1.949,1.953 0,-0.98 -0.981,-1.953 -1.961,-2.929 -1.949,-0.973 -2.93,-0.973 -3.899,-0.973 -0.98,0 -1.961,0 -1.961,0 -0.968,0 -1.949,0.973 -1.949,0.973 -0.98,0 -1.953,0 -1.953,0.976 -0.976,0 -0.976,0.973 -1.949,1.953 -0.981,-1.953 -1.957,-2.929 -2.93,-2.929 -1.9177,-0.973 -2.8982,-0.973 -3.8709,-0.973 -1.957,0 -3.9062,0 -4.8789,0.973 -0.9804,0.976 -1.9609,1.949 -2.9297,2.929 -0.9804,-0.98 -1.9609,-1.953 -2.9297,-2.929 -1.9609,-0.973 -2.9296,-0.973 -5.8593,-0.973 H 80 c -0.9805,0 -1.9492,0 -2.9297,0 -0.9805,0.973 -0.9805,0.973 -1.9492,1.949 v -1.949 c 0,-1.957 0,-3.91 -0.9805,-5.828 -0.9804,-1.949 -2.9297,-3.903 -3.9101,-4.879 -1.9492,-0.973 -3.9024,-1.953 -6.8321,-2.934 -1.9492,-0.968 -3.8671,-0.968 -6.7968,-0.968 -4.8828,0 -8.793,0.968 -10.7422,3.902 -2.9297,1.949 -3.9102,4.879 -3.9102,9.726 0,0.981 0,2.93 0,4.883 0.9805,2.93 1.961,5.86 2.9297,9.77 l 5.8594,-1.961 c 0,-1.949 0,-2.93 -0.9688,-3.899 0,-0.98 0,-1.961 0,-2.929 0,-1.961 0,-2.934 0,-3.91 0,-0.973 0,-1.954 0,-2.93 l 0.9688,-0.973 c 0.9805,-0.98 1.9609,-0.98 2.9336,-0.98 0.9765,-0.938 1.9492,-0.938 3.9062,-0.938 0.9727,0 2.8907,0 3.8711,0.938 1.9492,0 2.9297,0 3.9024,0.98 0.9765,0 0.9765,0.973 1.9492,0.973 0,0.976 0.9805,0.976 0.9805,1.957 l -0.9805,37.07 h 7.8203 V 160 c 0,-0.98 0,-1.949 0,-2.93 0.9687,-0.98 0.9687,-0.98 0.9687,-1.949 0.9805,0 0.9805,0 1.961,-0.98 0.9687,0 0.9687,0 1.9492,0 h 0.9805 c 1.9492,0 2.9297,0 2.9297,0.98 0.9687,0 1.9492,0 1.9492,0.969 0.9804,0 0.9804,0.98 0.9804,2.93 0,0.98 0,1.96 0,3.91 h 6.8321 v -3.91 -0.969 c 0,-0.981 0,-1.961 0,-1.961 0.9765,-0.969 0.9765,-0.969 1.9492,-1.949 0.9805,0 0.9805,0 1.957,0 0.9727,0 0.9727,0 1.9532,0.98 0,0 0.9377,0 0.9377,0.969 0,0.98 0.98,1.961 0.98,2.93 0,0.98 0,1.96 0,3.91 h 6.832 v -3.91 c 0,0 0,-0.969 0,-1.95 v -0.98 c 0.981,-0.969 0.981,-0.969 1.949,-1.949 0,0 0.981,0 1.961,0 h 0.969 c 0.981,0.98 0.981,0.98 0.981,1.949 0,0 0.98,0.98 0.98,2.93 0,0.98 0,2.929 0,4.89 h 6.828 v -5.859 c 0,-0.981 0,-1.961 0.981,-2.93 0.98,-0.98 1.949,-0.98 3.91,-0.98 h 0.969 c 0.98,0 1.961,0 2.929,0 l 0.981,0.98 h 0.98 c 0,0.969 0,0.969 0,0.969 0,0.98 0,1.961 0,2.93 0,1.96 -0.98,4.89 -0.98,7.82 l 7.812,0.969 c 0,-0.969 0,-1.95 0,-2.93 0,-0.969 0,-1.949 0.938,-2.93 0,-0.969 0,-1.949 0,-2.929 0,-0.969 0,-1.95 0,-1.95 0,-1.949 0,-3.91 -0.938,-5.859 -0.98,-1.949 -1.953,-2.93 -2.929,-3.91 -0.981,-0.973 -2.93,-1.949 -3.903,-1.949 -1.961,-0.973 -3.91,-0.973 -4.89,-0.973 z"
          style="fill:#ffffff;fill-opacity:1;fill-rule:nonzero;stroke:none" id="path18" />
      <path
          d="m 150.23,45.8594 2.93,13.6719 h -43.898 l -2.934,-13.6719 h 14.652 l -4.89,-23.4375 h 16.609 l 4.879,23.4375 z M 105.352,59.5313 H 83.9102 L 70.2305,32.1914 68.2813,59.5313 H 45.8594 L 31.2109,11.7188 h 15.6289 l 9.7618,31.2109 1.9492,-31.2109 H 70.2305 L 88.7891,44.8789 80,11.7188 h 14.6484 z m 106.367,0 H 196.09 l -7.809,-29.3008 -15.582,29.3008 h -14.648 l -9.77,-47.8125 H 163.91 L 168.789,40 183.398,11.7188 h 15.622 z"
          style="fill:#005c87;fill-opacity:1;fill-rule:nonzero;stroke:none" id="path20" />
      <path d="m 116.09,18.5508 -1.949,-6.832 h 16.597 l 0.981,6.832 z"
          style="fill:#c21906;fill-opacity:1;fill-rule:nonzero;stroke:none" id="path22" />
    </g>
  </g>
</svg>
