<?xml version="1.0" encoding="UTF-8"?>
<!DOCTYPE svg PUBLIC "-//W3C//DTD SVG 1.1//EN" "http://www.w3.org/Graphics/SVG/1.1/DTD/svg11.dtd">
<!-- Creator: CorelDRAW -->
<svg xmlns="http://www.w3.org/2000/svg" xml:space="preserve" width="32px" height="24px" version="1.1" style="shape-rendering:geometricPrecision; text-rendering:geometricPrecision; image-rendering:optimizeQuality; fill-rule:evenodd; clip-rule:evenodd"
viewBox="0 0 32 23.9"
 xmlns:xlink="http://www.w3.org/1999/xlink"
 xmlns:xodm="http://www.corel.com/coreldraw/odm/2003">
 <defs>
  <style type="text/css">
   <![CDATA[
    .fil7 {fill:none}
    .fil1 {fill:#372A2B}
    .fil2 {fill:#382C2D}
    .fil13 {fill:#3D2F2F}
    .fil14 {fill:#7C7255}
    .fil8 {fill:#D09326}
    .fil11 {fill:#D59727}
    .fil10 {fill:#DD9D29}
    .fil9 {fill:#E19F29}
    .fil12 {fill:#ECA82B}
    .fil0 {fill:#F9B12E}
    .fil6 {fill:#FAC02D}
    .fil5 {fill:#FBE5AB}
    .fil3 {fill:#FDC12E}
    .fil4 {fill:#FED36A}
    .fil15 {fill:#FEFEFE;fill-rule:nonzero}
    .fil16 {fill:#FBB22F;fill-rule:nonzero}
   ]]>
  </style>
 </defs>
 <g id="Layer_x0020_1">
  <metadata id="CorelCorpID_0Corel-Layer"/>
  <g id="_2597484415696">
   <path class="fil0" d="M5.75 22.99l0.75 -0.52c1.96,-1.32 0.53,1.07 3.54,-0.92 1.09,-0.72 0.71,-2.19 0.71,-4.59 -1.64,-0.06 -1.78,0.65 -1.74,2.14 0.02,1 0.3,3.16 -1,2.59 0.01,-0.19 0,0.01 0.14,-0.24 0.53,-0.94 0.28,-5.63 0.26,-6.7 -2.23,0.03 -1.77,1.44 -1.73,5.26 0.02,1.76 0.1,1.56 -1.08,2.35 -0.66,0.44 -1.41,0.99 -2.48,0.92 -1.92,-0.13 -3.35,-2.61 -1.98,-4.03 1.08,-1.13 5.26,0.26 4.44,-2.31 -1.61,-0.03 -2.98,-0.21 -4.19,0.61 -1.97,1.32 -1.96,5.05 0.77,6.1 1.81,0.68 2.42,-0.21 3.59,-0.66z"/>
   <path class="fil1" d="M6.5 22.47l-0.75 0.52c1.57,0.38 1.88,2.14 5.85,-0.64 1.14,-0.79 0.65,0.15 1.8,-0.01 0.53,-0.07 0.57,-0.31 0.91,-0.28 0.94,0.09 0.43,0.9 2.73,-0.56 1.25,-0.79 0.99,-1.86 0.9,-4.55 -1.65,-0.07 -1.79,0.81 -1.74,2.3 0.03,1.02 0.1,3.11 -1.28,2.41l0.32 -0.32c0.66,-0.67 0.46,-2.47 0.39,-3.68 -3.36,-0.48 -0.32,4.45 -2.72,4.09 0.04,-0.34 0.01,-0.08 0.15,-0.34 0.09,-0.16 0.15,-0.19 0.22,-0.39 0.17,-0.51 0.09,-2.86 0.05,-3.42 -3.19,0.05 -0.66,3.31 -2.24,4.4 -1.08,0.74 -2.18,1.52 -3.52,1.19 -1.03,-0.25 -1,-0.59 -1.07,-0.72z"/>
   <path class="fil1" d="M26.2 20.5c-0.25,-0.91 -0.24,-1.18 0.46,-1.68 0.33,-0.25 1.06,-0.83 1.55,-0.53 1.24,0.77 -1.53,2.13 -2.01,2.21zm-2.52 1.9c1.98,1.21 2.54,0.04 3.31,-0.1 1.57,-0.3 0.49,0.77 3.18,-0.87 1.87,-1.13 1.84,-0.94 1.83,-2.47 -0.01,-1.38 -0.01,-2.77 -0.01,-4.15 -1.97,-0.33 -1.72,1.37 -1.72,2.95 0,2.36 0.29,2.75 -0.79,3.43 -0.5,0.31 -0.99,0.75 -1.6,0.49 0.67,-0.5 1.8,-0.78 1.93,-1.68 0.26,-1.85 -1.38,-3.38 -3.68,-1.57 -0.9,0.72 -0.72,1.5 -0.41,2.48 -0.62,0.6 -1.61,0.88 -2.04,1.49z"/>
   <path class="fil0" d="M11.77 10.35c0.03,0.03 0.08,0.03 0.09,0.09 0.25,0.98 3.54,0.68 4.14,0.68 0.83,0 1.72,0.03 2.55,0 1.28,-0.04 1.07,-0.32 1.72,-0.85l-0.02 -0.76c-0.09,-0.39 -1.7,-1.24 -1.7,-1.24 -0.28,-0.02 -1.78,1.26 -3.51,1.55 -0.95,-2.37 -0.67,-2.08 -1.19,-3.54l-2.11 -0.51 0.03 4.58z"/>
   <path class="fil1" d="M19.2 20.42c-0.47,-1.7 1.39,-2.37 2.21,-2.07 0.34,0.96 -0.04,0.98 -0.72,1.4 -0.52,0.32 -0.85,0.76 -1.49,0.67zm-2.49 2.05c2.21,1.17 2.57,-0.16 3.48,-0.2 0.43,-0.02 0.59,0.15 1.16,0.08 0.74,-0.09 3.07,-1.67 3.69,-2.14l0.01 -3.27c-2.16,-0.01 -1.68,1.08 -1.74,2.93 -0.04,1.43 -1.85,1.95 -2.42,1.85 2.97,-1.29 2.06,-3.3 1.03,-3.89 -0.98,-0.56 -1.97,0.06 -2.62,0.52 -0.92,0.65 -0.91,1.3 -0.56,2.56 -0.37,0.32 -0.65,0.48 -1.09,0.75 -0.38,0.23 -0.76,0.46 -0.94,0.81z"/>
   <path class="fil2" d="M11.77 10.35c-0.19,4.31 0.33,3.63 4.38,3.63 4.34,0 3.95,0.48 4.12,-3.71 -0.65,0.53 -0.44,0.81 -1.72,0.85 -0.83,0.03 -1.72,0 -2.55,0 -0.6,0 -3.89,0.3 -4.14,-0.68 -0.01,-0.06 -0.06,-0.06 -0.09,-0.09z"/>
   <path class="fil3" d="M14.37 6.36c0.09,0.92 0.51,2.21 0.94,2.93 1.04,-0.12 2.05,-0.87 2.78,-1.29 -0.23,-0.5 -0.34,-0.43 -0.72,-0.92 -0.28,-0.36 -0.36,-0.62 -0.62,-1.03l-2.38 0.31z"/>
   <path class="fil3" d="M13.87 5.76c0.01,-1.18 0.28,-1.51 0.36,-2.4 -1.13,-0.39 -1.23,-0.87 -2.04,-1.27 -0.44,1.09 -0.6,0.74 -0.43,3.06 0.51,0.4 1.33,0.65 2.11,0.61z"/>
   <path class="fil1" d="M22.34 14.79c-1.48,0.21 -0.34,2.71 1.01,1.11 1.13,1.08 1.89,0.34 1.56,-0.91 -0.82,-0.33 -0.96,-0.2 -1.56,0.29 -0.47,-0.4 -0.5,-0.56 -1.01,-0.49z"/>
   <path class="fil4" d="M12.68 1.7c0.27,0.52 1.09,1.09 1.84,1.33 0.34,-0.58 0.71,-0.89 1,-1.33 -0.34,-0.4 -0.66,-0.83 -0.98,-1.32 -0.75,0.19 -1.63,0.85 -1.86,1.32z"/>
   <path class="fil4" d="M14.36 5.87c0.91,0.06 1.38,-0.03 2.19,-0.32l-0.11 -1.73 -1.77 -0.16c-0.25,0.81 -0.48,1.23 -0.31,2.21z"/>
   <path class="fil0" d="M10.8 15.43c-0.04,-0.03 -0.07,-0.08 -0.09,-0.1 -0.37,-0.4 -0.48,-0.61 -0.98,-0.55 -0.95,0.13 -0.95,1.64 0.12,1.62 0.4,-0.01 0.38,-0.05 0.76,-0.46l0.17 -0.18c0.3,0.77 0.59,0.7 1.37,0.54 0.68,-1.47 -0.95,-2.16 -1.35,-0.87z"/>
   <path class="fil4" d="M17.23 5.76c0.07,0.67 0.77,1.59 1.32,1.78 0.42,-0.31 1.13,-1.05 1.21,-1.78 -0.32,-0.28 -0.46,-0.33 -0.69,-0.53 -0.23,-0.19 -0.25,-0.3 -0.5,-0.49 -0.34,0.17 -0.93,0.67 -1.34,1.02z"/>
   <path class="fil5" d="M19 3.57l-0.18 0.91c0.58,0.3 0.44,0.47 1.08,0.77 0.32,-0.4 0.28,-0.88 0.27,-1.47l-0.8 -0.44c-0.29,0.15 -0.14,-0.06 -0.37,0.23z"/>
   <path class="fil3" d="M18.91 7.88c0.31,0.35 0.75,0.7 1.31,0.85l-0.02 -2.49 -1.29 1.64z"/>
   <path class="fil5" d="M16.93 5.17c0.63,-0.02 0.96,-0.5 1.27,-0.79 -0.02,-0.15 -0.07,-0.45 -0.11,-0.56l-0.29 -0.52 -0.94 0.51 0.07 1.36z"/>
   <path class="fil5" d="M17.01 2.39l-1.01 -0.36c-0.47,0.25 -0.76,0.57 -1,1.2l1.5 0.11 0.51 -0.95z"/>
   <path class="fil5" d="M15.03 0.15c0.22,0.7 0.49,0.85 0.81,1.26l1.15 -0.28 -0.45 -1.01 -1.51 0.03z"/>
   <path class="fil6" d="M11.96 0.49l0.23 0.79c0.5,-0.23 0.45,-0.3 0.84,-0.59 0.11,-0.08 0.28,-0.19 0.45,-0.3 0.03,-0.02 0.06,-0.04 0.09,-0.06l0.37 -0.31c-0.99,-0.06 -1.46,0.02 -1.98,0.47z"/>
   <path class="fil7" d="M14.65 12.94c0.27,-0.49 -0.04,-0.37 0.3,-0.89 0.5,0.53 0.01,1.15 0.98,0.83 0.2,-0.47 0.15,-0.44 0.14,-1.04 -0.54,0.64 0.04,0.6 -0.58,0.94l-0.04 -0.9 -1.18 -0.03"/>
   <path class="fil8" d="M19.03 2.29c0.14,0.58 0.29,0.73 0.86,0.87 -0.05,-0.49 -0.39,-0.76 -0.86,-0.87z"/>
   <path class="fil9" d="M16.62 1.7l0.18 0.14c0.93,0.3 1,-0.16 1.02,-0.18 -0.47,-0.13 -0.7,-0.22 -1.2,0.04z"/>
   <path class="fil10" d="M18.07 1.22c-0.22,-0.5 -0.42,-0.65 -0.91,-0.9 0.19,0.64 0.28,0.78 0.91,0.9z"/>
   <path class="fil11" d="M18.55 2.51c-0.28,0.35 -0.34,0.69 0,1.13 0.2,-0.42 0.25,-0.73 0,-1.13z"/>
   <path class="fil12" d="M17.16 3.11c0.58,-0.26 0.6,-0.26 0.85,-0.84 -0.56,0.2 -0.63,0.29 -0.85,0.84z"/>
   <path class="fil13" d="M13.75 12.78c0.26,-0.43 0.25,-0.31 0,-0.7 -0.15,0.08 -0.22,-0.12 -0.27,0.3 -0.06,0.53 0.23,0.38 0.27,0.4z"/>
   <path class="fil14" d="M19 3.57c0.23,-0.29 0.08,-0.08 0.37,-0.23 -0.27,-0.21 0.43,-0.25 -0.27,-0.15l-0.1 0.38z"/>
   <path class="fil15" d="M12.63 13.01l0 -1.08 0.19 0 0 0.9 0.47 0 0 0.18 -0.66 0zm0.75 -0.54c0,-0.11 0.02,-0.2 0.05,-0.28 0.02,-0.05 0.05,-0.1 0.08,-0.15 0.04,-0.04 0.08,-0.07 0.12,-0.1 0.06,-0.02 0.13,-0.04 0.21,-0.04 0.13,0 0.24,0.05 0.33,0.15 0.08,0.1 0.12,0.24 0.12,0.42 0,0.18 -0.04,0.31 -0.12,0.41 -0.08,0.1 -0.19,0.15 -0.33,0.15 -0.14,0 -0.25,-0.05 -0.33,-0.15 -0.08,-0.1 -0.13,-0.23 -0.13,-0.41zm0.2 0c0,0.12 0.02,0.21 0.07,0.28 0.05,0.06 0.11,0.09 0.19,0.09 0.07,0 0.14,-0.03 0.18,-0.09 0.05,-0.06 0.08,-0.16 0.08,-0.29 0,-0.12 -0.03,-0.22 -0.07,-0.28 -0.05,-0.06 -0.11,-0.09 -0.19,-0.09 -0.08,0 -0.14,0.03 -0.19,0.09 -0.05,0.07 -0.07,0.16 -0.07,0.29zm1.07 0.54l0 -0.9 -0.28 0 0 -0.19 0.74 0 0 0.19 -0.27 0 0 0.9 -0.19 0zm0.58 -1.09l0.19 0 0 0.59c0,0.1 0.01,0.16 0.01,0.19 0.01,0.04 0.03,0.08 0.06,0.1 0.03,0.03 0.07,0.04 0.12,0.04 0.05,0 0.09,-0.01 0.12,-0.03 0.03,-0.03 0.04,-0.06 0.05,-0.1 0,-0.04 0.01,-0.1 0.01,-0.18l0 -0.61 0.19 0 0 0.58c0,0.13 -0.01,0.22 -0.02,0.27 -0.01,0.06 -0.03,0.1 -0.05,0.14 -0.03,0.04 -0.07,0.07 -0.11,0.09 -0.05,0.02 -0.11,0.03 -0.18,0.03 -0.09,0 -0.16,-0.01 -0.21,-0.03 -0.04,-0.03 -0.08,-0.06 -0.1,-0.1 -0.03,-0.04 -0.05,-0.08 -0.06,-0.12 -0.01,-0.06 -0.02,-0.15 -0.02,-0.28l0 -0.58zm0.9 0.74l0.18 -0.02c0.01,0.07 0.03,0.12 0.07,0.16 0.03,0.03 0.08,0.05 0.13,0.05 0.06,0 0.11,-0.02 0.14,-0.05 0.03,-0.03 0.05,-0.06 0.05,-0.1 0,-0.03 -0.01,-0.05 -0.02,-0.07 -0.02,-0.02 -0.04,-0.03 -0.07,-0.05 -0.02,-0.01 -0.07,-0.02 -0.15,-0.04 -0.1,-0.03 -0.17,-0.07 -0.21,-0.11 -0.06,-0.06 -0.09,-0.14 -0.09,-0.22 0,-0.06 0.02,-0.11 0.04,-0.16 0.03,-0.05 0.07,-0.09 0.12,-0.11 0.05,-0.03 0.11,-0.04 0.18,-0.04 0.12,0 0.21,0.03 0.27,0.09 0.05,0.06 0.09,0.14 0.09,0.25l-0.19 0c-0.01,-0.05 -0.03,-0.09 -0.05,-0.12 -0.03,-0.02 -0.07,-0.04 -0.12,-0.04 -0.06,0 -0.1,0.02 -0.13,0.04 -0.02,0.02 -0.03,0.04 -0.03,0.07 0,0.03 0.01,0.05 0.03,0.07 0.02,0.02 0.08,0.05 0.17,0.07 0.09,0.03 0.16,0.05 0.21,0.08 0.04,0.03 0.07,0.06 0.1,0.11 0.02,0.05 0.04,0.11 0.04,0.18 0,0.06 -0.02,0.12 -0.05,0.17 -0.03,0.06 -0.07,0.1 -0.12,0.12 -0.06,0.03 -0.13,0.04 -0.21,0.04 -0.12,0 -0.21,-0.03 -0.27,-0.09 -0.06,-0.07 -0.1,-0.16 -0.11,-0.28z"/>
   <path class="fil16" d="M17.26 13.01l0 -0.9 -0.28 0 0 -0.19 0.74 0 0 0.19 -0.27 0 0 0.9 -0.19 0zm0.58 0l0 -1.09 0.69 0 0 0.19 -0.5 0 0 0.24 0.47 0 0 0.18 -0.47 0 0 0.3 0.52 0 0 0.18 -0.71 0zm0.88 0l0 -1.08 0.19 0 0 0.9 0.46 0 0 0.18 -0.65 0z"/>
  </g>
 </g>
</svg>
