<?xml version="1.0" encoding="UTF-8" standalone="no"?><!-- Created with Inkscape (http://www.inkscape.org/) -->

<svg version="1.1" id="svg2" width="32" height="24" viewBox="0 0 32 24"
    sodipodi:docname="lotustel.eps" xmlns:inkscape="http://www.inkscape.org/namespaces/inkscape"
    xmlns:sodipodi="http://sodipodi.sourceforge.net/DTD/sodipodi-0.dtd"
    xmlns="http://www.w3.org/2000/svg">
  <defs id="defs6" />
  <sodipodi:namedview id="namedview4" pagecolor="#ffffff" bordercolor="#000000" borderopacity="0.25"
      inkscape:showpageshadow="2" inkscape:pageopacity="0.0" inkscape:pagecheckerboard="0"
      inkscape:deskcolor="#d1d1d1" />
  <g id="g8" inkscape:groupmode="layer" inkscape:label="ink_ext_XXXXXX"
      transform="matrix(1.3333333,0,0,-1.3333333,0,24)">
    <g id="g10" transform="scale(0.1)">
      <path
          d="M 43.1211,7.57813 48.75,11.4805 c 14.6914,9.9297 3.9805,-8.00003 26.5586,6.9179 8.1719,5.3907 5.3125,16.4024 5.3125,34.4102 -12.3008,0.4727 -13.3516,-4.8789 -13.043,-16.0469 0.1524,-7.5 2.2227,-23.6719 -7.5,-19.4219 0.0821,1.4102 0,-0.0703 1.0508,1.8008 3.9922,7.0703 2.1094,42.2305 1.9609,50.2383 C 46.3711,69.1797 49.8008,58.5898 50.1211,29.9609 50.2305,16.7617 50.8594,18.2383 41.9883,12.3008 37.0313,9.01953 31.4102,4.87891 23.3984,5.42969 8.98047,6.41016 -1.71875,25 8.55078,35.6211 16.6406,44.1016 48.0117,33.7109 41.8398,52.9688 29.7695,53.1992 19.4883,54.5313 10.4297,48.3984 -4.33984,38.4805 -4.26172,10.5117 16.2109,2.66016 29.7695,-2.46094 34.3398,4.21875 43.1211,7.57813 Z"
          style="fill:#f9b12e;fill-opacity:1;fill-rule:evenodd;stroke:none" id="path12" />
      <path
          d="M 48.75,11.4805 43.1211,7.57813 c 11.7578,-2.84766 14.1094,-16.01954 43.8672,4.80077 8.5625,5.9414 4.8906,-1.1289 13.5237,0.082 3.976,0.5508 4.258,2.3399 6.789,2.1094 7.078,-0.6601 3.25,-6.76171 20.508,4.1797 9.382,5.9414 7.421,13.9805 6.722,34.1406 -12.34,0.5508 -13.402,-6.0508 -13.051,-17.2695 0.239,-7.6094 0.79,-23.3203 -9.57,-18.043 l 2.391,2.3828 c 4.961,5.0391 3.429,18.5196 2.929,27.6172 -25.1987,3.5938 -2.429,-33.3984 -20.3902,-30.6992 0.2696,2.5703 0.0704,0.6211 1.0899,2.5703 0.6992,1.1719 1.1289,1.4102 1.6797,2.9297 1.2496,3.832 0.6606,21.4492 0.3515,25.6328 C 76.0508,47.6602 95.0391,23.1992 83.1602,15 75.0781,9.44922 66.8398,3.62891 56.7617,6.08984 49.0586,7.96875 49.2617,10.5117 48.75,11.4805 Z"
          style="fill:#372a2b;fill-opacity:1;fill-rule:evenodd;stroke:none" id="path14" />
      <path
          d="m 196.48,26.25 c -1.871,6.8398 -1.789,8.8711 3.481,12.6211 2.461,1.8672 7.93,6.207 11.598,3.9805 9.3,-5.7813 -11.438,-15.9727 -15.079,-16.6016 z M 177.621,12.0313 c 14.84,-9.10161 19.02,-0.3125 24.801,0.7382 11.758,2.2305 3.668,-5.78122 23.867,6.5313 14.02,8.4687 13.789,7.0273 13.711,18.5078 -0.078,10.3516 -0.078,20.7812 -0.078,31.1406 -14.762,2.461 -12.891,-10.2773 -12.891,-22.1094 0,-17.7382 2.149,-20.6289 -5.941,-25.75 -3.75,-2.3398 -7.418,-5.621 -11.988,-3.6679 5.039,3.75 13.519,5.8594 14.449,12.5781 1.961,13.9102 -10.313,25.3516 -27.571,11.8008 -6.761,-5.3906 -5.39,-11.25 -3.089,-18.6016 -4.653,-4.4883 -12.071,-6.5976 -15.27,-11.1679 z"
          style="fill:#372a2b;fill-opacity:1;fill-rule:evenodd;stroke:none" id="path16" />
      <path
          d="m 88.2813,102.379 c 0.2382,-0.188 0.5898,-0.188 0.6679,-0.66 1.8711,-7.3401 26.5628,-5.1174 31.0508,-5.1174 6.211,0 12.891,-0.1914 19.141,0 9.57,0.3086 8.007,2.4179 12.89,6.4104 l -0.152,5.699 c -0.668,2.891 -12.738,9.301 -12.738,9.301 -2.11,0.109 -13.36,-9.461 -26.332,-11.641 -7.149,17.77 -5.039,15.578 -8.938,26.559 l -15.8202,3.832 z"
          style="fill:#f9b12e;fill-opacity:1;fill-rule:evenodd;stroke:none" id="path18" />
      <path
          d="m 143.98,26.8789 c -3.511,12.7305 10.43,17.7695 16.61,15.5 2.531,-7.1797 -0.32,-7.3398 -5.43,-10.5 -3.871,-2.3906 -6.371,-5.668 -11.18,-5 z M 125.309,11.4805 c 16.601,-8.75003 19.3,1.2187 26.101,1.5312 3.238,0.1094 4.449,-1.1328 8.711,-0.6328 5.539,0.7109 23.039,12.543 27.688,16.0625 l 0.082,24.5274 c -16.211,0.082 -12.621,-8.0899 -13.09,-21.9883 -0.27,-10.711 -13.86,-14.6094 -18.121,-13.8711 22.269,9.6914 15.429,24.7695 7.73,29.1797 -7.379,4.2226 -14.801,-0.4297 -19.64,-3.9102 -6.918,-4.8789 -6.84,-9.7187 -4.219,-19.1797 -2.781,-2.4179 -4.891,-3.5898 -8.172,-5.6211 -2.848,-1.7187 -5.699,-3.4765 -7.07,-6.0976 z"
          style="fill:#372a2b;fill-opacity:1;fill-rule:evenodd;stroke:none" id="path20" />
      <path
          d="m 88.2813,102.379 c -1.4415,-32.3009 2.457,-27.2188 32.8477,-27.2188 32.543,0 29.609,-3.6016 30.902,27.8518 -4.883,-3.9925 -3.32,-6.1018 -12.89,-6.4104 -6.25,-0.1914 -12.93,0 -19.141,0 -4.488,0 -29.1797,-2.2227 -31.0508,5.1174 -0.0781,0.472 -0.4297,0.472 -0.6679,0.66 z"
          style="fill:#382c2d;fill-opacity:1;fill-rule:evenodd;stroke:none" id="path22" />
      <path
          d="m 107.77,132.301 c 0.671,-6.871 3.832,-16.563 7.031,-21.949 7.82,0.898 15.398,6.527 20.859,9.648 -1.711,3.75 -2.539,3.238 -5.39,6.91 -2.11,2.699 -2.692,4.649 -4.649,7.738 z"
          style="fill:#fdc12e;fill-opacity:1;fill-rule:evenodd;stroke:none" id="path24" />
      <path
          d="m 104.02,136.84 c 0.082,8.82 2.109,11.281 2.699,17.961 -8.4807,2.929 -9.219,6.527 -15.3088,9.539 -3.2891,-8.168 -4.5,-5.551 -3.211,-22.93 3.8321,-3.012 9.961,-4.89 15.8208,-4.57 z"
          style="fill:#fdc12e;fill-opacity:1;fill-rule:evenodd;stroke:none" id="path26" />
      <path
          d="M 167.539,69.1016 C 156.449,67.5 165,48.75 175.121,60.7813 c 8.469,-8.1211 14.18,-2.5821 11.719,6.7968 -6.18,2.5 -7.231,1.5235 -11.719,-2.1484 -3.519,3.0117 -3.75,4.1797 -7.582,3.6719 z"
          style="fill:#372a2b;fill-opacity:1;fill-rule:evenodd;stroke:none" id="path28" />
      <path
          d="m 95.1211,167.27 c 1.9883,-3.911 8.1599,-8.168 13.7889,-9.969 2.539,4.34 5.309,6.679 7.5,9.969 -2.539,3 -4.961,6.21 -7.351,9.921 -5.618,-1.453 -12.2192,-6.41 -13.9379,-9.921 z"
          style="fill:#fed36a;fill-opacity:1;fill-rule:evenodd;stroke:none" id="path30" />
      <path
          d="m 107.699,135.98 c 6.832,-0.429 10.352,0.231 16.442,2.418 l -0.86,12.973 -13.242,1.207 c -1.879,-6.098 -3.629,-9.219 -2.34,-16.598 z"
          style="fill:#fed36a;fill-opacity:1;fill-rule:evenodd;stroke:none" id="path32" />
      <path
          d="m 81.0195,64.3008 c -0.3203,0.2305 -0.5507,0.5781 -0.7109,0.7383 -2.7695,3.0117 -3.5898,4.5703 -7.3398,4.1406 -7.1094,-0.9805 -7.1094,-12.3008 0.9023,-12.1484 3.0078,0.0781 2.8477,0.3476 5.6992,3.4375 l 1.2891,1.371 c 2.2304,-5.789 4.4101,-5.2812 10.2695,-4.0703 5.082,11.0196 -7.1484,16.211 -10.1094,6.5313 z"
          style="fill:#f9b12e;fill-opacity:1;fill-rule:evenodd;stroke:none" id="path34" />
      <path
          d="m 129.219,136.84 c 0.551,-5.039 5.781,-11.961 9.922,-13.36 3.129,2.301 8.48,7.848 9.058,13.36 -2.418,2.07 -3.429,2.461 -5.187,3.941 -1.723,1.449 -1.883,2.27 -3.75,3.668 -2.543,-1.25 -6.961,-5 -10.043,-7.609 z"
          style="fill:#fed36a;fill-opacity:1;fill-rule:evenodd;stroke:none" id="path36" />
      <path
          d="m 142.5,153.238 -1.371,-6.828 c 4.383,-2.23 3.32,-3.519 8.133,-5.789 2.379,3.008 2.109,6.609 2.027,11.059 l -6.019,3.281 c -2.18,-1.133 -1.051,0.469 -2.77,-1.723 z"
          style="fill:#fbe5ab;fill-opacity:1;fill-rule:evenodd;stroke:none" id="path38" />
      <path d="m 141.84,120.941 c 2.301,-2.66 5.621,-5.281 9.801,-6.41 l -0.161,18.668 z"
          style="fill:#fdc12e;fill-opacity:1;fill-rule:evenodd;stroke:none" id="path40" />
      <path
          d="m 126.988,141.25 c 4.692,0.16 7.192,3.75 9.492,5.941 -0.109,1.09 -0.5,3.36 -0.82,4.18 l -2.14,3.899 -7.071,-3.821 z"
          style="fill:#fbe5ab;fill-opacity:1;fill-rule:evenodd;stroke:none" id="path42" />
      <path
          d="M 127.578,162.109 120,164.801 c -3.52,-1.871 -5.699,-4.289 -7.5,-9.02 l 11.25,-0.82 z"
          style="fill:#fbe5ab;fill-opacity:1;fill-rule:evenodd;stroke:none" id="path44" />
      <path d="m 112.73,178.91 c 1.649,-5.281 3.68,-6.41 6.059,-9.461 l 8.633,2.11 -3.363,7.543 z"
          style="fill:#fbe5ab;fill-opacity:1;fill-rule:evenodd;stroke:none" id="path46" />
      <path
          d="m 89.6914,176.328 1.7188,-5.898 c 3.75,1.718 3.3906,2.23 6.3203,4.41 0.8203,0.59 2.0703,1.41 3.3595,2.269 0.238,0.121 0.469,0.27 0.672,0.43 l 2.769,2.34 c -7.4216,0.43 -10.9412,-0.149 -14.8396,-3.551 z"
          style="fill:#fac02d;fill-opacity:1;fill-rule:evenodd;stroke:none" id="path48" />
      <path
          d="m 142.73,162.852 c 1.059,-4.372 2.149,-5.473 6.45,-6.524 -0.391,3.672 -2.93,5.703 -6.45,6.524 z"
          style="fill:#d09326;fill-opacity:1;fill-rule:evenodd;stroke:none" id="path50" />
      <path
          d="m 124.648,167.27 1.372,-1.059 c 6.949,-2.231 7.5,1.211 7.609,1.367 -3.508,0.973 -5.231,1.641 -8.981,-0.308 z"
          style="fill:#e19f29;fill-opacity:1;fill-rule:evenodd;stroke:none" id="path52" />
      <path
          d="m 135.512,170.859 c -1.641,3.75 -3.133,4.879 -6.801,6.762 1.41,-4.812 2.07,-5.859 6.801,-6.762 z"
          style="fill:#dd9d29;fill-opacity:1;fill-rule:evenodd;stroke:none" id="path54" />
      <path
          d="m 139.141,161.211 c -2.11,-2.66 -2.582,-5.191 0,-8.481 1.48,3.129 1.879,5.469 0,8.481 z"
          style="fill:#d59727;fill-opacity:1;fill-rule:evenodd;stroke:none" id="path56" />
      <path
          d="m 128.711,156.68 c 4.34,1.949 4.488,1.949 6.367,6.332 -4.219,-1.532 -4.726,-2.192 -6.367,-6.332 z"
          style="fill:#eca82b;fill-opacity:1;fill-rule:evenodd;stroke:none" id="path58" />
      <path
          d="m 103.121,84.1797 c 1.957,3.1992 1.879,2.3008 0,5.2305 -1.133,-0.5821 -1.641,0.8984 -2.031,-2.2188 -0.43,-3.9922 1.719,-2.8516 2.031,-3.0117 z"
          style="fill:#3d2f2f;fill-opacity:1;fill-rule:evenodd;stroke:none" id="path60" />
      <path
          d="m 142.5,153.238 c 1.719,2.192 0.59,0.59 2.77,1.723 -2.032,1.598 3.25,1.879 -2.032,1.129 z"
          style="fill:#7c7255;fill-opacity:1;fill-rule:evenodd;stroke:none" id="path62" />
      <path
          d="m 94.7305,82.4609 v 8.0899 h 1.3984 v -6.7617 h 3.5625 v -1.3282 z m 5.6215,4.0196 c 0,0.8203 0.16,1.5312 0.386,2.1093 0.121,0.3907 0.352,0.75 0.59,1.1407 0.313,0.2695 0.582,0.5 0.902,0.7383 0.43,0.1523 0.969,0.3125 1.559,0.3125 0.981,0 1.801,-0.3907 2.5,-1.1329 0.59,-0.7382 0.902,-1.7968 0.902,-3.1679 0,-1.3203 -0.312,-2.3008 -0.902,-3.0391 -0.629,-0.7812 -1.449,-1.1406 -2.5,-1.1406 -1.059,0 -1.879,0.3594 -2.461,1.1406 -0.59,0.7383 -0.976,1.7188 -0.976,3.0391 z m 1.488,0 c 0,-0.8907 0.148,-1.5586 0.539,-2.1016 0.351,-0.4297 0.82,-0.668 1.41,-0.668 0.551,0 1.051,0.2383 1.371,0.668 0.352,0.4609 0.578,1.2109 0.578,2.1797 0,0.9023 -0.226,1.6406 -0.508,2.1133 -0.39,0.4297 -0.82,0.6679 -1.441,0.6679 -0.59,0 -1.059,-0.2382 -1.41,-0.6679 -0.391,-0.5508 -0.539,-1.211 -0.539,-2.1914 z m 8.039,-4.0196 v 6.7188 h -2.109 v 1.4414 h 5.55 v -1.4414 h -2.031 v -6.7188 z m 4.34,8.1602 h 1.441 v -4.4102 c 0,-0.7812 0.078,-1.2109 0.078,-1.4414 0.043,-0.3203 0.203,-0.5898 0.434,-0.75 0.238,-0.2304 0.508,-0.3086 0.898,-0.3086 0.391,0 0.66,0.0782 0.899,0.2383 0.23,0.2305 0.312,0.4297 0.39,0.7422 0,0.3086 0.082,0.7383 0.082,1.3594 v 4.5703 h 1.399 V 86.25 c 0,-0.9414 -0.07,-1.6406 -0.149,-1.9883 -0.082,-0.4726 -0.203,-0.7812 -0.351,-1.0625 -0.238,-0.3086 -0.551,-0.539 -0.82,-0.6992 -0.399,-0.1211 -0.86,-0.1992 -1.372,-0.1992 -0.668,0 -1.207,0.0781 -1.558,0.1992 -0.32,0.2305 -0.629,0.4688 -0.789,0.7813 -0.192,0.2695 -0.352,0.5898 -0.422,0.8984 -0.078,0.4297 -0.16,1.1289 -0.16,2.0703 z m 6.761,-5.543 1.321,0.1524 c 0.078,-0.5391 0.238,-0.8907 0.551,-1.211 0.238,-0.2304 0.589,-0.3906 0.976,-0.3906 0.434,0 0.82,0.1602 1.051,0.3906 0.242,0.2422 0.351,0.4297 0.351,0.75 0,0.2305 -0.07,0.3907 -0.109,0.5391 -0.16,0.1211 -0.32,0.2031 -0.551,0.3516 -0.16,0.0781 -0.511,0.1601 -1.129,0.3203 -0.742,0.2304 -1.25,0.5 -1.562,0.8203 -0.469,0.4297 -0.668,1.0508 -0.668,1.6406 0,0.4688 0.16,0.8203 0.269,1.207 0.239,0.3516 0.551,0.6602 0.899,0.8204 0.391,0.2304 0.859,0.3125 1.371,0.3125 0.898,0 1.559,-0.2305 2.031,-0.7032 0.348,-0.4297 0.668,-1.0195 0.668,-1.8789 h -1.41 c -0.078,0.3906 -0.238,0.711 -0.391,0.9024 -0.238,0.1601 -0.507,0.3086 -0.898,0.3086 -0.469,0 -0.738,-0.1485 -0.98,-0.3086 -0.149,-0.1211 -0.231,-0.2735 -0.231,-0.5118 0,-0.2304 0.082,-0.3906 0.231,-0.5 0.16,-0.1601 0.589,-0.3906 1.289,-0.5507 0.671,-0.2383 1.171,-0.3477 1.562,-0.5899 0.32,-0.2304 0.508,-0.4687 0.75,-0.8203 0.149,-0.3906 0.309,-0.8203 0.309,-1.3594 0,-0.4297 -0.16,-0.8984 -0.391,-1.289 -0.238,-0.4297 -0.508,-0.75 -0.898,-0.9024 -0.43,-0.1992 -0.981,-0.2773 -1.563,-0.2773 -0.898,0 -1.558,0.1992 -2.027,0.668 -0.43,0.5117 -0.75,1.2109 -0.821,2.1093 z"
          style="fill:#fefefe;fill-opacity:1;fill-rule:nonzero;stroke:none" id="path64" />
      <path
          d="m 129.449,82.4609 v 6.7188 h -2.109 v 1.4414 h 5.551 v -1.4414 h -2.032 v -6.7188 z m 4.34,0 v 8.1602 h 5.191 v -1.4414 h -3.75 v -1.8008 h 3.52 v -1.3281 h -3.52 v -2.2617 h 3.911 v -1.3282 z m 6.602,0 v 8.0899 h 1.449 v -6.7617 h 3.43 v -1.3282 z"
          style="fill:#fbb22f;fill-opacity:1;fill-rule:nonzero;stroke:none" id="path66" />
    </g>
  </g>
</svg>
