<?xml version="1.0" encoding="UTF-8"?>
<!DOCTYPE svg PUBLIC "-//W3C//DTD SVG 1.1//EN" "http://www.w3.org/Graphics/SVG/1.1/DTD/svg11.dtd">
<!-- Creator: CorelDRAW -->
<svg xmlns="http://www.w3.org/2000/svg" xml:space="preserve" width="32px" height="17px" version="1.1" style="shape-rendering:geometricPrecision; text-rendering:geometricPrecision; image-rendering:optimizeQuality; fill-rule:evenodd; clip-rule:evenodd"
viewBox="0 0 2.44 1.27"
 xmlns:xlink="http://www.w3.org/1999/xlink"
 xmlns:xodm="http://www.corel.com/coreldraw/odm/2003">
 <defs>
  <style type="text/css">
   <![CDATA[
    .fil0 {fill:#58595B}
    .fil1 {fill:#9B2776}
    .fil2 {fill:url(#id0)}
   ]]>
  </style>
  <linearGradient id="id0" gradientUnits="userSpaceOnUse" x1="1.25" y1="0.63" x2="2.17" y2="0.63">
   <stop offset="0" style="stop-opacity:1; stop-color:#9E2373"/>
   <stop offset="1" style="stop-opacity:1; stop-color:#E8CAE1"/>
  </linearGradient>
 </defs>
 <g id="Layer_x0020_1">
  <metadata id="CorelCorpID_0Corel-Layer"/>
  <g id="_2598351644560">
   <path class="fil0" d="M0 0.51c0.01,-0.03 0.02,-0.03 0.06,-0.03l0 0.01c0,0.03 0,0.07 0,0.1 0,0.03 0.02,0.05 0.05,0.05 0.02,0 0.04,0 0.05,0 0.04,0 0.06,-0.02 0.06,-0.05 0,-0.09 0,-0.19 0,-0.28 0,-0.04 0.02,-0.05 0.05,-0.05l0 0.02c0,0.07 0,0.13 0,0.2 0,0.04 0.03,0.06 0.06,0.06 0.02,-0.01 0.04,-0.01 0.07,-0.01 0.02,0 0.04,-0.01 0.04,-0.04 0,-0.02 0,-0.03 0,-0.04 0,-0.03 0.02,-0.04 0.05,-0.04 0,0 0.01,0 0.01,0l0 0.04c0,0.01 0,0.02 0,0.04 0,0.03 0.02,0.05 0.05,0.05 0.04,0 0.06,-0.02 0.06,-0.05 0,-0.01 0,-0.03 0,-0.04 0,-0.03 0.01,-0.04 0.04,-0.04 0,0 0.01,0 0.01,0 0,0 0,0 0,0.01 0,0.02 0,0.05 0,0.08 0,0.05 -0.04,0.09 -0.09,0.09 -0.04,0 -0.07,0 -0.1,-0.03 -0.02,0.03 -0.05,0.03 -0.08,0.03 -0.02,0 -0.04,0 -0.05,0 -0.02,0 -0.04,0 -0.07,0 0,0 0,0 0,0.01 0,0.06 -0.03,0.1 -0.09,0.1 -0.03,0 -0.06,0 -0.09,0 -0.05,-0.01 -0.08,-0.04 -0.09,-0.09 0,0 0,0 0,0l0 -0.1zm0.04 0.32l0 0.06c0.02,0 0.04,0.01 0.05,-0.01 0.01,-0.01 0.01,-0.02 0,-0.03 -0.01,-0.02 -0.03,-0.02 -0.05,-0.02l0 0zm-0.04 -0.01c0.01,-0.02 0.02,-0.02 0.03,-0.02 0.02,0 0.04,0 0.06,0 0.02,0 0.04,0.01 0.04,0.04 0.01,0.02 0.01,0.04 -0.01,0.06 -0.01,0 -0.02,0.01 -0.02,0.01 0.02,0.01 0.03,0.03 0.03,0.05 0.01,0.02 0.02,0.04 0.03,0.06 -0.02,0 -0.03,0 -0.05,0 0,0 0,0 0,-0.01 -0.01,-0.01 -0.01,-0.03 -0.02,-0.04 0,-0.01 0,-0.02 -0.01,-0.03 -0.01,-0.01 -0.02,-0.02 -0.04,-0.01l0 0.09 -0.04 0 0 -0.2zm0.34 0.12c0,-0.01 0,-0.02 0,-0.03 -0.01,-0.01 -0.01,-0.02 -0.02,-0.02 -0.02,0 -0.02,0.01 -0.02,0.02 -0.01,0.02 -0.01,0.04 0,0.06 0,0.01 0.01,0.02 0.02,0.02 0.01,0 0.02,-0.01 0.02,-0.02 0,-0.01 0,-0.02 0,-0.03l0 0zm-0.08 0.1c0.02,0 0.03,0.01 0.04,0.01 0.03,0.01 0.04,0 0.04,-0.03 0,0 0,-0.01 0,-0.01 -0.01,0 -0.01,0.01 -0.02,0.01 -0.03,0.01 -0.05,0 -0.06,-0.03 -0.01,-0.03 -0.01,-0.06 0,-0.1 0.01,-0.03 0.05,-0.04 0.08,-0.01 0.01,-0.02 0.02,-0.02 0.04,-0.02 0,0 0,0 0,0 0,0.06 0,0.12 0,0.17 0,0.05 -0.04,0.06 -0.07,0.06 -0.02,0 -0.04,-0.01 -0.06,-0.02l0.01 -0.03 0 0zm0.51 -0.78l0 0.33 -0.06 0 0 -0.01c0,-0.09 0,-0.18 0,-0.27 0,-0.03 0.02,-0.05 0.06,-0.05l0 0zm0.11 0.15c0,0 0,0.01 0,0.01 0,0.06 0,0.11 0,0.17 0,0.05 -0.04,0.1 -0.09,0.11 0,0 0,0 -0.01,0 0,-0.02 0,-0.04 0,-0.06 0,0 0,0 0.01,0 0.03,-0.02 0.03,-0.05 0.03,-0.08 0,-0.03 0,-0.07 0,-0.1 0,-0.05 0.02,-0.05 0.06,-0.05l0 0zm-0.42 0.38l0 0.09c0,-0.01 0,-0.01 0.01,-0.01 0.01,-0.01 0.02,-0.01 0.04,-0.01 0.02,0 0.03,0.01 0.03,0.03 0,0.05 0,0.09 0,0.13l-0.04 0 0 -0.01c0,-0.03 0,-0.06 0,-0.09 0,-0.01 0,-0.02 -0.01,-0.03 -0.01,0 -0.02,0.01 -0.03,0.02 0,0 0,0.01 0,0.02 0,0.03 0,0.05 0,0.08 0,0 0,0.01 0,0.01l-0.04 0c0,0 0,-0.01 0,-0.01 0,-0.06 0,-0.13 0,-0.19 0,-0.03 0.01,-0.04 0.04,-0.03l0 0zm0.26 0.13l0.05 0c0,-0.02 -0.01,-0.03 -0.02,-0.03 -0.02,0 -0.02,0.01 -0.03,0.03zm0 0.03c0.01,0.04 0.02,0.05 0.05,0.04 0.01,-0.01 0.02,-0.01 0.02,-0.01l0.02 0.03c-0.03,0.01 -0.05,0.02 -0.08,0.01 -0.02,0 -0.03,-0.02 -0.04,-0.04 -0.01,-0.02 -0.01,-0.05 0,-0.08 0.01,-0.03 0.03,-0.04 0.06,-0.04 0.03,0 0.05,0.02 0.05,0.04 0.01,0.01 0.01,0.03 0.01,0.04 0,0.01 0,0.01 -0.02,0.01 -0.02,0 -0.04,0 -0.06,0l-0.01 0zm-0.08 0.07l-0.04 0 0 -0.18 -0.06 0 0 -0.04 0.02 0c0.03,0 0.07,0 0.1,0 0.03,0 0.03,0.01 0.03,0.03l-0.05 0 0 0.19zm0.24 -0.23l0 0.23 -0.04 0 0 -0.2c0,-0.03 0.01,-0.03 0.04,-0.03l0 0zm-0.66 0.07l0 0.16 -0.04 0c0,-0.01 0,-0.02 0,-0.03 0,-0.03 0,-0.07 0,-0.1 0,-0.02 0.01,-0.03 0.04,-0.03l0 0zm0.28 -0.56l0 0.06 -0.05 0c-0.01,-0.04 0.01,-0.07 0.05,-0.06l0 0zm0.07 0.34c0.01,0.04 -0.01,0.06 -0.06,0.06l0 -0.06 0.06 0zm-0.2 -0.28c-0.01,-0.05 0.02,-0.07 0.06,-0.06l0 0.06 -0.06 0zm0.22 0.34l0 -0.06 0.05 0c0.01,0.04 -0.01,0.06 -0.05,0.06l0 0zm-0.37 0.1l0 0.04 -0.04 0c0,-0.03 0.01,-0.04 0.04,-0.04l0 0z"/>
   <path class="fil1" d="M1.71 0.16c-0.27,0 -0.48,0.23 -0.47,0.5 0.01,0.25 0.23,0.45 0.49,0.44 0.26,0 0.47,-0.23 0.45,-0.49 -0.01,-0.24 -0.21,-0.45 -0.47,-0.45l0 0zm0.73 0.52c0,0.02 0,0.04 -0.01,0.06 -0.04,0.25 -0.24,0.46 -0.48,0.51 -0.22,0.05 -0.41,-0.01 -0.57,-0.15 -0.11,-0.1 -0.18,-0.23 -0.2,-0.38 -0.04,-0.26 0.1,-0.52 0.33,-0.65 0.24,-0.13 0.55,-0.08 0.74,0.11 0.11,0.1 0.17,0.23 0.19,0.37 0,0.01 0,0.02 0,0.03l0 0.1z"/>
   <path class="fil2" d="M1.78 0.98c0.18,0 0.34,-0.15 0.34,-0.35 0,-0.2 -0.16,-0.34 -0.34,-0.34 -0.19,-0.01 -0.35,0.15 -0.35,0.34 0,0.2 0.16,0.35 0.35,0.35m-0.07 -0.81c0.26,0 0.46,0.21 0.46,0.47 0,0.25 -0.21,0.45 -0.46,0.45 -0.25,0 -0.46,-0.21 -0.46,-0.46 0.01,-0.26 0.21,-0.46 0.46,-0.46m0 0l0 0 0 0z"/>
  </g>
 </g>
</svg>
