<?xml version="1.0" encoding="UTF-8" standalone="no"?><!-- Created with Inkscape (http://www.inkscape.org/) -->

<svg version="1.1" id="svg2" width="32" height="17.333332" viewBox="0 0 32 17.333332"
    sodipodi:docname="rightel.eps" xmlns:inkscape="http://www.inkscape.org/namespaces/inkscape"
    xmlns:sodipodi="http://sodipodi.sourceforge.net/DTD/sodipodi-0.dtd"
    xmlns="http://www.w3.org/2000/svg">
  <defs id="defs6">
    <clipPath clipPathUnits="userSpaceOnUse" id="clipPath22">
      <path
          d="m 175.078,33.3594 c 17.692,0 33.442,14.7617 33.442,34.4492 0,19.6523 -15.75,33.4414 -33.442,33.4414 -18.668,0.98 -34.418,-14.7695 -34.418,-33.4414 0,-19.6875 15.75,-34.4492 34.418,-34.4492 m -6.879,79.6916 c 25.59,0 45.242,-20.6721 45.242,-46.2502 0,-24.5703 -20.671,-44.2617 -45.242,-44.2617 -24.609,0 -45.23,20.6601 -45.23,45.2695 0.98,25.5508 20.621,45.2424 45.23,45.2424 z"
          clip-rule="evenodd" id="path20" />
    </clipPath>
    <linearGradient x1="1.25" y1="0.63" x2="2.1700001" y2="0.63" gradientUnits="userSpaceOnUse"
        gradientTransform="matrix(98.3607,0,0,-98.3607,0,129.762)" spreadMethod="pad"
        id="linearGradient28">
      <stop style="stop-opacity:1;stop-color:#9e2373" offset="0" id="stop24" />
      <stop style="stop-opacity:1;stop-color:#e8cae1" offset="1" id="stop26" />
    </linearGradient>
  </defs>
  <sodipodi:namedview id="namedview4" pagecolor="#ffffff" bordercolor="#000000" borderopacity="0.25"
      inkscape:showpageshadow="2" inkscape:pageopacity="0.0" inkscape:pagecheckerboard="0"
      inkscape:deskcolor="#d1d1d1" />
  <g id="g8" inkscape:groupmode="layer" inkscape:label="ink_ext_XXXXXX"
      transform="matrix(1.3333333,0,0,-1.3333333,0,17.333333)">
    <g id="g10" transform="scale(0.1)">
      <path
          d="m 0,79.6094 c 0.980469,2.9297 1.94922,2.9297 5.89844,2.9297 v -0.9805 c 0,-2.9297 0,-6.8672 0,-9.8398 0,-2.9297 1.95312,-4.918 4.92186,-4.918 1.9492,0 3.9492,0 4.918,0 3.9531,0 5.9023,1.9883 5.9023,4.918 0,8.871 0,18.7109 0,27.5429 0,3.9373 1.9492,4.9183 4.918,4.9183 v -1.95 c 0,-6.8784 0,-12.7808 0,-19.6909 0,-3.9102 2.9297,-5.8985 5.9023,-5.8985 1.9493,0.9805 3.9493,0.9805 6.8789,0.9805 1.9883,0 3.9415,1.0078 3.9415,3.9375 0,1.9609 0,2.9727 0,3.9531 0,2.9297 1.9492,3.9375 4.9179,3.9375 h 0.9805 v -3.9375 c 0,-0.9804 0,-1.9922 0,-3.9531 0,-2.9297 1.9492,-4.918 4.9219,-4.918 3.9492,0 5.8984,1.9883 5.8984,4.918 0,0.9805 0,2.9727 0,3.9531 0,2.9297 0.9805,3.9375 3.9492,3.9375 h 0.9727 c 0,0 0,0 0,-1.0078 0,-1.9609 0,-4.9219 0,-7.8516 0,-4.9296 -3.9414,-8.871 -8.8711,-8.871 -3.9024,0 -6.8711,0 -9.8399,2.9726 -1.9492,-2.9726 -4.8828,-2.9726 -7.8515,-2.9726 -1.9492,0 -3.9492,0 -4.918,0 -1.9609,0 -3.9531,0 -6.8828,0 0,0 0,0 0,-0.9805 0,-5.8985 -2.9688,-9.8399 -8.8594,-9.8399 -2.9297,0 -5.8984,0 -8.82811,0 C 3.94922,61.8789 0.980469,64.8398 0,69.7695 Z M 3.94922,48.1211 v -5.8906 c 1.94922,0 3.90234,-0.9805 4.92187,0.9687 0.96875,0.9805 0.96875,1.961 0,2.9727 -1.01953,1.9492 -2.97265,1.9492 -4.92187,1.9492 z M 0,49.1016 c 0.980469,1.9492 1.94922,1.9492 2.96875,1.9492 1.95313,0 3.91016,0 5.90234,0 1.94921,0 3.89841,-0.9727 3.89841,-3.9024 1.0196,-1.9882 1.0196,-3.9492 -0.9687,-5.8984 -0.9805,0 -1.96096,-1.0195 -1.96096,-1.0195 1.96096,-0.9688 2.92966,-2.9297 2.92966,-4.8789 1.0196,-1.9922 2,-3.9414 2.9688,-5.9024 -1.9492,0 -2.9688,0 -4.918,0 0,0 0,0 0,0.9805 -0.98046,0.9805 -0.98046,2.9297 -1.94921,3.9101 0,1.0118 0,1.9883 -1.01953,2.961 -0.97265,0.9805 -1.95312,1.9609 -3.90234,0.9805 V 29.4492 H 0 Z M 33.4414,37.3008 c 0,0.9805 0,1.9609 0,2.9297 -0.9805,1.0195 -0.9805,2 -1.9609,2 -1.9922,0 -1.9922,-0.9805 -1.9922,-2 -0.9688,-1.9492 -0.9688,-3.9024 0,-5.8907 0,-0.9804 1.0234,-1.9609 1.9922,-1.9609 0.9804,0 1.9609,0.9805 1.9609,1.9609 0,1.0118 0,1.9883 0,2.961 z m -7.8516,-9.8399 c 1.9493,0 2.9297,-0.9804 3.8985,-0.9804 2.9726,-0.9688 3.9531,0 3.9531,2.9687 v 0.9805 c -0.9805,0 -0.9805,-0.9805 -1.9609,-0.9805 -2.961,-1.0078 -4.9219,0 -5.8907,2.9297 -0.9804,2.9727 -0.9804,5.9024 0,9.8516 0.9688,2.9297 4.9219,3.9414 7.8516,0.9687 0.9688,1.961 1.9492,1.961 3.9375,1.961 0,-5.8985 0,-11.8008 0,-16.7188 0,-4.9219 -3.9375,-5.9023 -6.8672,-5.9023 -1.9922,0 -3.9531,0.9804 -5.9023,1.9922 z M 75.7383,104.18 V 71.7188 h -5.8985 v 0.9804 c 0,8.8594 0,17.7305 0,26.5625 0,2.9683 1.961,4.9183 5.8985,4.9183 z M 86.5586,89.4492 v -1.0078 c 0,-5.9023 0,-10.8203 0,-16.7226 0,-4.918 -3.9375,-9.8399 -8.8594,-10.8204 0,0 0,0 -0.9804,0 0,1.9922 0,3.9414 0,5.9024 0,0 0,0 0.9804,0 2.961,1.9883 2.961,4.918 2.961,7.8906 0,2.9297 0,6.8672 0,9.8399 0,4.9179 1.9609,4.9179 5.8984,4.9179 z M 45.2305,52.0703 v -8.8711 c 0,0.9805 0,0.9805 0.9804,0.9805 1.0196,0.9805 1.9883,0.9805 3.9493,0.9805 1.9882,0 2.9609,-0.9805 2.9609,-2.9297 0,-4.9297 0,-8.8711 0,-12.7813 h -3.9414 v 0.9805 c 0,2.9297 0,5.8984 0,8.832 0,0.9688 0,1.9883 -0.9805,2.9688 -0.9687,0 -1.9883,-0.9805 -2.9687,-2 0,0 0,-0.9688 0,-1.9492 0,-2.9297 0,-4.9219 0,-7.8516 v -0.9805 h -3.9024 v 0.9805 c 0,5.8984 0,12.7695 0,18.6719 0,2.9687 0.9727,3.9492 3.9024,2.9687 z M 70.8203,39.2617 h 4.918 c 0,1.9883 -0.9688,2.9688 -1.9492,2.9688 -1.9883,0 -1.9883,-0.9805 -2.9688,-2.9688 z m 0,-2.9336 c 0.9805,-3.9492 1.9492,-4.9179 4.918,-3.9492 0.9805,0.9805 1.9609,0.9805 1.9609,0.9805 l 1.9922,-2.9297 c -2.9726,-0.9805 -4.9219,-1.9883 -7.8906,-0.9805 -1.961,0 -2.9297,1.961 -3.9492,3.9102 -0.9727,1.9922 -0.9727,4.9219 0,7.8906 1.0195,2.9297 2.9687,3.9102 5.9375,3.9102 2.9297,0 4.8828,-1.961 4.8828,-3.9102 1.0195,-1.0195 1.0195,-2.9687 1.0195,-3.9492 0,-0.9727 0,-0.9727 -1.9922,-0.9727 -1.9609,0 -3.9101,0 -5.8984,0 z m -7.8515,-6.8789 h -3.9493 v 17.6992 h -5.8984 v 3.9024 h 1.957 c 2.9727,0 6.8711,0 9.8438,0 2.9297,0 2.9297,-0.9727 2.9297,-2.9297 H 62.9688 Z M 86.5586,52.0703 V 29.4492 h -3.9375 v 19.6524 c 0,2.9687 0.9687,2.9687 3.9375,2.9687 z m -64.918,-6.9101 v -15.711 h -3.9414 c 0,0.9805 0,1.961 0,2.9297 0,2.9727 0,6.8828 0,9.8516 0,1.9492 0.9727,2.9297 3.9414,2.9297 z M 49.1797,100.23 v -5.8902 h -4.918 c -0.9804,3.9415 0.9688,6.9102 4.918,5.8902 z m 6.8711,-33.4292 c 0.9805,-3.9102 -0.9727,-5.9024 -5.8906,-5.9024 v 5.9024 z m -19.6406,27.539 c -1.0196,4.9219 1.9492,6.9102 5.8906,5.8902 V 94.3398 Z M 58.0508,60.8984 v 5.9024 h 4.918 c 0.9804,-3.9102 -1.0196,-5.9024 -4.918,-5.9024 z M 21.6406,51.0508 v -3.9024 h -3.9414 c 0,2.9297 0.9727,3.9024 3.9414,3.9024 z"
          style="fill:#58595b;fill-opacity:1;fill-rule:evenodd;stroke:none" id="path12" />
      <path
          d="m 168.199,114.02 c -26.558,0 -47.219,-22.6098 -46.25,-49.1802 1.02,-24.6093 22.66,-44.25 48.211,-43.2812 25.578,0 46.25,22.6211 44.25,48.2109 -0.969,23.5899 -20.621,44.2505 -46.211,44.2505 z M 240,62.8906 c 0,-1.9922 0,-3.9414 -0.98,-5.9023 C 235.078,32.3789 215.391,11.7188 191.801,6.80078 170.16,1.87891 151.48,7.80859 135.738,21.5586 c -10.816,9.8516 -17.687,22.6211 -19.687,37.3906 -3.903,25.5821 9.847,51.1288 32.469,63.9418 23.628,12.769 54.101,7.847 72.808,-10.821 10.82,-9.84 16.723,-22.6208 18.672,-36.4098 0,-0.9688 0,-1.9493 0,-2.961 z"
          style="fill:#9b2776;fill-opacity:1;fill-rule:evenodd;stroke:none" id="path14" />
      <g id="g16">
        <g id="g18" clip-path="url(#clipPath22)">
          <path
              d="m 175.078,33.3594 c 17.692,0 33.442,14.7617 33.442,34.4492 0,19.6523 -15.75,33.4414 -33.442,33.4414 -18.668,0.98 -34.418,-14.7695 -34.418,-33.4414 0,-19.6875 15.75,-34.4492 34.418,-34.4492 m -6.879,79.6916 c 25.59,0 45.242,-20.6721 45.242,-46.2502 0,-24.5703 -20.671,-44.2617 -45.242,-44.2617 -24.609,0 -45.23,20.6601 -45.23,45.2695 0.98,25.5508 20.621,45.2424 45.23,45.2424 z"
              style="fill:url(#linearGradient28);fill-opacity:1;fill-rule:nonzero;stroke:none"
              id="path30" />
        </g>
      </g>
    </g>
  </g>
</svg>
