<?xml version="1.0" encoding="UTF-8" standalone="no"?><!-- Created with Inkscape (http://www.inkscape.org/) -->

<svg version="1.1" id="svg2" width="33.333332" height="13.333333" viewBox="0 0 33.333332 13.333333"
    sodipodi:docname="samantel.eps" xmlns:inkscape="http://www.inkscape.org/namespaces/inkscape"
    xmlns:sodipodi="http://sodipodi.sourceforge.net/DTD/sodipodi-0.dtd"
    xmlns="http://www.w3.org/2000/svg">
  <defs id="defs6" />
  <sodipodi:namedview id="namedview4" pagecolor="#ffffff" bordercolor="#000000" borderopacity="0.25"
      inkscape:showpageshadow="2" inkscape:pageopacity="0.0" inkscape:pagecheckerboard="0"
      inkscape:deskcolor="#d1d1d1" />
  <g id="g8" inkscape:groupmode="layer" inkscape:label="ink_ext_XXXXXX"
      transform="matrix(1.3333333,0,0,-1.3333333,0,13.333333)">
    <g id="g10" transform="scale(0.1)">
      <path
          d="m 97.4219,34.5313 c -13.2422,0.7773 -23.3633,-2.3008 -24.1406,6.25 -1.5625,8.5585 0.7773,21.7968 -0.7813,29.6093 l -7.8086,-3.9101 c -0.7812,-6.9922 0,-15.5821 0,-22.5703 0,-20.2813 3.8984,-31.961 -14.8125,-31.961 -10.1094,0 -7.7695,7 -8.5508,14.0313 -2.3476,0 -5.4687,-2.3516 -7.8086,-3.9102 -1.5703,-16.37108 6.25,-20.23046 21.8321,-18.71092 5.4687,0.78125 10.1172,3.12109 13.2382,7.03122 4.6915,4.6875 3.9102,10.1211 4.6915,16.3711 l 18.6679,-0.7812 z"
          style="fill:#898989;fill-opacity:1;fill-rule:evenodd;stroke:none" id="path12" />
      <path
          d="m 14.8398,41.5586 c 0.7813,-0.7773 2.3086,-3.1172 3.0899,-3.8984 1.5586,-1.5704 1.5586,-3.9102 0.7812,-6.211 L 12.5,36.0898 Z m -1.5585,17.1523 c 1.5585,2.3399 5.4296,5.4297 7.7695,6.211 v -5.4336 l -5.4297,-7.0274 z m 16.3671,16.3672 c 0.7813,3.0821 2.3008,6.211 4.6524,8.5508 l 7.0273,-0.7773 c -0.7773,-0.7813 -4.6875,-5.4297 -5.4687,-6.211 z m 27.2618,13.2422 c 1.5703,-0.7812 3.9101,-3.1211 4.6914,-5.4687 h -4.6914 l -5.461,3.1289 z m -42.0704,-4.6914 0.7813,-0.7773 c 4.6484,0.7773 9.3398,1.5586 14.0273,0.7773 0,0 -6.25,-11.6797 -7.0273,-12.457 C 21.8398,70.3906 18.7109,68.0508 17.1484,67.2695 15.6211,65.6992 14.8398,64.1406 12.5,62.5781 l -1.5586,15.5821 h -0.7812 c -0.78129,-6.211 0,-11.6797 0,-17.8907 0,-3.1211 -5.46879,-8.5898 -7.03911,-12.5 h 0.78907 c 1.55859,3.1289 3.89843,6.25 6.25004,7.8203 0.7812,-0.789 2.3398,-7.039 2.3398,-8.5585 0.7813,-2.3399 -0.7812,-6.25 -1.5586,-9.3711 -1.56249,0 -5.47265,3.8984 -7.03124,5.4609 C 7.80859,36.0898 11.7188,40 10.1602,29.1016 h 0.7812 l 0.7774,4.6484 5.4296,-3.8711 c 3.9024,-3.1172 1.5625,-1.5586 3.9024,-5.4687 v 3.1289 l 6.25,-1.5586 c 1.5703,-1.5703 2.3476,-2.3516 4.6484,-2.3516 -3.0781,2.3516 -3.0781,5.4727 -3.0781,9.3399 -1.5703,-2.3086 -1.5703,-3.0899 -1.5703,-5.4297 -2.3399,0 -3.9024,1.5625 -6.25,3.1211 l 0.789,3.8711 7.0313,-1.5625 c -2.3516,2.3398 -3.9102,3.9101 -6.25,6.25 1.5586,3.9023 2.3398,4.6914 5.4687,7.8125 -3.9101,-0.7813 -4.6914,-1.5625 -7.8203,-4.6915 l -3.1211,5.4297 5.4727,7.0313 c 1.5586,-3.1211 2.3398,-5.461 4.6797,-7.0313 -0.7813,3.1289 -1.5625,5.4688 -1.5625,9.3789 l 8.5625,4.6914 c -3.0899,0.7383 -5.4297,0 -8.5625,0 0,6.211 1.5625,9.3321 8.5625,10.1094 0,-3.1211 -0.7813,-6.25 0.7773,-8.5898 1.5625,3.1211 1.5625,6.25 3.9024,9.3711 3.9101,0.789 5.4687,0 9.3398,0 -2.3008,2.3476 -4.6484,2.3476 -6.9922,3.1289 l 4.6914,6.2109 c 2.3008,-0.7812 3.8594,-0.7812 6.211,-2.3398 -2.3516,-3.0899 -3.1289,-3.0899 -3.1289,-7 2.3476,2.3476 2.3476,3.1289 5.4687,5.4297 3.1289,-1.5196 4.6914,-3.0821 7.0313,-4.6407 -0.7813,3.1211 -1.5625,3.9024 -2.3399,6.9922 l 4.6485,0.7774 c 1.5586,-2.3399 3.1211,-3.1289 3.8984,-5.4297 -2.3398,0 -3.8984,-0.7813 -5.4688,-2.3399 5.4688,0.7813 5.4688,0.7813 10.1602,-1.5703 -0.7812,2.3516 -2.3398,3.1289 -3.1211,3.9102 -0.7891,0.7812 -2.3476,5.4297 -2.3476,6.2109 h 3.1289 v 0.7813 c -3.9102,0 -3.9102,0 -6.25,2.3476 -1.5704,1.5625 -3.0899,2.3399 -5.4297,4.6797 l 3.8593,1.5703 v 0.7813 l -5.4296,-1.5703 c -2.3399,1.5703 -5.461,4.6484 -8.5899,5.4296 l 6.25,-6.2109 c -8.5508,-3.8984 -7.7695,-3.1172 -17.9297,-2.3398 0.7813,1.5625 4.6875,7.7695 6.25,7.7695 l -0.7812,0.7812 C 39.7695,94.5313 34.3008,87.5391 31.9492,86.7617 28.0898,85.9805 19.4883,85.1992 14.8398,83.6289 Z"
          style="fill:#898989;fill-opacity:1;fill-rule:evenodd;stroke:none" id="path14" />
      <path
          d="m 164.449,40.7813 c 2.352,0.7773 5.43,0.7773 7.781,0 0,-2.3399 0,-4.6915 -0.781,-7.0313 h -7 c 0,2.3398 0,4.6914 0,7.0313 z m -31.168,24.1406 c 0,-6.9922 -1.562,-27.2617 2.34,-33.4727 3.09,-4.6875 7,-5.4687 12.469,-5.4687 6.211,0 11.68,0 17.93,0 5.429,0 12.46,-1.5703 14.019,4.6797 0.781,3.0898 0.781,14.0312 -1.559,16.3711 -2.351,0.7382 -14.031,0.7382 -17.152,0.7382 -6.25,-0.7382 -3.906,-7.7695 -4.687,-13.2382 -22.582,-1.5625 -11.68,7.8085 -14.801,34.2968 z"
          style="fill:#f05f22;fill-opacity:1;fill-rule:evenodd;stroke:none" id="path16" />
      <path
          d="m 240.039,33.75 v 0.7813 c -7.809,0 -35.859,-0.7813 -40.551,0 -8.547,1.5585 -3.078,20.2695 -4.648,35.8593 -3.121,-0.7812 -6.25,-2.3398 -8.59,-3.9101 -0.781,-6.9922 0,-15.5821 0,-22.5703 0,-20.2813 8.59,-17.9297 26.48,-17.9297 6.25,0 17.149,-0.7813 23.399,0 z"
          style="fill:#f05f22;fill-opacity:1;fill-rule:evenodd;stroke:none" id="path18" />
      <path
          d="m 119.262,47.0313 c -0.782,-3.9102 0.777,-7.8125 -3.133,-10.9415 -2.34,-2.3398 -7.809,-0.7812 -10.899,-1.5585 -1.558,-2.3008 -4.679,-6.211 -5.4605,-8.5508 7.0315,0 17.9295,-1.5703 23.3515,3.8984 6.258,5.4297 4.688,13.2422 3.91,21.0195 -1.562,0 -6.211,-2.3476 -7.769,-3.8671 z"
          style="fill:#f05f22;fill-opacity:1;fill-rule:evenodd;stroke:none" id="path20" />
      <path
          d="m 109.102,12.7305 h 3.91 V 3.35938 h 2.34 l 0.777,9.37112 c 5.473,0 3.133,-4.67972 3.91,-9.37112 h 2.301 c 0,3.12109 0.781,10.16012 -3.078,11.71872 -2.352,0.7813 -10.16,0.7813 -12.461,-0.7773 -0.781,-3.1289 -0.781,-7.82033 0,-10.94142 h 2.301 z"
          style="fill:#898989;fill-opacity:1;fill-rule:evenodd;stroke:none" id="path22" />
      <path
          d="m 88.8711,19.7305 c -3.9102,0.7812 -10.9414,0.7812 -10.9414,-4.6524 0,-4.6875 5.4687,-3.1289 8.5898,-5.46872 0.7813,-7.03125 -6.25,0 -8.5898,-6.25 6.25,0 14.0195,-0.78125 10.9414,7.81252 -3.1328,3.1289 -5.4727,0.7773 -7.8203,3.1289 v 2.3398 c 2.3476,0.7813 3.9101,0 6.25,0.7813 z"
          style="fill:#898989;fill-opacity:1;fill-rule:evenodd;stroke:none" id="path24" />
      <path
          d="m 171.449,11.1719 c -2.347,-0.7813 -3.129,-0.7813 -4.648,0 0.738,3.1289 3.078,3.1289 4.648,0 z m 2.34,-2.34377 c 0.781,8.59377 -6.988,7.81247 -9.34,4.69137 -0.777,-1.5703 -0.777,-6.24997 0.781,-8.59762 0.79,-2.34375 4.649,-1.5625 7,-1.5625 l 0.782,2.33984 c -3.133,0.78125 -5.473,-0.77734 -6.211,2.35156 z"
          style="fill:#898989;fill-opacity:1;fill-rule:evenodd;stroke:none" id="path26" />
      <path
          d="m 95.8594,6.48047 c -0.7813,4.69143 -0.7813,6.25003 3.9101,6.25003 V 3.35938 h 2.3395 c 0.782,3.12109 0.782,7.81252 0,11.71872 C 90.4297,19.7305 88.8711,0.269531 98.1992,4.14063 c 0,3.1289 0.7813,0.78125 -2.3398,2.33984 z"
          style="fill:#898989;fill-opacity:1;fill-rule:evenodd;stroke:none" id="path28" />
      <path
          d="m 132.5,12.7305 0.781,-9.37112 h 2.34 c 0,3.12109 0.789,7.81252 -0.781,10.94142 -1.559,1.5586 -6.25,1.5586 -7.809,0 -1.562,-2.3516 -3.121,-14.031269 4.688,-10.16017 -0.778,4.6875 -1.559,-0.78125 -3.129,3.1289 -0.781,1.5586 0,3.90237 0,5.46097 z"
          style="fill:#898989;fill-opacity:1;fill-rule:evenodd;stroke:none" id="path30" />
      <path
          d="m 142.621,12.7305 3.899,-0.7813 V 3.35938 h 2.351 c 0,3.12109 0.777,7.81252 -0.781,10.16012 -1.57,2.3399 -6.25,2.3399 -8.602,1.5586 -0.777,-3.1289 0,-8.59763 0,-11.71872 h 2.352 z"
          style="fill:#898989;fill-opacity:1;fill-rule:evenodd;stroke:none" id="path32" />
      <path
          d="m 159.77,16.6406 h 3.902 v 3.0899 L 152.73,18.9492 v -2.3086 h 4.692 V 3.35938 h 2.348 z"
          style="fill:#898989;fill-opacity:1;fill-rule:evenodd;stroke:none" id="path34" />
      <path
          d="m 78.7109,50.8984 h 6.25 c 0,2.3399 0,4.6914 0,7.0313 h -6.25 c -0.7812,-2.3399 -0.7812,-4.6914 0,-7.0313 z"
          style="fill:#898989;fill-opacity:1;fill-rule:evenodd;stroke:none" id="path36" />
      <path
          d="m 88.0898,50.8984 h 6.211 c 0.7773,2.3399 0.7773,4.6914 0,7.0313 h -6.211 c -0.789,-2.3399 -0.789,-4.6914 0,-7.0313 z"
          style="fill:#898989;fill-opacity:1;fill-rule:evenodd;stroke:none" id="path38" />
      <path
          d="m 108.32,57.9297 c -0.781,-2.3399 -0.781,-4.6914 0,-7.0313 1.559,0 4.692,0 6.25,0.7813 v 6.25 z"
          style="fill:#f05f22;fill-opacity:1;fill-rule:evenodd;stroke:none" id="path40" />
      <path
          d="m 180.039,18.9492 c -3.91,-1.5273 -2.34,-3.0898 -2.34,-7 0,-3.12107 -0.789,-6.24998 0.781,-8.58982 h 1.559 z"
          style="fill:#898989;fill-opacity:1;fill-rule:evenodd;stroke:none" id="path42" />
      <path
          d="m 10.1602,78.1602 h 0.7812 c 3.8984,0 5.4688,0.789 4.6797,4.6914 l -0.7813,0.7773 c -4.6796,3.1328 -7.80855,-0.7773 -4.6796,-5.4687 z"
          style="fill:#f05f22;fill-opacity:1;fill-rule:evenodd;stroke:none" id="path44" />
      <path
          d="m 42.1094,96.0898 0.7812,-0.7812 2.3399,-0.7773 3.0898,1.5585 c -1.5195,2.3516 0,1.5704 -2.3008,3.9102 h -2.3476 c -1.5625,-1.5586 -1.5625,-1.5586 -1.5625,-3.9102 z"
          style="fill:#f05f22;fill-opacity:1;fill-rule:evenodd;stroke:none" id="path46" />
      <path
          d="m 3.91016,43.1211 c 1.55859,2.3477 2.33984,3.1289 0,4.6484 H 3.12109 c -4.64062,0 -3.859371,-4.6484 0.78907,-4.6484 z"
          style="fill:#f05f22;fill-opacity:1;fill-rule:evenodd;stroke:none" id="path48" />
      <path
          d="m 10.9414,29.1016 h -0.7812 c -3.12895,-0.7813 -2.35161,-3.9024 0.7812,-3.1211 1.5586,1.5586 1.5586,1.5586 0,3.1211 z"
          style="fill:#f05f22;fill-opacity:1;fill-rule:evenodd;stroke:none" id="path50" />
      <path
          d="m 62.3398,92.2305 v -0.7813 c 2.3516,-1.5703 1.5704,-1.5703 3.9102,-0.789 0.7813,2.3086 0,3.0898 -2.3398,3.0898 z"
          style="fill:#f05f22;fill-opacity:1;fill-rule:evenodd;stroke:none" id="path52" />
      <path
          d="m 70.1602,82.8516 v -0.7813 c 1.5586,-1.5586 0.7812,-0.7812 2.3398,-0.7812 1.5586,1.5625 1.5586,0 0.7813,2.3398 -2.3399,0.7813 -1.5625,0.7813 -3.1211,-0.7773 z"
          style="fill:#f05f22;fill-opacity:1;fill-rule:evenodd;stroke:none" id="path54" />
      <path
          d="m 21.0508,24.4102 c -0.7813,-2.3399 -0.7813,-0.7813 0,-3.1211 2.3476,0 2.3476,0 2.3476,1.5625 z"
          style="fill:#f05f22;fill-opacity:1;fill-rule:evenodd;stroke:none" id="path56" />
    </g>
  </g>
</svg>
