<?xml version="1.0" encoding="UTF-8"?>
<!DOCTYPE svg PUBLIC "-//W3C//DTD SVG 1.1//EN" "http://www.w3.org/Graphics/SVG/1.1/DTD/svg11.dtd">
<!-- Creator: CorelDRAW -->
<svg xmlns="http://www.w3.org/2000/svg" xml:space="preserve" width="32px" height="13px" version="1.1" style="shape-rendering:geometricPrecision; text-rendering:geometricPrecision; image-rendering:optimizeQuality; fill-rule:evenodd; clip-rule:evenodd"
viewBox="0 0 3.08 1.24"
 xmlns:xlink="http://www.w3.org/1999/xlink"
 xmlns:xodm="http://www.corel.com/coreldraw/odm/2003">
 <defs>
  <style type="text/css">
   <![CDATA[
    .fil0 {fill:#898989}
    .fil1 {fill:#F05F22}
   ]]>
  </style>
 </defs>
 <g id="Layer_x0020_1">
  <metadata id="CorelCorpID_0Corel-Layer"/>
  <g id="_2598353323488">
   <path class="fil0" d="M1.25 0.84c-0.17,-0.01 -0.3,0.03 -0.31,-0.08 -0.02,-0.11 0.01,-0.28 -0.01,-0.38l-0.1 0.05c-0.01,0.09 0,0.2 0,0.29 0,0.26 0.05,0.41 -0.19,0.41 -0.13,0 -0.1,-0.09 -0.11,-0.18 -0.03,0 -0.07,0.03 -0.1,0.05 -0.02,0.21 0.08,0.26 0.28,0.24 0.07,-0.01 0.13,-0.04 0.17,-0.09 0.06,-0.06 0.05,-0.13 0.06,-0.21l0.24 0.01 0.07 -0.11z"/>
   <path class="fil0" d="M0.19 0.75c0.01,0.01 0.03,0.04 0.04,0.05 0.02,0.02 0.02,0.05 0.01,0.08l-0.08 -0.06 0.03 -0.07zm-0.02 -0.22c0.02,-0.03 0.07,-0.07 0.1,-0.08l0 0.07 -0.07 0.09 -0.03 -0.08zm0.21 -0.21c0.01,-0.04 0.03,-0.08 0.06,-0.11l0.09 0.01c-0.01,0.01 -0.06,0.07 -0.07,0.08l-0.08 0.02zm0.35 -0.17c0.02,0.01 0.05,0.04 0.06,0.07l-0.06 0 -0.07 -0.04 0.07 -0.03zm-0.54 0.06l0.01 0.01c0.06,-0.01 0.12,-0.02 0.18,-0.01 0,0 -0.08,0.15 -0.09,0.16 -0.01,0.01 -0.05,0.04 -0.07,0.05 -0.02,0.02 -0.03,0.04 -0.06,0.06l-0.02 -0.2 -0.01 0c-0.01,0.08 0,0.15 0,0.23 0,0.04 -0.07,0.11 -0.09,0.16l0.01 0c0.02,-0.04 0.05,-0.08 0.08,-0.1 0.01,0.01 0.03,0.09 0.03,0.11 0.01,0.03 -0.01,0.08 -0.02,0.12 -0.02,0 -0.07,-0.05 -0.09,-0.07l0 0c0.05,0.09 0.1,0.04 0.08,0.18l0.01 0 0.01 -0.06 0.07 0.05c0.05,0.04 0.02,0.02 0.05,0.07l0 -0.04 0.08 0.02c0.02,0.02 0.03,0.03 0.06,0.03 -0.04,-0.03 -0.04,-0.07 -0.04,-0.12 -0.02,0.03 -0.02,0.04 -0.02,0.07 -0.03,0 -0.05,-0.02 -0.08,-0.04l0.01 -0.05 0.09 0.02c-0.03,-0.03 -0.05,-0.05 -0.08,-0.08 0.02,-0.05 0.03,-0.06 0.07,-0.1 -0.05,0.01 -0.06,0.02 -0.1,0.06l-0.04 -0.07 0.07 -0.09c0.02,0.04 0.03,0.07 0.06,0.09 -0.01,-0.04 -0.02,-0.07 -0.02,-0.12l0.11 -0.06c-0.04,-0.01 -0.07,0 -0.11,0 0,-0.08 0.02,-0.12 0.11,-0.13 0,0.04 -0.01,0.08 0.01,0.11 0.02,-0.04 0.02,-0.08 0.05,-0.12 0.05,-0.01 0.07,0 0.12,0 -0.03,-0.03 -0.06,-0.03 -0.09,-0.04l0.06 -0.08c0.03,0.01 0.05,0.01 0.08,0.03 -0.03,0.04 -0.04,0.04 -0.04,0.09 0.03,-0.03 0.03,-0.04 0.07,-0.07 0.04,0.02 0.06,0.04 0.09,0.06 -0.01,-0.04 -0.02,-0.05 -0.03,-0.09l0.06 -0.01c0.02,0.03 0.04,0.04 0.05,0.07 -0.03,0 -0.05,0.01 -0.07,0.03 0.07,-0.01 0.07,-0.01 0.13,0.02 -0.01,-0.03 -0.03,-0.04 -0.04,-0.05 -0.01,-0.01 -0.03,-0.07 -0.03,-0.08l0.04 0 0 -0.01c-0.05,0 -0.05,0 -0.08,-0.03 -0.02,-0.02 -0.04,-0.03 -0.07,-0.06l0.05 -0.02 0 -0.01 -0.07 0.02c-0.03,-0.02 -0.07,-0.06 -0.11,-0.07l0.08 0.08c-0.11,0.05 -0.1,0.04 -0.23,0.03 0.01,-0.02 0.06,-0.1 0.08,-0.1l-0.01 -0.01c-0.03,0.02 -0.1,0.11 -0.13,0.12 -0.05,0.01 -0.16,0.02 -0.22,0.04z"/>
   <path class="fil1" d="M2.11 0.76c0.03,-0.01 0.07,-0.01 0.1,0 0,0.03 0,0.06 -0.01,0.09l-0.09 0c0,-0.03 0,-0.06 0,-0.09zm-0.4 -0.31c0,0.09 -0.02,0.35 0.03,0.43 0.04,0.06 0.09,0.07 0.16,0.07 0.08,0 0.15,0 0.23,0 0.07,0 0.16,0.02 0.18,-0.06 0.01,-0.04 0.01,-0.18 -0.02,-0.21 -0.03,-0.01 -0.18,-0.01 -0.22,-0.01 -0.08,0.01 -0.05,0.1 -0.06,0.17 -0.29,0.02 -0.15,-0.1 -0.19,-0.44l-0.11 0.05z"/>
   <path class="fil1" d="M3.08 0.85l0 -0.01c-0.1,0 -0.46,0.01 -0.52,0 -0.11,-0.02 -0.04,-0.26 -0.06,-0.46 -0.04,0.01 -0.08,0.03 -0.11,0.05 -0.01,0.09 0,0.2 0,0.29 0,0.26 0.11,0.23 0.34,0.23 0.08,0 0.22,0.01 0.3,0l0.05 -0.1z"/>
   <path class="fil1" d="M1.53 0.68c-0.01,0.05 0.01,0.1 -0.04,0.14 -0.03,0.03 -0.1,0.01 -0.14,0.02 -0.02,0.03 -0.06,0.08 -0.07,0.11 0.09,0 0.23,0.02 0.3,-0.05 0.08,-0.07 0.06,-0.17 0.05,-0.27 -0.02,0 -0.08,0.03 -0.1,0.05z"/>
   <path class="fil0" d="M1.4 1.12l0.05 0 0 0.12 0.03 0 0.01 -0.12c0.07,0 0.04,0.06 0.05,0.12l0.03 0c0,-0.04 0.01,-0.13 -0.04,-0.15 -0.03,-0.01 -0.13,-0.01 -0.16,0.01 -0.01,0.04 -0.01,0.1 0,0.14l0.03 0 0 -0.12z"/>
   <path class="fil0" d="M1.14 1.03c-0.05,-0.01 -0.14,-0.01 -0.14,0.06 0,0.06 0.07,0.04 0.11,0.07 0.01,0.09 -0.08,0 -0.11,0.08 0.08,0 0.18,0.01 0.14,-0.1 -0.04,-0.04 -0.07,-0.01 -0.1,-0.04l0 -0.03c0.03,-0.01 0.05,0 0.08,-0.01l0.02 -0.03z"/>
   <path class="fil0" d="M2.2 1.14c-0.03,0.01 -0.04,0.01 -0.06,0 0.01,-0.04 0.04,-0.04 0.06,0zm0.03 0.03c0.01,-0.11 -0.09,-0.1 -0.12,-0.06 -0.01,0.02 -0.01,0.08 0.01,0.11 0.01,0.03 0.06,0.02 0.09,0.02l0.01 -0.03c-0.04,-0.01 -0.07,0.01 -0.08,-0.03l0.09 -0.01z"/>
   <path class="fil0" d="M1.23 1.2c-0.01,-0.06 -0.01,-0.08 0.05,-0.08l0 0.12 0.03 0c0.01,-0.04 0.01,-0.1 0,-0.15 -0.15,-0.06 -0.17,0.19 -0.05,0.14 0,-0.04 0.01,-0.01 -0.03,-0.03z"/>
   <path class="fil0" d="M1.7 1.12l0.01 0.12 0.03 0c0,-0.04 0.01,-0.1 -0.01,-0.14 -0.02,-0.02 -0.08,-0.02 -0.1,0 -0.02,0.03 -0.04,0.18 0.06,0.13 -0.01,-0.06 -0.02,0.01 -0.04,-0.04 -0.01,-0.02 0,-0.05 0,-0.07l0.05 0z"/>
   <path class="fil0" d="M1.83 1.12l0.05 0.01 0 0.11 0.03 0c0,-0.04 0.01,-0.1 -0.01,-0.13 -0.02,-0.03 -0.08,-0.03 -0.11,-0.02 -0.01,0.04 0,0.11 0,0.15l0.03 0 0.01 -0.12z"/>
   <polygon class="fil0" points="2.05,1.07 2.1,1.07 2.1,1.03 1.96,1.04 1.96,1.07 2.02,1.07 2.02,1.24 2.05,1.24 "/>
   <path class="fil0" d="M1.01 0.63l0.08 0c0,-0.03 0,-0.06 0,-0.09l-0.08 0c-0.01,0.03 -0.01,0.06 0,0.09z"/>
   <path class="fil0" d="M1.13 0.63l0.08 0c0.01,-0.03 0.01,-0.06 0,-0.09l-0.08 0c-0.01,0.03 -0.01,0.06 0,0.09z"/>
   <path class="fil1" d="M1.39 0.54c-0.01,0.03 -0.01,0.06 0,0.09 0.02,0 0.06,0 0.08,-0.01l0 -0.08 -0.08 0z"/>
   <path class="fil0" d="M2.31 1.04c-0.05,0.02 -0.03,0.04 -0.03,0.09 0,0.04 -0.01,0.08 0.01,0.11l0.02 0 0 -0.2z"/>
   <path class="fil1" d="M0.13 0.28l0.01 0c0.05,0 0.07,-0.01 0.06,-0.06l-0.01 -0.01c-0.06,-0.04 -0.1,0.01 -0.06,0.07z"/>
   <path class="fil1" d="M0.54 0.05l0.01 0.01 0.03 0.01 0.04 -0.02c-0.02,-0.03 0,-0.02 -0.03,-0.05l-0.03 0c-0.02,0.02 -0.02,0.02 -0.02,0.05z"/>
   <path class="fil1" d="M0.05 0.73l0 0c0.02,-0.03 0.03,-0.04 0,-0.06l-0.01 0c-0.06,0 -0.05,0.06 0.01,0.06z"/>
   <path class="fil1" d="M0.14 0.91l-0.01 0c-0.04,0.01 -0.03,0.05 0.01,0.04 0.02,-0.02 0.02,-0.02 0,-0.04z"/>
   <path class="fil1" d="M0.8 0.1l0 0.01c0.03,0.02 0.02,0.02 0.05,0.01 0.01,-0.03 0,-0.04 -0.03,-0.04l-0.02 0.02z"/>
   <path class="fil1" d="M0.9 0.22l0 0.01c0.02,0.02 0.01,0.01 0.03,0.01 0.02,-0.02 0.02,0 0.01,-0.03 -0.03,-0.01 -0.02,-0.01 -0.04,0.01z"/>
   <path class="fil1" d="M0.27 0.97c-0.01,0.03 -0.01,0.01 0,0.04 0.03,0 0.03,0 0.03,-0.02l-0.03 -0.02z"/>
  </g>
 </g>
</svg>
