<?xml version="1.0" encoding="UTF-8"?>
<!DOCTYPE svg PUBLIC "-//W3C//DTD SVG 1.1//EN" "http://www.w3.org/Graphics/SVG/1.1/DTD/svg11.dtd">
<!-- Creator: CorelDRAW -->
<svg xmlns="http://www.w3.org/2000/svg" xml:space="preserve" width="33px" height="14px" version="1.1" style="shape-rendering:geometricPrecision; text-rendering:geometricPrecision; image-rendering:optimizeQuality; fill-rule:evenodd; clip-rule:evenodd"
viewBox="0 0 2.04 0.88"
 xmlns:xlink="http://www.w3.org/1999/xlink"
 xmlns:xodm="http://www.corel.com/coreldraw/odm/2003">
 <defs>
  <style type="text/css">
   <![CDATA[
    .fil1 {fill:#EC1C24}
    .fil0 {fill:#221E1F;fill-rule:nonzero}
   ]]>
  </style>
 </defs>
 <g id="Layer_x0020_1">
  <metadata id="CorelCorpID_0Corel-Layer"/>
  <g id="_2598358967216">
   <polygon class="fil0" points="2.02,0.47 1.96,0.47 1.96,0.03 2.02,0.03 "/>
   <path class="fil0" d="M2.02 0.49l-0.08 0 0 -0.47 0.1 0 0 0.47 -0.02 0zm-0.04 -0.04l0.03 0 0 -0.4 -0.03 0 0 0.4z"/>
   <path class="fil0" d="M1.9 0.36c0,0.03 0,0.06 -0.02,0.08 -0.01,0.03 -0.04,0.04 -0.07,0.04 -0.03,0 -0.06,-0.02 -0.09,-0.05 -0.02,0.03 -0.05,0.05 -0.07,0.05 -0.03,0 -0.06,-0.02 -0.09,-0.06 -0.03,0.03 -0.06,0.05 -0.09,0.05l-0.08 0 0 -0.07 0.08 0c0.03,0 0.04,-0.02 0.04,-0.05l0 -0.09 0.07 0 0 0.1c0,0.01 0,0.03 0.01,0.04 0.01,0.01 0.03,0.01 0.04,0.01 0.03,0 0.05,-0.01 0.05,-0.04l0 -0.11 0.06 0 0 0.1c0,0.01 0.01,0.03 0.02,0.04 0.01,0.01 0.02,0.01 0.04,0.01 0.03,0 0.04,-0.01 0.04,-0.04l0 -0.11 0.06 0 0 0.1z"/>
   <path class="fil0" d="M1.92 0.36c0,0.02 0,0.03 -0.01,0.05 0,0.02 -0.01,0.03 -0.02,0.04 -0.01,0.02 -0.02,0.03 -0.03,0.03 -0.02,0.01 -0.03,0.01 -0.05,0.01 -0.03,0 -0.06,-0.01 -0.09,-0.03 -0.01,0.01 -0.02,0.01 -0.03,0.02 -0.01,0.01 -0.03,0.01 -0.04,0.01 -0.03,0 -0.06,-0.01 -0.09,-0.04 -0.01,0.01 -0.02,0.02 -0.03,0.02 -0.02,0.01 -0.04,0.02 -0.06,0.02l-0.09 0 0 -0.11 0.09 0c0.02,0 0.03,-0.01 0.03,-0.03l0 -0.11 0.09 0 0 0.12c0,0 0,0.01 0.01,0.01 0,0.01 0,0.01 0.01,0.01l0 0c0,0.01 0,0.01 0.01,0.01 0,0 0.01,0.01 0.01,0.01 0.01,0 0.02,-0.01 0.02,-0.01 0.01,0 0.01,-0.01 0.01,-0.02l0 -0.13 0.1 0 0 0.12c0,0 0,0.01 0,0.01 0,0.01 0,0.01 0.01,0.01 0,0.01 0.01,0.01 0.01,0.01 0,0 0.01,0.01 0.02,0.01 0.01,0 0.01,-0.01 0.02,-0.01 0,0 0,-0.01 0,-0.02l0 -0.13 0.1 0 0 0.12zm-0.04 0.04c0,-0.01 0.01,-0.02 0.01,-0.04l0 -0.09 -0.03 0 0 0.1c0,0.02 -0.01,0.03 -0.02,0.04 -0.01,0.01 -0.03,0.02 -0.04,0.02 -0.01,0 -0.02,0 -0.03,-0.01 -0.01,0 -0.02,-0.01 -0.03,-0.01l0 0c0,-0.01 -0.01,-0.02 -0.01,-0.03 0,0 -0.01,-0.01 -0.01,-0.02l0 -0.09 -0.03 0 0 0.1c0,0.02 0,0.03 -0.01,0.04 -0.01,0.01 -0.03,0.02 -0.05,0.02 -0.01,0 -0.02,0 -0.02,-0.01 -0.01,0 -0.02,-0.01 -0.03,-0.01 0,-0.01 -0.01,-0.02 -0.01,-0.03 -0.01,0 -0.01,-0.01 -0.01,-0.02l0 -0.09 -0.03 0 0 0.08c0,0.05 -0.02,0.07 -0.06,0.07l-0.06 0 0 0.03 0.06 0c0.02,0 0.03,0 0.04,-0.01 0.01,0 0.02,-0.01 0.04,-0.03l0.01 -0.01 0.01 0.01c0.03,0.03 0.05,0.05 0.08,0.05 0.01,0 0.02,0 0.03,-0.01 0.01,-0.01 0.02,-0.02 0.03,-0.03l0.01 -0.01 0.02 0.01c0.02,0.03 0.05,0.04 0.07,0.04 0.01,0 0.02,0 0.03,-0.01 0.01,0 0.02,-0.01 0.03,-0.02l0 0c0,-0.01 0.01,-0.02 0.01,-0.03z"/>
   <path class="fil0" d="M1.4 0.47c-0.03,0 -0.05,0 -0.06,0 -0.01,-0.01 -0.02,-0.02 -0.03,-0.03 -0.02,0.02 -0.04,0.03 -0.06,0.03l-0.14 0 0 -0.07 0.12 0c0.02,0 0.03,0 0.04,-0.01 0,-0.01 0.01,-0.02 0.01,-0.04l0 -0.09 0.06 0 0 0.09c0,0.02 0,0.04 0.01,0.04 0.01,0.01 0.03,0.01 0.05,0.01l0 0.07z"/>
   <path class="fil0" d="M1.4 0.49c-0.01,0 -0.02,0 -0.03,-0.01 -0.02,0 -0.02,0 -0.03,0l-0.01 0c0,0 -0.01,-0.01 -0.01,-0.01 -0.01,0 -0.01,0 -0.01,-0.01 -0.01,0.01 -0.02,0.01 -0.03,0.02 -0.01,0 -0.02,0.01 -0.03,0.01l-0.16 0 0 -0.11 0.14 0c0.01,0 0.01,0 0.02,0 0,0 0,0 0,0l0 0c0,0 0.01,-0.01 0.01,-0.01 0,-0.01 0,-0.01 0,-0.02l0 -0.11 0.1 0 0 0.11c0,0.01 0,0.02 0,0.02 0,0.01 0,0.01 0,0.01l0 0c0.01,0 0.01,0 0.01,0 0.01,0 0.02,0 0.03,0l0.02 0 0 0.11 -0.02 0zm-0.03 -0.04c0,0 0.01,0 0.01,0l0 -0.03c0,0 -0.01,0 -0.01,0 -0.01,-0.01 -0.02,-0.01 -0.02,-0.01l0 0c-0.01,-0.01 -0.02,-0.02 -0.02,-0.03 -0.01,-0.01 -0.01,-0.02 -0.01,-0.03l0 -0.08 -0.03 0 0 0.08c0,0.01 0,0.02 0,0.03 0,0.01 -0.01,0.01 -0.01,0.02l0 0c-0.01,0.01 -0.02,0.01 -0.02,0.01 -0.01,0.01 -0.02,0.01 -0.03,0.01l-0.1 0 0 0.03 0.12 0c0.01,0 0.01,0 0.02,0 0.01,-0.01 0.02,-0.01 0.03,-0.02l0.01 -0.01 0.01 0.01c0,0.01 0.01,0.01 0.01,0.01 0.01,0.01 0.01,0.01 0.02,0.01 0,0 0.01,0 0.02,0z"/>
   <path class="fil0" d="M1.12 0.47c-0.06,0 -0.1,-0.01 -0.12,-0.03 -0.01,-0.02 -0.02,-0.04 -0.02,-0.07l0 -0.33 0.06 0 0 0.3c0,0.03 0.01,0.05 0.02,0.05 0.01,0.01 0.03,0.01 0.06,0.01l0 0.07z"/>
   <path class="fil0" d="M1.12 0.49c-0.03,0 -0.06,-0.01 -0.08,-0.01 -0.02,-0.01 -0.04,-0.02 -0.05,-0.03 -0.01,-0.01 -0.02,-0.02 -0.02,-0.04 0,-0.01 -0.01,-0.03 -0.01,-0.04l0 -0.34 0.1 0 0 0.31c0,0.01 0,0.02 0,0.03 0.01,0 0.01,0.01 0.01,0.01 0,0 0,0 0.01,0 0.01,0 0.02,0 0.04,0l0.01 0.01 0 0.1 -0.01 0zm-0.07 -0.04c0.02,0 0.03,0 0.05,0l0 -0.03c-0.01,0 -0.02,0 -0.02,-0.01 -0.02,0 -0.02,0 -0.03,0l0 0c-0.01,-0.01 -0.01,-0.02 -0.02,-0.03 0,-0.01 0,-0.03 0,-0.04l0 -0.28 -0.03 0 0 0.31c0,0.01 0,0.02 0,0.03 0,0.01 0.01,0.02 0.01,0.02l0 0c0.01,0.01 0.03,0.02 0.04,0.03z"/>
   <path class="fil0" d="M0.93 0.38c0,0.03 -0.01,0.05 -0.03,0.07 -0.01,0.01 -0.04,0.02 -0.06,0.02l-0.2 0 -0.01 -0.07 0.2 0c0.03,0 0.04,-0.01 0.04,-0.03 0,0 0,-0.01 -0.01,-0.02l-0.14 -0.16 0.04 -0.05 0.14 0.16c0.02,0.03 0.03,0.05 0.03,0.08z"/>
   <path class="fil0" d="M0.95 0.38c0,0.02 0,0.03 -0.01,0.04 0,0.02 -0.01,0.03 -0.02,0.04 -0.02,0.01 -0.03,0.01 -0.04,0.02 -0.01,0 -0.03,0.01 -0.04,0.01l-0.22 0 -0.01 -0.11 0.22 0c0.01,0 0.02,0 0.02,0 0,0 0,0 0,-0.01 0,0 0,0 0,0l0 0c0,0 0,-0.01 0,-0.01l0 0 -0.16 -0.17 0.07 -0.07 0.16 0.17c0.01,0.01 0.02,0.03 0.02,0.04 0.01,0.02 0.01,0.03 0.01,0.05zm-0.04 0.03c0.01,-0.01 0.01,-0.02 0.01,-0.03 0,-0.01 -0.01,-0.02 -0.01,-0.03 0,-0.02 -0.01,-0.03 -0.02,-0.04l-0.13 -0.14 -0.02 0.02 0.13 0.15 0 0c0.01,0 0.01,0.01 0.01,0.02l0 0c0.01,0 0.01,0.01 0.01,0.01 0,0.02 -0.01,0.03 -0.02,0.04 -0.01,0 -0.02,0.01 -0.04,0.01l-0.18 0 0 0.03 0.19 0c0.01,0 0.02,0 0.03,0 0.01,-0.01 0.02,-0.01 0.02,-0.02l0 0c0.01,0 0.02,-0.01 0.02,-0.02z"/>
   <polygon class="fil0" points="0.56,0.47 0.5,0.47 0.5,0.03 0.56,0.03 "/>
   <path class="fil0" d="M0.56 0.49l-0.08 0 0 -0.47 0.1 0 0 0.47 -0.02 0zm-0.05 -0.04l0.03 0 0 -0.4 -0.03 0 0 0.4z"/>
   <path class="fil0" d="M0.43 0.46c0,0.05 -0.01,0.09 -0.04,0.13 -0.03,0.03 -0.07,0.05 -0.12,0.05l-0.1 0c-0.04,0 -0.08,-0.02 -0.11,-0.05 -0.03,-0.04 -0.04,-0.08 -0.04,-0.12l0 -0.15 0.06 0 0 0.15c0,0.03 0.01,0.06 0.03,0.08 0.02,0.01 0.05,0.02 0.07,0.02l0.09 0c0.02,0 0.05,-0.01 0.07,-0.02 0.02,-0.02 0.03,-0.05 0.03,-0.08l0 -0.21 0.06 0 0 0.2z"/>
   <path class="fil0" d="M0.45 0.46c0,0.03 -0.01,0.05 -0.01,0.08 -0.01,0.02 -0.02,0.04 -0.04,0.06 -0.01,0.02 -0.03,0.03 -0.06,0.04 -0.02,0.01 -0.04,0.02 -0.07,0.02l-0.1 0c-0.02,0 -0.05,-0.01 -0.07,-0.02 -0.02,-0.01 -0.04,-0.02 -0.05,-0.04 -0.02,-0.02 -0.03,-0.04 -0.04,-0.06 -0.01,-0.03 -0.01,-0.05 -0.01,-0.07l0 -0.16 0.1 0 0 0.16c0,0.02 0,0.03 0,0.04 0.01,0.01 0.01,0.02 0.02,0.02 0.01,0.01 0.02,0.02 0.03,0.02 0.01,0 0.02,0.01 0.03,0.01l0.09 0c0.01,0 0.02,-0.01 0.03,-0.01 0.01,0 0.02,-0.01 0.03,-0.02l0 0c0,0 0.01,-0.01 0.02,-0.02 0,-0.01 0,-0.02 0,-0.04l0 -0.23 0.1 0 0 0.22zm-0.04 0.07c0,-0.02 0.01,-0.05 0.01,-0.07l0 -0.19 -0.04 0 0 0.2c0,0.02 0,0.04 0,0.05 -0.01,0.01 -0.02,0.03 -0.03,0.04l0 0c-0.01,0.01 -0.03,0.02 -0.04,0.02 -0.01,0.01 -0.03,0.01 -0.04,0.01l-0.09 0c-0.01,0 -0.03,0 -0.04,-0.01 -0.02,0 -0.03,-0.01 -0.04,-0.02 -0.01,-0.01 -0.02,-0.03 -0.03,-0.04 0,-0.01 -0.01,-0.03 -0.01,-0.05l0 -0.13 -0.03 0 0 0.13c0,0.02 0.01,0.04 0.01,0.06 0.01,0.01 0.02,0.03 0.03,0.05 0.02,0.01 0.03,0.03 0.05,0.03 0.01,0.01 0.03,0.01 0.05,0.01l0.1 0c0.02,0 0.04,0 0.06,-0.01 0.02,0 0.03,-0.02 0.05,-0.03 0.01,-0.02 0.02,-0.03 0.03,-0.05z"/>
   <path class="fil1" d="M0.23 0c0.06,0 0.11,0.05 0.11,0.11 0,0.07 -0.05,0.12 -0.11,0.12 -0.07,0 -0.12,-0.05 -0.12,-0.12 0,-0.06 0.05,-0.11 0.12,-0.11z"/>
   <path class="fil1" d="M1.05 0.52c0.05,0 0.09,0.04 0.09,0.09 0,0.05 -0.04,0.09 -0.09,0.09 -0.05,0 -0.09,-0.04 -0.09,-0.09 0,-0.05 0.04,-0.09 0.09,-0.09z"/>
   <path class="fil1" d="M1.25 0.52c0.05,0 0.09,0.04 0.09,0.09 0,0.05 -0.04,0.09 -0.09,0.09 -0.05,0 -0.09,-0.04 -0.09,-0.09 0,-0.05 0.04,-0.09 0.09,-0.09z"/>
   <path class="fil1" d="M1.15 0.69c0.05,0 0.09,0.04 0.09,0.09 0,0.05 -0.04,0.1 -0.09,0.1 -0.05,0 -0.09,-0.05 -0.09,-0.1 0,-0.05 0.04,-0.09 0.09,-0.09z"/>
  </g>
 </g>
</svg>
