<?xml version="1.0" encoding="UTF-8" standalone="no"?><!-- Created with Inkscape (http://www.inkscape.org/) -->

<svg version="1.1" id="svg2" width="33.333332" height="14.666667" viewBox="0 0 33.333332 14.666667"
    sodipodi:docname="spadan.eps" xmlns:inkscape="http://www.inkscape.org/namespaces/inkscape"
    xmlns:sodipodi="http://sodipodi.sourceforge.net/DTD/sodipodi-0.dtd"
    xmlns="http://www.w3.org/2000/svg">
  <defs id="defs6" />
  <sodipodi:namedview id="namedview4" pagecolor="#ffffff" bordercolor="#000000" borderopacity="0.25"
      inkscape:showpageshadow="2" inkscape:pageopacity="0.0" inkscape:pagecheckerboard="0"
      inkscape:deskcolor="#d1d1d1" />
  <g id="g8" inkscape:groupmode="layer" inkscape:label="ink_ext_XXXXXX"
      transform="matrix(1.3333333,0,0,-1.3333333,0,14.666667)">
    <g id="g10" transform="scale(0.1)">
      <path d="m 233.871,53.9102 h 7.14844 v 52.5 H 233.871 Z"
          style="fill:#221e1f;fill-opacity:1;fill-rule:nonzero;stroke:none" id="path12" />
      <path
          d="m 241.02,51.5195 h -9.54 v 56.1015 h 11.918 V 51.5195 Z m -4.77,4.7696 h 3.58984 v 47.7305 H 236.25 Z"
          style="fill:#221e1f;fill-opacity:1;fill-rule:nonzero;stroke:none" id="path14" />
      <path
          d="m 226.719,67.0313 c 0,-3.5508 0,-7.1524 -2.379,-9.5313 -1.219,-3.5898 -4.809,-4.7695 -8.36,-4.7695 -3.601,0 -7.191,2.3906 -10.75,5.9804 -2.378,-3.5898 -5.968,-5.9804 -8.351,-5.9804 -3.598,0 -7.149,2.3906 -10.75,7.1484 -3.59,-3.5898 -7.149,-5.9687 -10.738,-5.9687 h -9.532 v 8.3593 h 9.532 c 3.589,0 4.769,2.3789 4.769,5.9688 v 10.7422 h 8.36 V 67.0313 c 0,-1.1719 0,-3.5508 1.21,-4.7618 1.168,-1.1797 3.551,-1.1797 4.758,-1.1797 3.602,0 5.981,1.1797 5.981,4.7696 v 13.1211 h 7.152 V 67.0313 c 0,-1.1719 1.168,-3.5508 2.379,-4.7618 1.211,-1.1797 2.379,-1.1797 4.77,-1.1797 3.589,0 4.761,1.1797 4.761,4.7696 v 13.1211 h 7.188 z"
          style="fill:#221e1f;fill-opacity:1;fill-rule:nonzero;stroke:none" id="path16" />
      <path
          d="m 229.102,67.0313 c 0,-2.3829 0,-3.5508 -1.211,-5.9415 0,-2.3789 -1.172,-3.5898 -2.379,-4.8007 -1.172,-2.3789 -2.391,-3.5586 -3.602,-3.5586 -2.379,-1.211 -3.551,-1.211 -5.93,-1.211 -3.601,0 -7.191,1.211 -10.75,3.6016 -1.21,-1.2109 -2.378,-1.2109 -3.589,-2.3906 -1.172,-1.211 -3.551,-1.211 -4.762,-1.211 -3.598,0 -7.149,1.211 -10.75,4.7696 -1.168,-1.168 -2.379,-2.3789 -3.59,-2.3789 -2.379,-1.1797 -4.769,-2.3907 -7.148,-2.3907 h -10.743 v 13.1289 h 10.743 c 2.379,0 3.589,1.211 3.589,3.5899 v 13.1328 h 10.75 V 67.0313 c 0,0 0,-1.1719 1.168,-1.1719 0,-1.211 0,-1.211 1.211,-1.211 0,-1.1679 0,-1.1679 1.172,-1.1679 l 1.207,-1.211 c 1.172,0 2.391,1.211 2.391,1.211 1.211,0 1.211,1.1679 1.211,2.3789 V 81.3711 H 210 V 67.0313 65.8594 c 0,-1.211 0,-1.211 1.211,-1.211 0,-1.1679 1.168,-1.1679 1.168,-1.1679 0,0 1.211,-1.211 2.391,-1.211 1.21,0 1.21,1.211 2.378,1.211 0,0 0,1.1679 0,2.3789 v 15.5117 h 11.954 z m -4.762,-4.7618 c 0,1.211 1.172,2.3789 1.172,4.7618 V 77.7695 H 221.91 V 65.8594 c 0,-2.3789 -1.172,-3.5899 -2.379,-4.7696 -1.172,-1.2109 -3.551,-2.3789 -4.761,-2.3789 -1.18,0 -2.391,0 -3.559,1.168 -1.211,0 -2.422,1.2109 -3.59,1.2109 0,1.1797 -1.211,2.3907 -1.211,3.5586 0,0 -1.18,1.211 -1.18,2.3829 v 10.7382 h -3.589 V 65.8594 c 0,-2.3789 0,-3.5899 -1.172,-4.7696 -1.207,-1.2109 -3.59,-2.3789 -5.981,-2.3789 -1.207,0 -2.379,0 -2.379,1.168 -1.211,0 -2.379,1.2109 -3.589,1.2109 0,1.1797 -1.18,2.3907 -1.18,3.5586 -1.211,0 -1.211,1.211 -1.211,2.3829 v 10.7382 h -3.59 v -9.5312 c 0,-5.9688 -2.379,-8.3594 -7.148,-8.3594 h -7.153 v -3.5898 h 7.153 c 2.379,0 3.589,0 4.769,1.2109 1.211,0 2.379,1.2109 4.801,3.5898 l 1.168,1.1797 1.211,-1.1797 c 3.558,-3.5898 5.941,-5.9687 9.539,-5.9687 1.211,0 2.383,0 3.59,1.168 1.172,1.2109 2.383,2.4218 3.551,3.5898 l 1.21,1.2109 2.391,-1.2109 c 2.379,-3.5898 5.969,-4.7578 8.359,-4.7578 1.168,0 2.379,0 3.551,1.168 1.207,0 2.379,1.2109 3.59,2.4218 0,1.168 1.219,2.3789 1.219,3.5586 z"
          style="fill:#221e1f;fill-opacity:1;fill-rule:nonzero;stroke:none" id="path18" />
      <path
          d="m 167.031,53.9102 c -3.551,0 -5.941,0 -7.152,0 -1.168,1.2109 -2.379,2.3789 -3.59,3.5898 -2.379,-2.3789 -4.769,-3.5898 -7.148,-3.5898 h -16.68 v 8.3593 h 14.301 c 2.379,0 3.59,0 4.758,1.211 0,1.1679 1.21,2.3789 1.21,4.7578 v 10.7422 h 7.149 V 68.2383 c 0,-2.3789 0,-4.7578 1.211,-4.7578 1.18,-1.211 3.558,-1.211 5.941,-1.211 z"
          style="fill:#221e1f;fill-opacity:1;fill-rule:nonzero;stroke:none" id="path20" />
      <path
          d="m 167.031,51.5195 c -1.172,0 -2.383,0 -3.551,1.211 -2.39,0 -2.39,0 -3.601,0 h -1.168 l -1.211,1.1797 c -1.211,0 -1.211,0 -1.211,1.2109 -1.168,-1.2109 -2.379,-1.2109 -3.559,-2.3906 -1.21,0 -2.378,-1.211 -3.589,-1.211 h -19.102 v 13.1289 h 16.723 c 1.207,0 1.207,0 2.379,0 l 1.211,1.211 c 0,1.1719 0,1.1719 0,2.3789 V 81.3711 H 162.27 V 68.2383 c 0,-1.207 0,-2.3789 0,-2.3789 0,-1.211 0,-1.211 0,-1.211 1.21,0 1.21,0 1.21,0 1.168,0 2.379,0 3.551,0 h 2.379 V 51.5195 Z m -3.551,4.7696 h 1.168 v 3.5898 h -1.168 c -1.21,1.2109 -2.39,1.2109 -2.39,1.2109 -1.211,1.1797 -2.379,2.3907 -2.379,3.5586 -1.211,1.211 -1.211,2.3829 -1.211,3.5899 v 9.5312 h -3.59 v -9.5312 c 0,-1.207 0,-2.3789 0,-3.5899 0,-1.1679 -1.18,-1.1679 -1.18,-2.3789 -1.21,-1.1797 -2.378,-1.1797 -2.378,-1.1797 -1.211,-1.2109 -2.383,-1.2109 -3.59,-1.2109 H 134.84 v -3.5898 h 14.301 c 1.211,0 1.211,0 2.379,0 1.21,1.2109 2.39,1.2109 3.601,2.4218 l 1.168,1.168 1.211,-1.168 c 0,-1.2109 1.211,-1.2109 1.211,-1.2109 1.168,-1.2109 1.168,-1.2109 2.379,-1.2109 0,0 1.18,0 2.39,0 z"
          style="fill:#221e1f;fill-opacity:1;fill-rule:nonzero;stroke:none" id="path22" />
      <path
          d="m 133.629,53.9102 c -7.149,0 -11.91,1.2109 -14.289,3.5898 -1.219,2.3789 -2.43,4.7695 -2.43,8.3594 V 105.23 h 7.192 V 69.4102 c 0,-3.5508 1.168,-5.9297 2.378,-5.9297 1.18,-1.211 3.559,-1.211 7.149,-1.211 z"
          style="fill:#221e1f;fill-opacity:1;fill-rule:nonzero;stroke:none" id="path24" />
      <path
          d="m 133.629,51.5195 c -3.59,0 -7.149,1.211 -9.527,1.211 -2.383,1.1797 -4.762,2.3906 -5.981,3.5586 -1.211,1.2109 -2.383,2.4218 -2.383,4.8007 0,1.1797 -1.207,3.5586 -1.207,4.7696 V 106.41 H 126.48 V 69.4102 c 0,-1.1719 0,-2.3789 0,-3.5508 1.18,0 1.18,-1.211 1.18,-1.211 0,0 0,0 1.211,0 1.168,0 2.379,0 4.758,0 l 1.211,-1.1679 v -11.961 z m -8.359,4.7696 c 2.39,0 3.601,0 5.98,0 v 3.5898 c -1.211,0 -2.379,0 -2.379,1.2109 -2.391,0 -2.391,0 -3.601,0 -1.168,1.1797 -1.168,2.3907 -2.379,3.5586 0,1.211 0,3.5899 0,4.7618 V 102.852 H 119.34 V 65.8594 c 0,-1.211 0,-2.3789 0,-3.5899 0,-1.1797 1.172,-2.3906 1.172,-2.3906 1.207,-1.168 3.59,-2.3789 4.758,-3.5898 z"
          style="fill:#221e1f;fill-opacity:1;fill-rule:nonzero;stroke:none" id="path26" />
      <path
          d="m 110.98,64.6484 c 0,-3.5586 -1.21,-5.9375 -3.601,-8.3593 -1.168,-1.168 -4.758,-2.3789 -7.149,-2.3789 H 76.3711 l -1.2109,8.3593 h 23.8593 c 3.6015,0 4.7695,1.211 4.7695,3.5899 0,0 0,1.1719 -1.168,2.3789 l -16.7226,19.1015 4.7618,5.9415 16.7188,-19.0625 c 2.391,-3.5977 3.601,-5.9805 3.601,-9.5704 z"
          style="fill:#221e1f;fill-opacity:1;fill-rule:nonzero;stroke:none" id="path28" />
      <path
          d="m 113.359,64.6484 c 0,-2.3789 0,-3.5586 -1.211,-4.7695 0,-2.3789 -1.168,-3.5898 -2.378,-4.7578 -2.391,-1.2109 -3.559,-1.2109 -4.77,-2.3906 -1.211,0 -3.59,-1.211 -4.77,-1.211 H 73.9805 l -1.211,13.1289 h 26.25 c 1.2105,0 2.3905,0 2.3905,0 0,0 0,0 0,1.211 v 1.1719 L 82.3398,87.3398 90.6602,95.6602 109.77,75.3906 c 1.21,-1.1718 2.378,-3.5508 2.378,-4.7695 1.211,-2.3828 1.211,-3.5898 1.211,-5.9727 z m -4.769,-3.5586 c 1.18,1.1797 1.18,2.3907 1.18,3.5586 0,1.211 -1.18,2.3829 -1.18,3.5899 0,2.3828 -1.211,3.6015 -2.379,4.7734 L 90.6602,89.7305 88.2813,87.3398 103.789,69.4102 c 1.211,0 1.211,-1.1719 1.211,-2.3789 1.211,0 1.211,-1.1719 1.211,-1.1719 0,-2.3789 -1.211,-3.5899 -2.422,-4.7696 -1.168,0 -2.379,-1.2109 -4.7695,-1.2109 H 77.5391 V 56.2891 H 100.23 c 1.18,0 2.391,0 3.559,0 1.211,1.2109 2.422,1.2109 2.422,2.4218 1.168,0 2.379,1.168 2.379,2.3789 z"
          style="fill:#221e1f;fill-opacity:1;fill-rule:nonzero;stroke:none" id="path30" />
      <path d="m 59.6484,53.9102 h 7.19141 v 52.5 H 59.6484 Z"
          style="fill:#221e1f;fill-opacity:1;fill-rule:nonzero;stroke:none" id="path32" />
      <path
          d="M 66.8398,51.5195 H 57.2695 V 107.621 H 69.2188 V 51.5195 Z m -5.9804,4.7696 h 3.55078 v 47.7305 H 60.8594 Z"
          style="fill:#221e1f;fill-opacity:1;fill-rule:nonzero;stroke:none" id="path34" />
      <path
          d="m 51.2891,55.1211 c 0,-5.9805 -1.168,-10.7422 -4.7696,-15.5117 -3.5507,-3.5899 -8.3593,-5.9805 -14.289,-5.9805 h -11.961 c -4.7578,0 -9.5312,2.3906 -13.12106,5.9805 -3.5586,4.7695 -4.76953,9.5312 -4.76953,14.3008 V 71.8398 H 9.53125 V 53.9102 c 0,-3.5586 1.20705,-7.1485 3.58985,-9.5313 2.3906,-1.2187 5.9805,-2.3906 8.3594,-2.3906 h 10.75 c 2.3789,0 5.9297,1.1719 8.3593,2.3906 2.379,2.3828 3.5508,5.9727 3.5508,9.5313 v 25.0703 h 7.1485 z"
          style="fill:#221e1f;fill-opacity:1;fill-rule:nonzero;stroke:none" id="path36" />
      <path
          d="M 53.7109,55.1211 C 53.7109,51.5195 52.5,49.1406 52.5,45.5898 51.2891,43.1602 50.1211,40.7813 47.7305,38.3984 46.5195,36.0195 44.1406,34.8398 40.5898,33.6289 38.1602,32.4609 35.7813,31.25 32.2305,31.25 h -11.961 c -2.3789,0 -5.9297,1.2109 -8.3593,2.3789 C 9.53125,34.8398 7.14844,36.0195 5.98047,38.3984 3.58984,40.7813 2.37891,43.1602 1.21094,45.5898 0,49.1406 0,51.5195 0,53.9102 V 73.0117 H 11.9102 V 53.9102 c 0,-2.3907 0,-3.5586 0,-4.7696 1.2109,-1.1718 1.2109,-2.3789 2.4296,-2.3789 1.1719,-1.1719 2.379,-2.3828 3.5508,-2.3828 1.211,0 2.3789,-1.2187 3.5899,-1.2187 h 10.75 c 1.1679,0 2.3789,1.2187 3.5508,1.2187 1.207,0 2.3789,1.2109 3.5976,2.3828 0,0 1.2109,1.2071 2.3828,2.3789 0,1.211 0,2.3789 0,4.7696 v 27.4609 h 11.9492 z m -4.8007,-8.3594 c 0,2.3789 1.2109,5.9688 1.2109,8.3594 V 77.7695 H 45.3516 V 53.9102 c 0,-2.3907 0,-4.7696 0,-5.9414 -1.211,-1.2071 -2.3828,-3.5899 -3.5899,-4.8086 -1.1719,-1.1719 -3.6015,-2.3789 -4.7734,-2.3789 -1.207,-1.1719 -3.5899,-1.1719 -4.7578,-1.1719 h -10.75 c -1.211,0 -3.5899,0 -4.7617,1.1719 -2.379,0 -3.5977,1.207 -4.8086,2.3789 -1.1719,1.2187 -2.37895,3.6015 -3.55082,4.8086 0,1.1718 -1.21094,3.5507 -1.21094,5.9414 v 15.5 h -3.5586 v -15.5 c 0,-2.3907 1.17969,-4.7696 1.17969,-7.1485 1.21094,-1.1719 2.37891,-3.6015 3.58985,-5.9804 2.37892,-1.1719 3.55082,-3.5508 5.98042,-3.5508 1.1719,-1.211 3.5508,-1.211 5.9297,-1.211 h 11.961 c 2.3789,0 4.7578,0 7.1484,1.211 2.3828,0 3.5899,2.3789 5.9727,3.5508 1.1679,2.3789 2.3789,3.5976 3.5586,5.9804 z"
          style="fill:#221e1f;fill-opacity:1;fill-rule:nonzero;stroke:none" id="path38" />
      <path
          d="m 27.4609,110 c 7.1485,0 13.1289,-5.98 13.1289,-13.1211 0,-8.3594 -5.9804,-14.3398 -13.1289,-14.3398 -8.3593,0 -14.3398,5.9804 -14.3398,14.3398 0,7.1411 5.9805,13.1211 14.3398,13.1211 z"
          style="fill:#ec1c24;fill-opacity:1;fill-rule:evenodd;stroke:none" id="path40" />
      <path
          d="m 125.27,47.9688 c 5.98,0 10.75,-4.8086 10.75,-10.7383 0,-5.9805 -4.77,-10.75 -10.75,-10.75 -5.93,0 -10.739,4.7695 -10.739,10.75 0,5.9297 4.809,10.7383 10.739,10.7383 z"
          style="fill:#ec1c24;fill-opacity:1;fill-rule:evenodd;stroke:none" id="path42" />
      <path
          d="m 149.141,47.9688 c 5.98,0 10.738,-4.8086 10.738,-10.7383 0,-5.9805 -4.758,-10.75 -10.738,-10.75 -5.981,0 -10.743,4.7695 -10.743,10.75 0,5.9297 4.762,10.7383 10.743,10.7383 z"
          style="fill:#ec1c24;fill-opacity:1;fill-rule:evenodd;stroke:none" id="path44" />
      <path
          d="m 137.23,27.6602 c 5.93,0 10.739,-4.7696 10.739,-10.75 C 147.969,10.9805 143.16,5 137.23,5 c -5.98,0 -10.75,5.9805 -10.75,11.9102 0,5.9804 4.77,10.75 10.75,10.75 z"
          style="fill:#ec1c24;fill-opacity:1;fill-rule:evenodd;stroke:none" id="path46" />
    </g>
  </g>
</svg>
