<?xml version="1.0" encoding="UTF-8" standalone="no"?><!-- Created with Inkscape (http://www.inkscape.org/) -->

<svg version="1.1" id="svg2" width="32" height="22.666668" viewBox="0 0 32 22.666668"
    sodipodi:docname="taliya_1.eps" xmlns:inkscape="http://www.inkscape.org/namespaces/inkscape"
    xmlns:sodipodi="http://sodipodi.sourceforge.net/DTD/sodipodi-0.dtd"
    xmlns="http://www.w3.org/2000/svg">
  <defs id="defs6" />
  <sodipodi:namedview id="namedview4" pagecolor="#ffffff" bordercolor="#000000" borderopacity="0.25"
      inkscape:showpageshadow="2" inkscape:pageopacity="0.0" inkscape:pagecheckerboard="0"
      inkscape:deskcolor="#d1d1d1" />
  <g id="g8" inkscape:groupmode="layer" inkscape:label="ink_ext_XXXXXX"
      transform="matrix(1.3333333,0,0,-1.3333333,0,22.666667)">
    <g id="g10" transform="scale(0.1)">
      <path
          d="M 20.5508,169.801 C 16.9102,167.422 12.1094,157.77 10.8984,154.141 1.25,136.09 -4.76953,109.609 4.87891,91.5195 20.5508,63.8281 56.6797,68.6289 75.9414,85.5117 c 4.7969,3.5899 8.4375,8.4375 13.2383,12.0274 9.6484,6.0119 10.8593,-2.3789 13.2423,-9.6094 3.629,-10.8594 13.277,-27.7305 22.887,-28.9102 27.703,-2.4179 25.312,63.8325 20.472,79.5005 -1.211,7.218 -3.59,14.449 -8.441,16.832 -3.59,2.418 -7.219,1.207 -9.61,-1.211 -3.628,-1.172 -4.839,-4.801 -3.628,-8.403 1.207,-8.437 8.437,-19.289 9.648,-42.187 1.211,-7.2229 1.211,-15.6213 -1.211,-22.8518 -2.418,-9.6484 -8.437,-8.4297 -13.238,-1.2109 -8.442,10.8203 -13.25,28.9097 -20.4729,32.4997 -6.0195,3.633 -13.2383,-1.207 -16.8789,-4.797 l -7.2187,-6.019 C 48.2383,79.4883 7.30078,89.1016 14.5313,133.672 c 2.3789,15.668 6.0195,18.09 10.8203,28.906 1.207,3.633 0,8.442 -4.8008,7.223 z"
          style="fill:#e40613;fill-opacity:1;fill-rule:evenodd;stroke:none" id="path12" />
      <path
          d="m 173.48,158.98 c -1.179,-1.21 -7.23,-12.07 -9.609,-15.66 -14.461,-31.332 -13.25,-67.4606 24.059,-81.9098 19.3,-7.2305 56.64,-6.0196 46.992,15.6601 -8.442,18.0899 -32.543,-9.6484 -56.602,9.6485 -9.648,7.2304 -13.242,21.6792 -10.859,37.3402 1.211,9.613 4.84,19.261 8.437,27.703 3.633,7.218 0,7.218 -2.418,7.218 z"
          style="fill:#e40613;fill-opacity:1;fill-rule:evenodd;stroke:none" id="path14" />
      <path
          d="m 204.801,122.852 c -9.641,-1.211 -25.27,-6.012 -21.68,-18.082 2.43,-4.8091 8.438,-4.8091 13.25,-2.391 9.649,3.601 18.078,9.609 31.328,7.23 2.422,0 6.012,-1.211 8.43,-1.211 2.391,1.211 3.601,4.801 1.211,7.223 -4.84,4.809 -24.102,7.231 -32.539,7.231 z"
          style="fill:#e40613;fill-opacity:1;fill-rule:evenodd;stroke:none" id="path16" />
      <path
          d="m 92.8086,72.2695 c -7.2188,-1.2187 -16.8672,-9.6484 -30.1094,-9.6484 -4.8086,0 -14.4609,3.6289 -15.6679,0 -3.5899,-9.6523 30.1171,-14.4609 44.5703,-9.6523 15.6684,6.0507 12.0274,21.6796 1.207,19.3007 z"
          style="fill:#e40613;fill-opacity:1;fill-rule:evenodd;stroke:none" id="path18" />
      <path
          d="m 157.852,19.2617 c -9.653,-4.8125 -2.422,-18.05076 6.019,-14.46092 9.609,3.64063 4.801,19.25782 -6.019,14.46092 z m 2.378,-3.6015 c -4.8,-1.211 -2.378,-9.64067 2.43,-7.21879 4.801,1.16797 2.418,9.60939 -2.43,7.21879 z"
          style="fill:#e40613;fill-opacity:1;fill-rule:evenodd;stroke:none" id="path20" />
      <path
          d="m 130.121,13.2383 c 2.418,-4.79689 3.629,-14.44924 7.219,-4.79689 l 2.43,4.79689 c 3.628,-6.00783 2.421,-8.43752 6.011,-8.43752 2.418,2.42969 0,3.64063 -1.211,7.23052 -1.172,2.4179 -2.379,6.0195 -3.59,7.2304 -3.64,0 -4.808,-6.0234 -6.019,-8.4414 -3.633,7.2305 -3.633,15.6602 -9.652,1.211 -1.207,-1.211 -4.797,-9.60942 0,-7.23052 1.211,1.21875 3.64,7.23052 4.812,8.43752 z"
          style="fill:#e40613;fill-opacity:1;fill-rule:evenodd;stroke:none" id="path22" />
      <path
          d="m 177.109,15.6602 c 0,-12.07036 -1.211,-10.85942 6.012,-10.85942 10.859,0 4.809,8.43752 4.809,8.43752 -1.168,3.6015 2.422,7.2305 -9.61,7.2305 -2.422,0 -3.629,-1.2071 -3.629,-2.418 0,-2.3906 1.207,0 2.418,-2.3906 z m 3.59,-8.42973 c 3.641,0 4.852,0 4.852,4.80083 -1.211,0 -1.211,0 -2.43,1.207 1.219,1.2109 1.219,1.2109 0,3.6015 h -2.422 z"
          style="fill:#e40613;fill-opacity:1;fill-rule:evenodd;stroke:none" id="path24" />
      <path
          d="m 228.91,4.80078 h 8.43 v 2.42969 c -3.629,2.37891 -8.43,-1.21094 -8.43,2.37891 0,2.42192 3.59,0 8.43,1.21092 0,4.8399 -3.629,2.418 -6.051,3.6289 -3.59,0 -1.168,-1.2109 -2.379,1.211 0,1.1796 4.801,0 8.43,1.1796 v 2.4219 c -14.449,2.418 -12.07,-2.4219 -12.07,-7.2304 0,-4.80083 -1.211,-7.23052 3.64,-7.23052 z"
          style="fill:#e40613;fill-opacity:1;fill-rule:evenodd;stroke:none" id="path26" />
      <path
          d="m 21.7617,4.80078 c 3.5899,-1.21094 2.3789,0 4.7969,6.01952 l 1.2109,2.418 C 32.5781,7.23047 30.1602,3.58984 35,4.80078 c 0,2.42969 -2.4219,7.23052 -3.6289,12.03902 -3.6016,7.2188 -6.0195,0 -7.2305,-3.6015 -1.2109,-2.418 -3.5898,-6.00783 -2.3789,-8.43752 z"
          style="fill:#e40613;fill-opacity:1;fill-rule:evenodd;stroke:none" id="path28" />
      <path
          d="m 95.1992,4.80078 c 3.6289,0 3.6289,0 4.8398,2.42969 1.211,2.37891 1.211,4.80083 2.383,6.00783 1.207,-1.207 3.629,-8.43752 4.848,-8.43752 6.011,-1.21094 -3.641,14.46092 -3.641,14.46092 -2.379,1.2071 -4.8009,-3.6015 -4.8009,-6.0234 -1.207,-2.418 -3.6289,-6.00783 -3.6289,-8.43752 z"
          style="fill:#e40613;fill-opacity:1;fill-rule:evenodd;stroke:none" id="path30" />
      <path
          d="m 6.08984,16.8398 c 0,-2.3906 -1.21093,-12.03902 1.21094,-12.03902 3.59762,0 2.39063,9.64842 2.39063,12.03902 h 4.83989 v 2.4219 c -2.4219,1.2071 -6.05083,1.2071 -9.65239,1.2071 -2.41797,0 -4.800785,0 -3.62891,-2.418 0,-1.211 2.42188,-1.211 4.83984,-1.211 z"
          style="fill:#e40613;fill-opacity:1;fill-rule:evenodd;stroke:none" id="path32" />
      <path
          d="m 77.1484,19.2617 c -1.207,-2.4219 1.211,-3.6015 2.4219,-6.0234 2.3789,-3.62892 0,-8.43752 2.3789,-8.43752 3.6406,-1.21094 1.211,4.8086 2.4297,7.23052 1.2109,2.4179 4.8008,3.6289 4.8008,7.2304 -3.5899,2.418 -3.5899,-1.2109 -7.2305,-3.6015 0,1.1796 -2.3789,4.8086 -4.8008,3.6015 z"
          style="fill:#e40613;fill-opacity:1;fill-rule:evenodd;stroke:none" id="path34" />
      <path
          d="m 45.8203,19.2617 c -1.2109,-4.8125 -1.2109,-6.0234 -1.2109,-12.03123 0,-3.64063 3.6289,-3.64063 12.0703,-2.42969 1.2109,4.8086 -3.6289,2.42969 -8.4414,3.64063 0,6.00779 1.2109,13.23829 -2.418,10.82029 z"
          style="fill:#e40613;fill-opacity:1;fill-rule:evenodd;stroke:none" id="path36" />
      <path
          d="M 208.441,16.8398 V 4.80078 c 2.379,0 8.399,-1.21094 10.821,0 v 2.42969 c -2.422,1.21094 -4.813,1.21094 -7.231,1.21094 0,8.39839 1.207,12.02739 -3.59,10.82029 z"
          style="fill:#e40613;fill-opacity:1;fill-rule:evenodd;stroke:none" id="path38" />
      <path
          d="m 196.371,16.8398 c 0,-9.60933 -1.211,-13.24996 3.629,-12.03902 0,4.8086 0,9.64842 -1.211,14.46092 -1.211,1.2071 -2.418,0 -2.418,-2.4219 z"
          style="fill:#e40613;fill-opacity:1;fill-rule:evenodd;stroke:none" id="path40" />
      <path
          d="M 63.9102,16.8398 V 7.23047 L 65.1211,4.80078 C 67.5,3.58984 67.5,4.80078 67.5,7.23047 v 9.60933 c 0,3.629 -3.5898,4.8399 -3.5898,0 z"
          style="fill:#e40613;fill-opacity:1;fill-rule:evenodd;stroke:none" id="path42" />
    </g>
  </g>
</svg>
