<?xml version="1.0" encoding="UTF-8"?>
<!DOCTYPE svg PUBLIC "-//W3C//DTD SVG 1.1//EN" "http://www.w3.org/Graphics/SVG/1.1/DTD/svg11.dtd">
<!-- Creator: CorelDRAW -->
<svg xmlns="http://www.w3.org/2000/svg" xml:space="preserve" width="32px" height="22px" version="1.1" style="shape-rendering:geometricPrecision; text-rendering:geometricPrecision; image-rendering:optimizeQuality; fill-rule:evenodd; clip-rule:evenodd"
viewBox="0 0 1.98 1.37"
 xmlns:xlink="http://www.w3.org/1999/xlink"
 xmlns:xodm="http://www.corel.com/coreldraw/odm/2003">
 <defs>
  <style type="text/css">
   <![CDATA[
    .fil0 {fill:#E40613}
   ]]>
  </style>
 </defs>
 <g id="Layer_x0020_1">
  <metadata id="CorelCorpID_0Corel-Layer"/>
  <g id="_2598198045408">
   <path class="fil0" d="M0.17 0c-0.03,0.02 -0.07,0.1 -0.08,0.13 -0.08,0.15 -0.13,0.37 -0.05,0.52 0.13,0.23 0.43,0.19 0.59,0.05 0.04,-0.03 0.07,-0.07 0.11,-0.1 0.08,-0.05 0.09,0.02 0.11,0.08 0.03,0.09 0.11,0.23 0.19,0.24 0.23,0.02 0.21,-0.53 0.17,-0.66 -0.01,-0.06 -0.03,-0.12 -0.07,-0.14 -0.03,-0.02 -0.06,-0.01 -0.08,0.01 -0.03,0.01 -0.04,0.04 -0.03,0.07 0.01,0.07 0.07,0.16 0.08,0.35 0.01,0.06 0.01,0.13 -0.01,0.19 -0.02,0.08 -0.07,0.07 -0.11,0.01 -0.07,-0.09 -0.11,-0.24 -0.17,-0.27 -0.05,-0.03 -0.11,0.01 -0.14,0.04l-0.06 0.05c-0.22,0.18 -0.56,0.1 -0.5,-0.27 0.02,-0.13 0.05,-0.15 0.09,-0.24 0.01,-0.03 0,-0.07 -0.04,-0.06z"/>
   <path class="fil0" d="M1.44 0.09c-0.01,0.01 -0.06,0.1 -0.08,0.13 -0.12,0.26 -0.11,0.56 0.2,0.68 0.16,0.06 0.47,0.05 0.39,-0.13 -0.07,-0.15 -0.27,0.08 -0.47,-0.08 -0.08,-0.06 -0.11,-0.18 -0.09,-0.31 0.01,-0.08 0.04,-0.16 0.07,-0.23 0.03,-0.06 0,-0.06 -0.02,-0.06z"/>
   <path class="fil0" d="M1.7 0.39c-0.08,0.01 -0.21,0.05 -0.18,0.15 0.02,0.04 0.07,0.04 0.11,0.02 0.08,-0.03 0.15,-0.08 0.26,-0.06 0.02,0 0.05,0.01 0.07,0.01 0.02,-0.01 0.03,-0.04 0.01,-0.06 -0.04,-0.04 -0.2,-0.06 -0.27,-0.06z"/>
   <path class="fil0" d="M0.77 0.81c-0.06,0.01 -0.14,0.08 -0.25,0.08 -0.04,0 -0.12,-0.03 -0.13,0 -0.03,0.08 0.25,0.12 0.37,0.08 0.13,-0.05 0.1,-0.18 0.01,-0.16z"/>
   <path class="fil0" d="M1.31 1.25c-0.08,0.04 -0.02,0.15 0.05,0.12 0.08,-0.03 0.04,-0.16 -0.05,-0.12zm0.02 0.03c-0.04,0.01 -0.02,0.08 0.02,0.06 0.04,-0.01 0.02,-0.08 -0.02,-0.06z"/>
   <path class="fil0" d="M1.08 1.3c0.02,0.04 0.03,0.12 0.06,0.04l0.02 -0.04c0.03,0.05 0.02,0.07 0.05,0.07 0.02,-0.02 0,-0.03 -0.01,-0.06 -0.01,-0.02 -0.02,-0.05 -0.03,-0.06 -0.03,0 -0.04,0.05 -0.05,0.07 -0.03,-0.06 -0.03,-0.13 -0.08,-0.01 -0.01,0.01 -0.04,0.08 0,0.06 0.01,-0.01 0.03,-0.06 0.04,-0.07z"/>
   <path class="fil0" d="M1.47 1.28c0,0.1 -0.01,0.09 0.05,0.09 0.09,0 0.04,-0.07 0.04,-0.07 -0.01,-0.03 0.02,-0.06 -0.08,-0.06 -0.02,0 -0.03,0.01 -0.03,0.02 0,0.02 0.01,0 0.02,0.02zm0.03 0.07c0.03,0 0.04,0 0.04,-0.04 -0.01,0 -0.01,0 -0.02,-0.01 0.01,-0.01 0.01,-0.01 0,-0.03l-0.02 0 0 0.08z"/>
   <path class="fil0" d="M1.9 1.37l0.07 0 0 -0.02c-0.03,-0.02 -0.07,0.01 -0.07,-0.02 0,-0.02 0.03,0 0.07,-0.01 0,-0.04 -0.03,-0.02 -0.05,-0.03 -0.03,0 -0.01,0.01 -0.02,-0.01 0,-0.01 0.04,0 0.07,-0.01l0 -0.02c-0.12,-0.02 -0.1,0.02 -0.1,0.06 0,0.04 -0.01,0.06 0.03,0.06z"/>
   <path class="fil0" d="M0.18 1.37c0.03,0.01 0.02,0 0.04,-0.05l0.01 -0.02c0.04,0.05 0.02,0.08 0.06,0.07 0,-0.02 -0.02,-0.06 -0.03,-0.1 -0.03,-0.06 -0.05,0 -0.06,0.03 -0.01,0.02 -0.03,0.05 -0.02,0.07z"/>
   <path class="fil0" d="M0.79 1.37c0.03,0 0.03,0 0.04,-0.02 0.01,-0.02 0.01,-0.04 0.02,-0.05 0.01,0.01 0.03,0.07 0.04,0.07 0.05,0.01 -0.03,-0.12 -0.03,-0.12 -0.02,-0.01 -0.04,0.03 -0.04,0.05 -0.01,0.02 -0.03,0.05 -0.03,0.07z"/>
   <path class="fil0" d="M0.05 1.27c0,0.02 -0.01,0.1 0.01,0.1 0.03,0 0.02,-0.08 0.02,-0.1l0.04 0 0 -0.02c-0.02,-0.01 -0.05,-0.01 -0.08,-0.01 -0.02,0 -0.04,0 -0.03,0.02 0,0.01 0.02,0.01 0.04,0.01z"/>
   <path class="fil0" d="M0.64 1.25c-0.01,0.02 0.01,0.03 0.02,0.05 0.02,0.03 0,0.07 0.02,0.07 0.03,0.01 0.01,-0.04 0.02,-0.06 0.01,-0.02 0.04,-0.03 0.04,-0.06 -0.03,-0.02 -0.03,0.01 -0.06,0.03 0,-0.01 -0.02,-0.04 -0.04,-0.03z"/>
   <path class="fil0" d="M0.38 1.25c-0.01,0.04 -0.01,0.05 -0.01,0.1 0,0.03 0.03,0.03 0.1,0.02 0.01,-0.04 -0.03,-0.02 -0.07,-0.03 0,-0.05 0.01,-0.11 -0.02,-0.09z"/>
   <path class="fil0" d="M1.73 1.27l0 0.1c0.02,0 0.07,0.01 0.09,0l0 -0.02c-0.02,-0.01 -0.04,-0.01 -0.06,-0.01 0,-0.07 0.01,-0.1 -0.03,-0.09l0 0.02z"/>
   <path class="fil0" d="M1.63 1.27c0,0.08 -0.01,0.11 0.03,0.1 0,-0.04 0,-0.08 -0.01,-0.12 -0.01,-0.01 -0.02,0 -0.02,0.02z"/>
   <path class="fil0" d="M0.53 1.27l0 0.08 0.01 0.02c0.02,0.01 0.02,0 0.02,-0.02l0 -0.08c0,-0.03 -0.03,-0.04 -0.03,0z"/>
  </g>
 </g>
</svg>
