<?xml version="1.0" encoding="UTF-8" standalone="no"?><!-- Created with Inkscape (http://www.inkscape.org/) -->

<svg version="1.1" id="svg2" width="32" height="32" viewBox="0 0 32 32"
    sodipodi:docname="telekish_1.eps" xmlns:inkscape="http://www.inkscape.org/namespaces/inkscape"
    xmlns:sodipodi="http://sodipodi.sourceforge.net/DTD/sodipodi-0.dtd"
    xmlns="http://www.w3.org/2000/svg">
  <defs id="defs6" />
  <sodipodi:namedview id="namedview4" pagecolor="#ffffff" bordercolor="#000000" borderopacity="0.25"
      inkscape:showpageshadow="2" inkscape:pageopacity="0.0" inkscape:pagecheckerboard="0"
      inkscape:deskcolor="#d1d1d1" />
  <g id="g8" inkscape:groupmode="layer" inkscape:label="ink_ext_XXXXXX"
      transform="matrix(1.3333333,0,0,-1.3333333,0,32)">
    <g id="g10" transform="scale(0.1)">
      <path
          d="m 118.051,62.0703 c 0,-10.5117 -1.102,-7.7305 3.32,-12.7305 h 0.578 c 0.551,-0.5507 1.102,-1.1406 1.641,-1.6796 0,-0.5508 0,-0.5508 0.551,-0.5508 v -0.5508 l 7.769,-7.2188 c 0,-0.5507 0,-0.5507 0,-0.5507 l 6.641,-6.0899 c 1.14,-1.0976 1.14,-1.6484 1.14,-3.3203 0,-3.3281 -3.91,-2.2305 -6.101,-2.2305 -0.578,0 -0.578,-0.5468 -1.68,-0.5468 -1.09,0 -3.32,0 -4.41,0.5468 -7.23,0.5508 -13.871,-2.1875 -13.871,3.3204 l -0.539,10.5507 c 0,1.0899 0.539,2.2188 0,2.2188 -1.141,0 -2.231,-0.5391 -3.36,-1.1289 l -2.742,-2.1875 -2.218,-1.1328 v -9.961 c -1.68,-0.5468 -0.551,-2.2265 -5.0005,-2.2265 l -6.0976,0.5468 c -3.3203,0 -6.6406,-1.0976 -7.7735,1.6797 -0.5468,1.0938 -0.5468,10.5117 -0.5468,12.7305 0,2.7812 -0.5508,1.6797 -2.7735,0.5508 l -2.7773,-1.6406 -1.0899,-0.5469 c -2.2304,-1.1328 -2.2304,-1.1328 -2.2304,-3.9024 0,-1.0976 0,-2.1914 0,-3.3203 0.5508,-2.2304 0.5508,-3.3203 -1.0899,-5 -1.6797,-1.6484 -7.2304,-1.0976 -8.3203,0 l -0.5508,1.1289 c -0.539,1.0938 0,4.4102 -0.539,5.5508 0,1.0899 0.539,2.7695 0.539,4.4102 0,1.6797 -0.539,2.7695 -0.539,4.4492 -1.6797,0 -2.2305,-1.1289 -4.461,-2.2188 l -4.4101,-2.2304 c 0.5508,-3.3203 0,-5.5508 0,-8.8672 0,-1.0938 0,-1.6406 -1.1289,-2.2227 -1.6407,-1.0976 -7.7813,-1.0976 -8.8711,-0.5508 -0.5508,0.5508 -1.0899,1.1329 -1.0899,1.6797 -0.5507,1.0938 0,11.6407 0,13.8711 0,0.5391 -0.5507,0.5391 -1.1406,0.5391 -0.5391,0 -1.6406,-0.5391 -2.1797,-1.1289 l -2.2304,-1.0899 -0.5469,-0.5507 -2.7735,-1.6797 c 0,0 0,0 -0.5898,0 0,-1.6407 0,-2.2305 0.5898,-3.3203 0,-1.0899 -0.5898,-1.6407 -0.5898,-3.3204 V 16.0508 15.5117 c 0,-1.1015 0,-0.5508 0,-1.1015 l -1.0898,-1.6797 c -0.5469,-1.0899 -1.6407,-1.6407 -2.7696,-2.1797 0,0 0,0 -0.5508,-0.58986 -0.5468,0 0.5508,0 -0.5468,-0.55078 -0.5508,0 -0.5508,0 -1.1328,0 -1.6407,-0.53907 -7.1875,-0.53907 -9.9571,-0.53907 -2.7812,0 -3.8711,0 -6.1015,1.08985 -2.7696,1.12886 -3.8594,2.76956 -4.44926,5.55076 -0.55078,1.6797 -0.55078,14.4102 -0.55078,16.6367 0,3.3204 -0.53907,6.6407 0,9.961 0,1.1289 0.55078,2.2304 -1.08985,1.1289 L 6.08984,41.5586 c -0.53906,0 0,0 -0.53906,0 L 1.08984,38.7891 c -0.539059,0 0,0 -0.539059,0 C 0,38.2383 0.550781,38.2383 0,38.2383 v -0.5391 c 0.550781,-0.5508 0.550781,-1.1406 0.550781,-1.6797 0,-0.5507 0,-1.6406 0,-2.1914 C 0.550781,32.6992 0,32.1484 0,31.0508 V 17.7305 c 0,-0.5391 0,0 0.550781,-0.5391 0.539059,-1.1406 0,-3.8711 1.128909,-6.1016 L 5,6.08984 8.32031,2.76953 11.0898,1.08984 h 0.5508 1.0899 c 1.1406,-0.539059 1.1406,-0.539059 1.6797,-0.539059 2.7812,-0.550781 5.5507,0 7.7812,0 C 26.6016,0 31.0508,0 34.9219,1.08984 c 2.7773,1.67969 5,3.35938 7.1875,5.55079 l 1.1289,1.67968 2.7812,7.19139 c 0,2.2188 -1.1406,5.5391 1.0899,3.8985 l 2.2304,-1.1289 c 1.6407,-1.0899 5,-0.5508 7.7696,-0.5508 1.6406,0 3.8711,0.5508 4.9609,2.2304 1.1289,1.0899 0.5508,1.6407 1.6797,1.6407 0.5508,0 1.0898,-2.1914 3.3203,-3.3203 2.7695,-1.0899 6.0899,-0.5508 9.4102,-0.5508 2.2304,0 2.2304,0.5508 3.8711,0.5508 1.1289,0.5468 2.7695,2.2304 2.7695,3.3203 3.3594,0 0.5898,-0.5508 3.3594,-2.7735 1.0976,-0.5468 2.7383,-1.0976 3.8711,-1.0976 2.2265,0 12.1874,-0.5391 14.4184,0.5508 0.539,0.5468 0,0 0.539,0 1.101,0.5468 2.23,1.6796 2.781,2.7695 0.539,0.5508 0,0.5508 1.09,1.1406 0.55,-0.5898 0,-0.5898 0.55,-1.1406 h 0.579 v -0.5391 c 0.55,-0.5508 0.55,-1.1015 1.101,-1.6836 2.219,-1.6367 6.641,-1.0976 9.41,-1.0976 2.231,0 7.231,0 9.45,0 3.32,0.5508 9.421,-1.0899 13.832,1.6797 0,0.5507 0.546,0.5507 0.546,0.5507 l 2.774,2.7696 c 0.59,1.0976 1.68,2.7812 1.68,4.4179 0.546,2.7735 1.097,2.7735 -0.551,6.6797 l -1.672,2.7305 c -0.551,1.1406 -1.098,2.2305 -2.231,2.7812 l -0.546,0.5821 -0.551,0.5469 -11.09,11.0898 c -1.09,1.1016 -1.09,1.1016 -2.77,2.7812 h -0.55 l -0.551,1.0899 c -0.539,0 -0.539,0 -0.539,0.5508 -0.551,0 -0.551,0.539 -1.141,1.1289 0.59,0 1.141,0.5508 1.68,0.5508 0,0.539 0.551,0.539 0.551,0.539 l 3.32,1.1016 c 0,0.539 0,0.539 0.551,0.539 l 5.539,2.2305 c 0.59,0 0.59,0 1.14,0 l 4.411,2.2305 c 1.128,0.539 1.679,0 1.679,1.0898 0.547,1.1289 0,6.0899 0,8.3203 -2.23,0 -1.133,0 -2.769,-0.5507 -0.551,0 -0.551,0 -0.551,0 -0.582,0 -0.582,-0.5391 -1.133,-0.5391 -0.547,0 -0.547,0 -1.098,0 l -3.32,-1.6797 c -0.539,0 0,0 -0.539,-0.5508 l -8.32,-2.7695 c -1.141,-0.5508 -1.68,-1.6406 -2.781,-1.6406 l -3.321,-1.6797 c -1.129,0 -3.898,-1.1016 -3.898,-2.2305 z"
          style="fill:#17b7a6;fill-opacity:1;fill-rule:evenodd;stroke:none" id="path12" />
      <path
          d="m 49.3398,177.379 c 0,-1.68 2.7696,0 3.3204,0.551 l 6.6406,3.871 c 1.1289,0 1.6797,0.539 2.7695,0.539 2.2305,0 0.5508,-1.09 -0.5508,-1.641 l -3.3203,-3.898 c 0,0 -0.539,0 -0.539,-0.551 l -5.5508,-7.191 c -0.5508,-0.539 -2.2305,-2.77 -2.2305,-3.899 0,-0.551 0,0 0,-0.551 0.5508,0 2.2305,1.68 2.7813,2.231 h 0.539 c 0,0.539 0,0.539 0,0.539 l 1.6797,1.68 c 1.1016,0.55 0.5508,0.55 1.1016,1.101 l 2.7695,2.219 c 3.3203,2.781 6.6406,5.551 9.9609,7.781 l 12.2305,6.641 c 0.5391,0.539 0.5391,0.539 1.0899,0.539 0.5468,0 0,0 0.5468,0.551 1.1328,0 1.6836,1.129 2.2227,1.129 l 3.8711,1.101 c 1.6797,0.539 0.5469,0.539 2.2265,0.539 1.6797,0 2.2227,0.551 3.8711,0.551 2.2188,-0.551 6.6795,0 10.5395,-0.551 1.101,0 1.679,0 2.781,-0.539 l 3.859,-0.551 c 0.551,0 0.551,-0.55 1.141,-0.55 0.539,0 1.09,0 1.64,0 0.54,0 0,0 0.54,-0.579 0.589,0 0,0 0.589,0 0,0 0,0 0.551,0 l 9.41,-4.421 c 0.551,-0.54 0,0 1.09,-0.54 0,-0.589 0.59,-0.589 0.59,-1.14 l 5.512,-2.77 3.898,-2.191 c 0.551,-0.578 0.551,-0.578 0.551,-0.578 l 6.641,-3.871 c 0,0 0,0 0.546,-0.551 l 11.09,-5.539 c 0.551,0 1.141,0 1.141,0 0.543,-0.551 0.543,-0.551 1.641,-0.551 1.128,0 1.128,-0.551 2.218,-0.551 1.641,-0.578 1.102,-0.578 2.782,-1.129 6.089,-1.089 8.32,-2.23 16.05,-1.089 1.129,0 2.77,0.539 4.45,0.539 l 3.871,1.101 c 1.129,0.578 0,0 1.679,0.578 2.231,0 2.231,1.641 1.09,1.641 -1.09,0 -1.64,0 -2.769,0 l -11.09,0.551 c -0.551,0 -1.102,0 -2.192,0.59 -1.679,0 -1.129,0 -2.23,0.539 -1.09,0 -2.219,-0.539 -2.77,0 -0.55,0 -0.55,0.55 -1.089,0.55 -0.59,0.551 -1.141,0 -1.68,0.551 -0.551,0.539 0,0 -0.551,0 l -0.551,0.539 c -1.129,0 -0.578,0 -1.679,0.59 -1.09,0 -0.539,-0.59 -1.09,0 l -4.449,2.191 c 0,0 0,0 -0.551,0 l -1.09,1.129 c -0.59,0 0,0 -0.59,0 0,0 0,0 0,0.551 h -1.09 l -1.679,1.09 c 0,0 -0.551,0 -0.551,0.551 -0.547,0 -0.547,0 -1.09,0.578 l -5.551,2.781 c 0,0 0,0 0,0.539 h -0.547 c -1.679,1.102 -3.32,2.192 -5,3.321 l -1.64,1.101 c -2.231,1.68 -4.45,2.77 -6.68,4.449 l -1.641,1.09 h -0.55 l -2.77,1.68 -1.129,0.551 v 0.55 h -0.551 -0.55 l -1.129,0.539 c 0,0 0,0 0,0.551 -0.551,0 -1.09,0 -1.09,0.59 1.09,0.539 9.961,0.539 11.64,0.539 l 3.86,-1.129 c 0.59,0 1.14,0 1.679,0 1.098,0 1.098,-0.551 2.231,-0.551 1.641,0 1.641,-0.539 3.32,-0.539 0.547,0 1.641,0 2.231,-0.55 0.539,0 1.09,-0.551 1.636,-0.551 1.68,0 1.133,0.551 2.231,0 0.543,-0.539 0,-0.539 0.543,-0.539 2.777,-0.59 6.098,-1.68 8.316,-2.231 2.231,-0.55 8.871,-3.32 10.551,-3.32 1.09,-0.59 0.551,0 1.641,-0.59 l 1.09,-0.539 c 0.589,-0.551 0.589,-0.551 1.14,-0.551 l 5,-2.23 c 1.641,-0.539 2.731,-0.539 3.86,-1.09 1.64,-1.09 2.781,-1.68 3.871,-2.23 1.679,0 2.23,-1.09 3.32,-0.54 0,1.68 -3.32,3.321 -4.41,4.411 -0.551,0.589 -1.141,0.589 -1.68,1.129 -0.551,0 -1.101,0.55 -1.641,1.101 l -6.679,3.899 h -0.551 l -8.32,4.421 c 0,0.539 0,0.539 -0.551,0.539 l -0.539,0.551 c -0.551,0 -1.102,0 -1.102,0 l -0.578,0.59 h -0.551 l -1.089,0.539 c -0.551,0 0,0 -0.551,0 l -1.129,0.551 c -0.551,0.551 -1.102,0.551 -2.192,1.09 l -6.128,2.23 c -0.551,0.547 -1.098,0 -1.641,0.547 -0.551,0 0,0 -0.551,0.582 -0.547,0 -1.129,0 -1.68,0 l -4.418,1.102 c -1.128,0.539 -1.128,0 -2.218,0.539 -1.133,0.551 -1.133,0.551 -2.782,0.551 -1.089,0 -1.089,0 -2.218,0.589 -1.102,0 -1.641,0 -2.782,0 -1.089,0 -1.089,0.539 -2.218,0.539 -3.871,0 -6.641,0.551 -9.961,0.551 -2.231,0 -3.871,0 -6.102,0 -2.769,-0.551 -3.32,-0.551 -5.539,-1.09 -1.101,0 -2.781,0 -3.871,-0.589 -0.551,0 -0.551,0 -1.68,0 -1.089,0 -1.089,0 -2.23,-0.551 -1.09,-0.539 -2.18,-0.539 -2.77,-0.539 -1.6402,-0.551 -0.55,-0.551 -2.7379,-0.551 -1.6719,0 -1.1328,-0.551 -2.2227,-0.551 -0.5468,0 -1.1289,0 -1.6796,-0.582 l -6.0977,-1.637 c -0.543,0 0,0 -1.0898,0 -0.5508,-0.55 -0.5508,-0.55 -1.1329,-0.55 -1.0976,-0.59 -2.1875,-0.59 -3.3203,-1.129 l -2.2265,-1.102 c -0.5508,-0.539 -0.5508,0 -1.0899,-0.539 l -2.2304,-1.141 c -0.5508,0 0,0 -0.5508,0 l -6.0899,-2.769 c -0.5508,0 -0.5508,0 -1.0898,-0.551 -0.5899,0 -0.5899,0 -1.1406,0 l -7.7305,-4.41 c -1.1289,-1.129 -2.7695,-1.68 -3.9102,-2.77 l -0.539,-0.589 c -1.1016,-1.09 -2.2305,-1.09 -3.3203,-2.192 -0.5508,-0.539 -1.1016,-1.129 -1.6797,-1.129 -0.5508,-0.55 -1.6407,-1.09 -1.6407,-2.191 z"
          style="fill:#17b7a6;fill-opacity:1;fill-rule:evenodd;stroke:none" id="path14" />
      <path
          d="m 59.8398,130.27 c 0,-1.129 1.6797,-1.129 2.7813,0 0.5781,1.101 0,0.55 1.1289,1.101 v 0.539 h 0.5508 c 0,0 0,0 0.539,0.551 l 5.5508,4.449 c 0.5508,0 0.5508,0 1.0899,0.551 l 0.5898,0.551 0.5508,0.539 c 1.0898,1.14 2.7695,1.679 4.4102,2.777 l 11.6406,6.684 c 0,0 0,0 0.5469,0 l 2.7695,1.09 c 0.5898,0.546 1.1328,0.546 1.6836,0.546 2.2265,0.551 1.0976,0 2.7773,0.551 5.5388,1.129 9.9608,1.68 15.4998,0 l 2.781,-0.551 c 0,0 0,0 0.54,0 2.23,-0.546 0.589,-0.546 1.679,-0.546 0.551,-0.551 0.551,-0.551 1.102,-0.551 0.578,0 0,0 0.578,0 l 3.32,-1.672 c 1.641,-1.098 6.102,-3.328 7.192,-4.418 0.55,-0.582 0.55,-0.582 0.55,-1.133 -6.101,0 -4.961,1.133 -14.421,0 -1.641,-0.547 -4.411,-0.547 -6.09,-1.098 -1.641,-0.539 -1.09,0 -3.871,-1.089 -1.09,-0.59 -1.09,0 -2.219,-0.59 l -2.231,-0.539 c -1.0895,0 -1.0895,0 -1.6402,-0.551 -2.7696,-0.551 -2.2305,-0.551 -4.4493,-1.09 l -6.0976,-2.23 c 0,0 0,0 -0.5508,0 v -0.551 l -2.2227,-0.578 c -0.5468,0 -0.5468,-0.551 -0.5468,-0.551 l -5,-2.191 c -3.8711,-2.219 -8.2813,-5.54 -12.1914,-8.321 l -0.5391,-0.578 c -0.5508,-0.551 -0.5508,-0.551 0,-1.641 1.0898,0 0.5391,0 1.6797,0 l 11.0508,5 c 1.6797,0 -0.5508,-0.589 0.5898,0 l 1.0899,0.54 c 1.0898,0 0.5468,-0.54 1.6796,0.55 1.0899,0.551 0,0 1.6407,0.551 0.5468,0 0.5468,0 1.1289,0.539 l 6.0976,1.68 c 1.0938,0 0.543,0.551 2.1914,0.551 1.6797,0 2.2188,0.55 3.3516,0.55 1.6484,0 2.1879,0.579 3.3279,0.579 l 7.18,1.101 c 1.68,0 1.68,0.539 3.32,0.539 2.231,0 2.231,0.551 3.91,0.551 2.77,0 0.551,0 3.871,0 1.09,0 2.219,0 3.86,0 l 18.871,-1.641 c 1.641,-0.55 2.769,0 6.641,-1.679 1.679,-0.551 1.679,0 3.32,-0.551 0.547,0 1.098,-0.539 1.68,-0.539 l 13.828,-5 h 0.59 l 1.64,-1.102 c 2.219,-1.129 1.68,-1.129 3.32,-1.129 0,0.551 0.54,1.129 0.54,1.68 0,0.551 -0.54,0.551 -0.54,0.551 l -0.55,0.539 c -1.641,1.68 -3.321,2.781 -5,3.91 -1.09,0.551 -0.551,0 -0.551,1.09 h 2.781 c 0.539,0 0.539,0 1.129,0.551 1.09,0 1.641,0 2.191,0 h 1.68 c 0.539,0.55 0.539,0.55 1.641,0.55 0.578,0 1.129,0 1.129,0 1.09,0.579 2.23,1.129 3.32,1.68 0.551,0.539 0,0.539 0,1.09 -2.23,0 -4.449,-0.551 -7.23,-0.551 -1.09,0 -1.09,0.551 -2.18,0.551 -1.141,0 -2.231,0 -2.781,0 -1.129,0.551 -1.68,0.551 -2.77,0.551 -1.68,0.578 -1.129,0.578 -2.23,1.129 -1.68,0 -2.77,0.55 -3.86,1.089 -0.551,0 -0.551,0 -1.14,0 l -3.321,1.68 c -1.09,0.551 0.551,0 -0.539,0 l -1.097,0.551 c 0,0.551 0,0 -0.582,0.551 l -1.641,0.539 c 0,0.59 -0.551,0.59 -1.098,0.59 l -1.133,0.55 v 0.539 l -2.769,1.649 c -0.551,0 -0.551,0 -0.551,0 l -2.226,1.672 c 0,0 -0.551,0 -1.09,0.551 l -3.871,2.226 c -0.59,0 -0.59,0 -0.59,0.551 -0.539,0 -0.539,0 -1.09,0.543 l -2.231,1.68 c -0.539,0 -0.539,0 -0.539,0 l -1.101,0.546 c 0,0 0,0 0,0.551 -0.578,0 -0.578,0 -0.578,0 -2.192,1.129 -4.422,2.77 -6.641,3.321 l -4.422,2.218 c -1.129,0.551 -1.679,0.551 -2.219,1.141 -1.101,0 -1.101,0.543 -3.32,1.09 -0.551,0 -0.551,0 -1.14,0 -1.09,0.551 -0.54,0.551 -1.09,0.551 -0.551,0 -1.09,0 -1.68,0.539 -3.32,1.14 -6.641,1.14 -10.512,1.14 -2.2185,0 -3.8669,-0.551 -5.5388,-0.551 -1.0976,-0.589 -1.0976,-0.589 -1.6797,-1.128 -1.0976,0 -0.5507,0.539 -1.6484,0 l -2.7695,-1.098 h -0.5508 l -6.0899,-3.32 c -0.5898,0 -1.1328,-0.582 -1.6796,-0.582 l -0.5508,-0.551 c -1.6797,-1.09 -3.3203,-2.188 -4.4492,-3.321 l -6.6407,-6.636 c -0.5508,-0.551 -0.5508,-0.551 -1.0898,-1.133 -0.5899,-0.551 -1.1406,-0.551 -1.6797,-1.098 -1.1016,-1.09 -4.4219,-5.551 -5.5508,-7.191 0,-0.578 0,0 0,-0.578 -1.0898,-0.551 -2.2305,-1.641 -2.2305,-2.742 z"
          style="fill:#17b7a6;fill-opacity:1;fill-rule:evenodd;stroke:none" id="path16" />
      <path
          d="m 160.738,29.9219 v 2.7773 c 0.551,1.1289 0.551,0.5391 1.102,1.1289 l 4.449,6.0938 c 0.551,0.5469 0,0.5469 1.09,0.5469 0.551,0 0,0 1.141,-0.5469 1.089,-1.6836 3.32,-3.9024 4.41,-5.543 l 1.09,-2.2305 c 0,-3.3203 0,-2.7695 -1.09,-5 -0.551,-1.0976 -1.09,-0.5468 -1.641,-1.6367 -1.129,-0.5508 -1.129,-1.6836 -4.449,-1.1328 -0.551,0 -1.102,0 -1.68,0 -1.101,0.582 0,0.582 -1.101,1.1328 -0.539,0 -0.539,-0.5508 -1.09,0 -0.59,0.5391 -1.129,1.6367 -1.68,2.1875 z m 37.153,-3.3203 -3.36,0.5468 c -0.551,0.5508 0,0.5508 -1.09,0.5508 0,0.5821 -0.55,0.5821 -1.101,1.1289 l -6.68,6.6407 c -0.539,0.5507 -1.09,0.5507 -1.09,0.5507 -0.55,0.5391 -0.55,0.5391 -0.55,0.5391 l -5.54,5.5508 c -0.55,1.1289 -1.101,1.1289 -2.23,2.2304 l -4.961,5.5391 c -1.129,0.5508 -1.68,1.1016 -2.23,1.6797 -1.68,2.1914 -3.899,3.3203 -3.899,4.4219 -1.64,0 -1.64,-1.1016 -2.191,-1.6407 l -2.231,-1.6796 c 0,-0.5508 0,-0.5508 -0.539,-1.1016 h -0.551 c 0,-0.5781 0,-0.5781 0,-0.5781 -1.679,-1.6407 0.551,-2.1914 1.09,-3.3203 l -2.769,-3.3204 c -2.231,-2.7812 -1.09,-2.2304 -2.231,-3.871 l -2.218,-3.9102 c 0,-1.0898 0,0 -0.551,-2.7305 -0.547,-2.7773 -1.641,-1.1289 0,-6.6797 l 1.679,-3.8671 c 1.09,-1.6797 2.231,-2.7696 3.872,-3.8711 0,0 0.539,-0.5821 1.128,-0.5821 1.641,-1.0976 4.961,-2.1875 6.641,-2.1875 3.32,0 2.77,0 5.551,0.5508 0.539,0 0.539,0 1.09,0.5391 2.23,0.5508 4.449,2.2304 6.09,3.8711 l 2.23,3.3593 c 0,0.5508 0,1.0899 0,1.0899 1.09,0 1.641,-0.5391 2.23,-1.0899 1.09,-1.6796 4.411,-5 6.09,-5.5507 l 0.551,-0.5821 c 2.77,-1.0976 14.41,-1.0976 17.18,-1.0976 1.097,0 4.418,2.2304 5,4.4609 h 0.551 c 0.546,-2.2305 2.187,-3.9101 4.957,-4.4609 0.589,0 1.679,0.5508 2.781,0.5508 l 12.769,-0.5508 c 1.09,0 1.641,1.0976 1.641,2.2304 l 3.91,5.5508 c 0,0.5391 0,0 0,1.0899 0,0.5468 -1.14,0.5468 -1.68,0.5468 h -6.64 c -1.141,0 -1.141,-0.5468 -2.231,-0.5468 -1.679,0 -2.769,0 -4.41,0 -1.14,0 -1.679,0.5468 -2.23,0.5468 -2.231,0 -4.449,-1.0976 -6.098,1.6797 -1.133,1.0938 -1.133,2.7735 -1.133,4.4102 v 34.9219 c -0.539,0 -1.636,0 -2.187,-0.5391 l -2.223,-1.1016 c 0,0 0,0 0,-0.539 l -2.226,-1.1407 c -0.551,-0.539 0.546,0.5508 0,0 -2.774,-1.6406 -2.231,-2.7695 -2.231,-9.4101 V 33.8281 c 0,-6.6797 -1.641,-7.2265 -7.73,-7.2265 z"
          style="fill:#17b7a6;fill-opacity:1;fill-rule:evenodd;stroke:none" id="path18" />
      <path
          d="m 111.949,216.719 c -0.539,0 -1.09,-0.547 -2.219,-0.547 -0.55,0 -1.64,0 -2.742,0 -1.129,0 -1.129,-0.551 -1.679,-0.551 -1.09,-0.582 -1.68,0 -2.77,0 -1.09,-0.582 -1.09,-0.582 -1.68,-1.133 -1.0895,0 -1.6402,0.551 -2.7379,0 -1.1328,-0.539 -2.2227,-0.539 -2.7695,-0.539 -1.1328,-0.551 -0.5821,-0.551 -1.1328,-0.551 -1.0977,-0.546 -1.0977,0 -2.2305,-0.546 l -9.957,-3.321 c -1.0899,-0.582 -0.5508,0 -2.2305,-1.133 -0.5391,0 -0.5391,0 -0.5391,0 h -0.5508 l -2.2304,-1.097 h -0.5391 c 0,-0.539 0.5391,0 0,-0.539 h -0.5508 l -7.7695,-3.91 h -0.5508 l -1.0898,-1.09 -0.5899,-0.551 c -1.0898,0 -0.5508,0 -1.0898,0 l -9.4219,-6.68 c -1.1289,-0.551 -2.7695,-1.09 -2.7695,-2.73 0,-1.141 1.0898,-1.68 2.2304,-1.68 0,0 1.0899,0.539 1.0899,1.09 l 3.8711,1.68 c 0,0 0,0 0.539,0 l 3.3594,1.64 c 0,0 0,0 0.5508,0 l 4.4102,2.231 c 0.5507,0 0.5507,0 1.1406,0 l 2.1797,1.129 c 0,0 0,0 0.5898,0 l 3.3203,1.64 3.3203,0.547 c 1.0899,0.582 1.0899,0.582 2.7696,1.133 0.5508,0 0,0 0.5508,0.551 1.0898,0 0.5468,0 1.6796,0 1.0899,0 0.5508,0.539 1.6407,0.539 1.1289,0.551 0.5468,0 1.6797,0.551 1.0898,0.589 2.1875,0.589 3.3203,1.128 1.0976,0 1.0976,0 2.2265,0 1.6407,0 0.543,0.551 1.6407,0.551 0.5507,0.547 1.1328,0 1.6796,0 1.0899,0.547 1.0899,0.547 1.6407,0.547 1.1328,0.543 1.6797,0 2.2304,0.543 1.0895,0 2.7695,0.551 3.8595,0.551 0.59,0 2.23,0 3.359,0.59 2.192,0.539 5.512,0 7.742,0 2.219,0 2.77,0.539 3.899,0.539 h 4.961 c 0.551,0 0.551,-0.539 3.91,-0.539 2.191,0 4.961,0.539 7.191,0 1.68,-0.59 3.86,0 5,-0.59 1.09,-0.551 2.188,-0.551 3.321,-0.551 1.636,-0.543 2.218,-1.09 3.316,-1.09 1.684,0 1.094,0 1.684,0 1.636,-0.551 2.187,0 3.316,-1.09 0.551,0 1.094,0 1.641,0 l 1.679,-0.589 c 1.09,-0.551 0,-0.551 1.641,-0.551 1.68,0 0.59,0 1.68,-0.539 0.551,0 -0.547,0 0.551,0 1.679,0 1.128,-0.551 2.218,-0.551 0.551,0 0.551,0 1.102,-0.551 1.129,0 0.539,0 1.68,-0.582 l 3.32,-1.098 h 1.09 c 1.129,-0.539 0.59,0 1.129,-0.539 0.55,-0.55 0.55,0 0.55,-0.55 h 1.09 c 0,0 0,0 0,-0.59 0.59,0 0.59,0 0.59,0 0.551,0 0.551,0 1.09,0 l 10.512,-4.961 c 1.679,-0.539 4.449,-2.219 4.449,0.551 0,1.089 -6.641,5.55 -7.77,6.089 l -11.05,6.098 c -1.68,1.094 -3.911,2.223 -5.551,2.774 -1.68,0.546 -2.77,1.097 -4.449,1.679 l -2.782,1.09 c -0.539,0.551 -1.09,0.551 -2.218,1.098 -0.551,0 -1.098,0 -2.192,0.582 l -2.226,0.551 c -0.551,0.546 0.546,0 -1.09,0.546 -1.684,0 -1.684,0.551 -3.364,0.551 -1.636,0 -1.097,0.539 -3.867,0.539 -1.09,0 -0.551,0.551 -1.64,1.133 -1.129,0 -2.231,-0.582 -2.77,0 -1.141,0 -0.59,0.551 -2.23,0.551 -4.45,0 -6.09,0.547 -10.551,0.547 h -9.961 c -2.219,-0.547 -0.539,0 -1.68,0 z"
          style="fill:#fd9802;fill-opacity:1;fill-rule:evenodd;stroke:none" id="path20" />
      <path
          d="m 67.0703,157.969 c -1.6797,0 -2.2305,-2.231 -3.8711,-3.321 -0.5781,-0.546 -1.1289,-1.128 -1.6797,-1.679 l -5,-5.547 c -1.0898,-1.641 -2.1797,-2.774 -2.7695,-4.41 1.1289,-2.782 1.6797,-1.133 4.4492,1.09 0.5508,0 0.5508,0.546 1.1016,0.546 l 2.2187,2.231 c 1.6797,1.133 2.7813,2.223 4.461,3.32 l 2.1797,1.68 c 0.5507,0 0.5507,0 1.1406,0.543 l 1.0898,1.098 c 1.0899,0.582 1.6797,1.128 2.7696,1.679 l 9.9609,6.09 c 1.6797,1.09 3.3594,1.68 4.457,2.231 l 2.7735,1.089 c 0.5468,0 0.5468,0 1.6367,0 2.2305,0.551 3.3633,1.129 5.5508,1.129 1.6797,0 3.9099,0.551 5.5509,0 1.68,0 2.219,0 3.898,-0.578 l 2.742,-0.551 c 0.579,0 0,0 1.129,-0.55 1.641,-0.539 3.321,-0.539 4.411,-1.09 1.14,-0.59 2.781,-0.59 3.91,-1.129 l 2.769,-1.102 c 0,-0.539 0,0 0.551,-0.539 l 5,-2.23 c 1.641,-1.09 3.871,-2.231 6.09,-3.321 l 7.191,-3.867 c 0.547,-0.582 0,-0.582 1.098,-0.582 l 11.641,-6.097 c 1.128,0 0,0 0.582,0 l 3.867,-1.09 c 1.679,-0.551 2.23,-1.133 4.41,-1.684 1.68,0 1.141,-0.547 2.781,-0.547 2.77,-0.551 4.449,-1.09 8.32,-1.09 2.219,0 5,0 7.219,0.539 l 6.102,1.649 c 0.539,0 0.539,0 0.539,1.133 0,1.636 -6.641,0.539 -8.32,1.09 -1.641,0 -2.77,0 -4.411,0 -1.679,0.546 -2.23,1.128 -3.91,1.128 -1.64,0 -0.539,-0.582 -1.64,0 -1.129,0.551 -0.539,0 -2.219,0.551 -1.102,0 -0.551,0 -1.68,0.547 -0.551,0 -1.101,0 -1.64,0.551 -0.551,0 0,0 -1.141,0 0,0.543 0,0 -0.539,0.543 l -9.418,3.906 c 0,0 -0.543,0 -0.543,0.551 0,0 0,0 -0.551,0 0,0.543 -0.547,0.543 -0.547,0.543 l -3.359,1.68 -0.543,0.546 c 0,0 0,0.551 -0.551,0.551 l -1.68,1.09 c -0.546,0 -1.097,0 -1.636,0.59 l -0.551,0.543 c -1.68,1.637 -6.09,4.418 -8.32,5.547 l -8.871,4.961 -5,2.769 c -1.641,0.59 -2.77,1.141 -4.411,1.141 -0.589,0.539 -0.589,0 -1.129,0.539 -1.101,0.551 -1.64,0 -2.781,0.551 -2.219,0.55 -2.219,0 -3.859,0.55 -0.551,0.54 -1.102,0.54 -1.68,0.54 -2.191,0.589 -2.781,-0.54 -4.422,0 l -3.8669,0.589 c -0.582,0 -1.6719,0 -2.2227,0 -1.1289,-0.589 -2.7773,-0.589 -3.9101,-1.129 l -7.7266,-2.781 h -1.1406 c -0.543,-0.539 -0.543,-0.539 -1.0898,-1.09 -1.0899,-0.55 -2.2305,-1.089 -3.3204,-1.679 l -7.7695,-5.551 c -1.1016,-1.09 -2.2305,-2.18 -3.3203,-3.32 -0.5508,-0.539 0,0 -0.5508,-1.09 z"
          style="fill:#17b7a6;fill-opacity:1;fill-rule:evenodd;stroke:none" id="path22" />
      <path
          d="m 48.1992,153.52 c 0,-2.192 1.6797,-0.551 2.2305,0 l 6.0898,5.539 h 0.5899 l 3.3203,2.781 2.7695,2.219 c 2.1914,1.101 6.1016,4.461 7.7422,5 l 2.2188,1.64 c 0,0 0,0 0.5507,0.59 l 3.3204,1.641 c 0,0.55 0,0 0,0.55 l 5,2.219 c 0.5468,0 0.5468,0 0.5468,0 l 2.2227,0.551 c 0,0.551 0,0.551 0,0.551 0.5508,0 0.5508,0 1.0976,0.578 l 2.2227,0.551 h 0.5508 c 1.1289,0.55 0.5469,0.55 1.6797,0.55 4.4179,0.54 3.3203,1.68 10.5074,0.54 1.68,0 3.911,0 5.551,-0.54 l 5,-1.101 c 1.09,-0.578 -0.551,0 0,-0.578 h 0.539 0.551 c 1.129,-0.551 -1.09,0 0.59,-0.551 l 9.41,-3.871 c 0,0 0,0 0.551,-0.539 0.539,0 0,0 0.539,0 l 3.32,-2.231 c 0.59,0 0,0 0.59,0 l 0.551,-0.55 h 0.539 l 0.551,-0.539 1.679,-0.59 c 0.551,-0.551 0.551,-0.551 1.09,-0.551 l 1.68,-1.09 h 0.551 l 1.089,-1.129 c 0.551,0 0.551,0 0.551,0 l 8.321,-4.422 c 0,0 0.546,0 0.546,-0.539 h 1.133 l 0.547,-0.551 2.223,-1.128 c 0.551,-0.551 0,0 1.097,-0.551 l 4.454,-2.231 c 0.546,0 0,0 0.546,0 0.551,0 0.551,0 1.09,-0.539 l 8.871,-2.777 c 1.129,0 1.129,0 1.68,0 3.32,-1.094 5.551,-0.543 7.731,-1.094 3.359,-0.547 0.589,0.551 5.55,0.551 2.231,0 2.231,0 3.91,0.543 0,0 0.54,0 1.641,0 1.129,0 1.129,0 1.68,0.547 1.64,0 3.32,0 3.32,1.679 0,1.641 -4.461,0 -5.551,0 -1.09,0 -1.09,0 -2.769,0 -1.641,0 -3.321,0.551 -5.551,0.551 -1.641,0 -1.09,0.539 -2.23,0.539 -1.09,0 -2.18,0 -2.731,0.551 -1.129,0.59 -1.68,0 -2.769,0.59 l -2.231,0.543 c -0.551,0.547 -0.551,0.547 -1.129,0.547 l -7.191,2.769 -2.231,1.102 -1.636,1.129 h -0.582 l -6.641,3.871 c -0.551,0.539 -1.098,1.09 -1.649,1.09 -0.582,0.59 -0.582,0.59 -0.582,0.59 l -12.738,7.73 c -0.539,0.551 -5,3.32 -6.09,3.91 l -3.32,1.09 -3.871,1.641 c 0,0 -0.578,0 -1.129,0 l -2.23,1.129 c -1.09,0.55 -1.09,0 -2.18,0.55 -0.59,0 0,0 -1.141,0.551 l -4.961,1.129 c -1.129,0.551 -1.679,0.551 -2.769,0.551 -4.4495,0 -3.36,0.539 -8.8674,0 l -4.4532,-0.551 c -1.0976,0 -0.5468,-0.59 -2.2265,-0.59 -1.0938,0 -1.6406,-0.539 -2.7735,-0.539 -1.0976,0 -1.0976,-0.551 -2.1875,-1.101 l -2.2304,-0.54 c -3.3203,-1.679 -6.0899,-3.32 -9.4102,-5.55 -0.5898,-0.551 0,-0.551 -0.5898,-0.551 l -2.7696,-2.219 c -1.6406,-1.68 -3.8711,-2.781 -5.5117,-4.461 -2.7695,-2.769 -5.539,-4.961 -7.7695,-8.32 L 53.75,160.738 c -0.5508,-0.539 -0.5508,-1.09 -1.0898,-1.679 -0.5508,-0.539 -1.1016,-1.09 -1.6797,-1.637 0,-0.543 -0.5508,-1.133 -0.5508,-1.133 l -0.5508,-0.551 -0.5391,-0.539 c 0,0 -1.1406,-1.097 -1.1406,-1.679 z"
          style="fill:#17b7a6;fill-opacity:1;fill-rule:evenodd;stroke:none" id="path24" />
      <path
          d="m 59.3008,205.621 c 1.1289,-1.641 2.7695,-0.543 5.539,0.551 l 2.7813,1.68 c 0.5391,0 0,0 0.5391,0 l 7.2304,3.32 c 0.5508,0 0,0 1.0899,0 1.6797,0.547 6.6406,2.777 7.7812,2.777 l 6.0899,1.672 c 1.0976,0 0.5468,0.551 1.6367,0.551 0.5898,0.547 1.1328,0 1.6836,0.547 1.0976,0 0.5469,0.551 2.2265,0.551 1.6407,0 1.6407,0.539 3.8711,0.539 1.6795,0 2.2185,0.589 3.8595,0.589 1.68,0 2.23,0.551 3.91,0.551 1.641,0.539 4.41,0 6.641,0.539 1.09,0.551 7.769,0.551 8.871,0.551 l 4.449,-0.551 c 2.191,-0.539 4.41,0 6.641,0 1.64,-0.539 2.769,-1.09 3.871,-1.09 1.679,0 0,0.551 2.769,-0.589 1.098,0 1.68,0 2.77,0 0.551,0 0.551,-0.539 1.097,-0.539 1.68,-0.551 0.582,0 3.364,-0.551 0.539,-0.547 0.539,0 1.636,-0.547 1.133,0 1.133,-0.551 2.231,-0.551 1.09,0 1.641,-0.582 2.769,-0.582 1.641,-0.551 0.551,0 1.641,-0.551 0.59,-0.539 0.59,0 1.133,-0.539 1.098,0 0.547,0 1.637,-0.551 0,0 0.589,0 1.14,0 0.539,0 0,0 0.539,-0.546 0.551,0 0,0 0.551,0 0.551,0 0.551,0 0.551,0 1.68,-0.551 -0.551,0 0.539,0 l 7.23,-3.321 h 0.551 l 1.129,-0.582 2.731,-1.097 c 0.589,0 0,0 0.589,0 0.551,0 0,0 0.551,0 0,-0.551 0,-0.551 0,-0.551 h 0.539 l 4.461,-1.68 c 0,0 3.32,0.551 -1.14,3.328 -0.54,0 0,0 -0.54,0.582 l -0.55,0.547 c -0.551,0.543 -1.68,0.543 -2.231,1.094 l -5,3.316 c -0.539,0.551 -1.64,1.133 -2.179,1.684 l -8.321,3.867 c -1.679,1.133 -3.32,1.68 -5,2.231 l -2.23,1.089 c -0.547,0 -0.547,0 -1.09,0 -1.098,0.59 -0.551,0.59 -1.68,0.59 l -5.551,1.641 c -1.097,0 -1.097,0.539 -1.636,0.539 -1.133,0 -1.133,0 -2.231,0.551 -0.551,0 -0.551,0 -1.64,0.59 -0.59,0 -1.68,0 -2.231,0 -2.219,0.539 0,0.539 -3.898,0.539 -1.641,0 -2.742,0.55 -4.422,0.55 h -13.86 c -1.101,0 -2.23,-0.55 -3.871,-0.55 -3.32,0 -2.769,-0.539 -4.449,-0.539 -1.101,0 -1.64,0 -2.191,-0.59 -0.59,0 -1.129,-0.551 -1.68,-0.551 -1.09,0 -1.09,0.551 -2.23,0 -1.0902,-0.539 -0.5395,-0.539 -1.6371,-0.539 l -14.4102,-5 c 0,0 0,0 -0.5508,0 l -2.2304,-0.551 c 0,-0.551 0,-0.551 0,-0.551 l -3.8594,-1.679 c 0,0 0,0 -0.5898,-0.539 l -7.7305,-4.418 h -0.5899 -0.5507 c 0,-0.551 0,-0.551 -0.5391,-0.551 l -3.3203,-2.77 c -1.6797,-1.133 -4.461,-1.679 -5,-3.91 z"
          style="fill:#ff9800;fill-opacity:1;fill-rule:evenodd;stroke:none" id="path26" />
      <path
          d="m 72.6211,222.27 c 0,-2.231 2.2187,-1.098 2.7695,-1.098 0.5508,0.547 0.5508,0.547 1.0899,0.547 1.1406,0.551 0,0 1.6797,0.551 1.1015,0 0,0 1.1015,0.539 0.5391,0 0.5391,0 1.0899,0 1.1289,0.55 0.5898,0.55 1.1289,0.55 1.0976,0.59 1.0976,0.59 1.6406,0.59 0.5898,0 0.5898,0.539 1.1406,0.539 1.6367,0 1.6367,0.551 2.7696,0.551 1.0898,0 1.6406,0.551 2.7695,0.551 1.6484,0 1.0976,1.09 2.1875,1.09 1.1328,0 1.1328,0 1.6836,0 1.0976,0.59 0,0.59 1.0976,0.59 3.3516,0.539 1.1289,0 2.7696,0.539 1.6797,0.55 2.2304,0 3.3199,0.55 1.68,0.551 1.129,0.551 2.77,0.551 1.141,0 1.68,0.539 3.359,0.539 1.102,0 1.641,0 2.742,0.59 2.77,0.551 6.129,0 8.321,0 1.129,0.551 1.129,0.551 1.679,0.551 0.54,0.539 5,0 6.09,0 1.09,-0.551 7.77,0 9.41,-0.551 1.141,0 1.68,-0.59 3.321,-0.59 1.14,0 2.23,0 3.328,0 1.133,-0.539 1.133,-0.539 2.769,-0.539 1.68,0 1.68,-0.551 2.774,-0.551 1.129,-0.55 1.68,0 2.777,-0.55 1.68,-0.539 2.223,0 3.321,-0.539 0.582,0 0.582,-0.59 1.128,-0.59 1.09,0 1.09,0 1.641,0 l 2.77,-1.09 c 0.589,0 0.589,0 1.14,-0.551 0.539,0 1.09,0 1.641,0 0.539,0 0.539,-0.551 1.129,-0.551 1.09,0 0.551,0 1.64,0 1.129,-0.539 2.231,-1.129 3.911,-0.539 0,2.18 0,1.641 -1.68,2.731 l -3.871,2.23 c -0.59,0.539 -0.59,0.539 -1.129,0.539 l -7.192,3.91 -3.32,1.641 c -0.547,0 0,0 -0.547,0 l -1.133,0.551 c -0.546,0 0,0 -0.546,0 l -3.321,1.129 c -1.133,0 -1.133,0.55 -2.23,0.55 -1.09,0 -1.09,0.54 -1.672,0.54 -0.551,0.55 -1.098,0 -1.649,0.55 -0.539,0 -0.539,0 -1.679,0.59 -1.641,0 -1.09,0 -3.321,0.539 -1.089,0 -2.769,0 -3.859,0 C 130.82,240 131.91,240 130.82,240 h -14.961 c -1.679,0 0,-0.551 -1.679,-0.551 -0.551,0 -1.09,0 -2.231,0 -1.09,0 -1.09,-0.539 -2.769,-0.539 -1.641,0 -1.641,-0.59 -3.321,-1.14 -1.64,0 -1.64,0 -3.32,-0.54 l -2.7695,-1.101 c -1.0976,0 -0.5507,0 -1.6484,-0.578 -1.1328,0 -1.1328,0 -2.2227,-0.551 l -1.1289,-0.551 c -0.5507,0 0,0 -0.5507,0 l -2.7696,-1.09 -6.6484,-3.32 h -0.5391 l -3.9101,-2.23 -5.5118,-3.321 c -0.5781,-0.539 -2.2187,-1.129 -2.2187,-2.218 z"
          style="fill:#ff9800;fill-opacity:1;fill-rule:evenodd;stroke:none" id="path28" />
      <path
          d="m 75.9414,110.309 c 0,-1.68 3.3203,0 3.8594,0.55 h 0.5508 c 0.5898,0.551 0.5898,0 0.5898,0.551 1.0899,0.539 1.0899,0.539 2.1797,0.539 2.2305,0.551 4.457,1.68 6.0977,2.231 1.1328,0.55 1.1328,0.55 1.6796,0.55 l 5.5508,1.68 c 0.5391,0 0.5391,0 1.0899,0 0.582,0.539 0.582,0.539 1.1328,0.539 1.0976,0.551 1.0976,0 1.6371,0.551 1.679,0.551 1.14,0.551 2.781,0.551 1.68,0 1.68,0.578 2.769,0.578 2.77,0 3.321,0.551 5,0.551 1.641,0.55 3.321,0 5,0.55 0.551,0.54 0.551,0.54 1.09,0.54 h 13.871 c 2.192,-0.54 3.871,-1.09 6.09,-1.09 1.641,0 1.641,0 3.32,-0.551 l 8.321,-1.68 c 1.097,0 0.551,0 1.648,0 l 8.321,-2.769 c 1.128,0 0,0 1.128,-0.551 0.551,0 0.551,0 0.551,0 l 6.09,-2.77 c 0.551,0 -0.551,0 1.09,0 1.141,0 1.141,1.09 -0.539,2.231 l -12.192,7.73 c -0.546,0.551 -1.128,0.551 -1.679,1.129 -0.547,0 0,0 -0.547,0 l -1.094,0.551 -2.226,1.09 h -0.551 l -2.223,0.551 c -0.547,0.589 -0.547,0.589 -1.68,1.129 -0.546,0 0,0 -0.546,0 l -2.223,0.55 c -0.551,0 -0.551,0.551 -1.098,0.551 l -12.191,2.219 c -3.32,0 -8.86,0.551 -11.641,-0.539 -1.09,0 -1.09,0 -1.679,0 -1.09,0 -2.77,0 -3.86,-0.551 -0.551,0 -0.551,0 -1.101,0 -1.68,0 -2.219,-0.59 -3.321,-0.59 l -3.898,-1.09 c -1.102,-0.55 0,0 -2.231,-0.55 -0.55,0 -0.55,-0.54 -1.0895,-0.54 -1.0976,-0.589 -0.5507,0 -1.6484,-0.589 0,0 0,0 -0.582,-0.551 -0.5508,0 -0.5508,-0.539 -1.6407,-0.539 l -2.7773,-1.102 -4.4492,-2.219 c -0.5508,-0.55 -0.5508,-0.55 -0.5508,-0.55 l -3.8594,-2.231 c -0.5508,-0.539 -1.1406,-0.539 -2.2304,-1.679 l -3.8711,-2.77 c -0.5391,-0.551 -2.2188,-1.09 -2.2188,-2.191 z"
          style="fill:#17b7a6;fill-opacity:1;fill-rule:evenodd;stroke:none" id="path30" />
      <path
          d="m 89.2188,104.219 c 0,-1.68 2.2304,-0.59 3.3593,-0.59 0,0.59 1.0938,0.59 2.7735,1.141 1.0976,0 4.4179,0.539 4.9574,1.089 0.55,0.551 0,0 0.55,0.551 0.59,0 1.129,0 1.68,0 1.09,0 0.551,0.578 1.68,0.578 3.32,0 2.769,0.551 4.41,1.102 l 13.871,0.539 c 2.23,0 12.191,0 13.871,0 0.539,-0.539 0,-0.539 0.539,-0.539 2.781,-0.551 1.641,0.539 3.871,-0.551 1.098,-1.129 1.68,0 3.321,-1.129 1.128,0 1.128,0 1.679,0 0.547,0 1.098,-0.551 1.641,-0.551 1.129,-0.55 1.68,-0.55 2.226,-0.55 0.551,0 0,0 0.551,0 l 1.68,-0.539 c 1.09,-0.551 6.641,-3.321 5.543,0 -0.543,1.089 -2.223,2.218 -2.774,2.769 -0.546,0.551 -0.546,0.551 -1.128,0.551 -1.641,1.09 -4.969,3.32 -6.641,3.859 -0.551,0.551 0,0 -0.551,0.551 l -1.098,0.59 c -0.582,0 -0.582,0 -1.128,0.539 -3.872,1.641 -1.641,0.551 -2.774,0.551 -0.547,0 -0.547,0 -1.098,0.55 l -3.32,1.129 c -1.68,0 -0.539,0 -2.219,0.551 -1.101,0 -1.101,-0.551 -3.871,0.539 -2.23,0.551 -10,0.551 -12.191,0 -2.219,-0.539 -5.539,-1.09 -7.219,-1.679 -2.23,-0.54 -1.68,0 -2.781,-0.54 -0.539,-0.55 0,-0.55 -1.09,-0.55 h -0.551 c -1.129,-0.551 -0.578,-0.551 -1.679,-0.551 -2.219,-0.539 0,-0.539 -2.219,-1.129 l -3.8712,-1.641 c -1.0977,-0.55 -1.0977,0 -2.2305,-1.129 l -2.7695,-1.101 -3.8672,-2.77 c -0.5508,-0.55 -1.1328,-0.55 -1.1328,-1.64 z"
          style="fill:#17b7a6;fill-opacity:1;fill-rule:evenodd;stroke:none" id="path32" />
      <path
          d="m 101.988,98.6719 c 0,-0.5508 0,-0.5508 0,-1.1328 1.641,0 8.871,0 10.512,0 0.59,0 0.59,0 0.59,0 h 33.238 l 0.551,0.582 c -0.551,1.0977 -1.098,1.6484 -2.231,2.1879 l -4.957,2.781 c -0.55,0 -1.679,0.539 -2.23,1.129 -2.231,0.551 -1.09,0.551 -3.32,0.551 -1.129,0 -0.551,0.539 -2.77,0.539 -1.101,0.55 -0.551,0.55 -3.32,1.101 -0.551,0 -1.141,0 -1.68,0 -4.422,0 -2.23,0 -5.551,0 -2.191,0 -3.32,-0.551 -4.41,-1.101 l -6.101,-1.68 c -0.579,0 -0.579,0 -1.129,-0.539 -1.09,0 -7.192,-2.781 -7.192,-4.4181 z"
          style="fill:#17b7a6;fill-opacity:1;fill-rule:evenodd;stroke:none" id="path34" />
      <path
          d="m 49.3398,52.6602 c 0,-1.1016 1.6407,-2.2305 2.2188,-2.7813 1.1016,-0.5391 1.1016,-1.6797 2.7812,-2.7695 1.0899,0.5508 2.1797,1.6797 2.7696,2.7695 l 0.5508,0.5508 c 2.7695,2.2305 2.1796,2.2305 -0.5508,5 -0.5899,0.5508 -2.2305,2.2305 -2.7696,2.2305 -0.5898,0 -0.5898,0 -0.5898,-0.5508 -0.5508,0 -0.5508,0 -0.5508,0 l -3.3203,-3.9102 c -0.5391,0 -0.5391,0 -0.5391,-0.539 z"
          style="fill:#17b7a6;fill-opacity:1;fill-rule:evenodd;stroke:none" id="path36" />
      <path
          d="m 60.4297,52.6602 c 0,-1.1016 0.5508,-1.6797 1.6406,-2.2305 l 0.5508,-0.5508 c 1.1289,-1.0898 1.6797,-2.2187 2.7695,-2.7695 1.1289,0.5508 3.3203,2.7695 3.9102,3.8711 0.539,1.1289 1.0898,0.5781 1.6406,1.6797 -0.5508,0.539 -1.1016,0.539 -1.6406,1.0898 -1.6797,1.6797 -1.6797,2.7695 -3.9102,3.9102 z"
          style="fill:#17b7a6;fill-opacity:1;fill-rule:evenodd;stroke:none" id="path38" />
      <path
          d="m 228.91,52.6602 c 0,-1.1016 2.77,-3.3204 3.32,-3.8711 1.129,-1.1289 1.129,-1.1289 1.129,-1.6797 1.641,0 1.09,0.5508 2.192,1.6797 l 2.769,2.7695 c 1.68,1.1016 1.129,1.1016 -1.64,3.3203 -3.321,3.3203 -2.231,3.3203 -5.551,0 -0.539,-0.5391 -2.219,-1.6797 -2.219,-2.2187 z"
          style="fill:#17b7a6;fill-opacity:1;fill-rule:evenodd;stroke:none" id="path40" />
      <path
          d="m 98.1211,8.87109 c 0.5508,-0.55078 4.4179,-5 5.5079,-5 0.59,0 0,0 1.141,1.12891 l 2.218,2.76953 c 2.192,1.64063 1.641,1.10156 -1.129,3.87107 -0.55,0.5508 -1.64,2.7696 -2.769,2.7696 -0.551,0 -1.641,-1.6797 -1.641,-2.2188 l -1.14,-0.5508 C 99.2188,9.96094 98.6719,9.96094 98.1211,8.87109 Z"
          style="fill:#17b7a6;fill-opacity:1;fill-rule:evenodd;stroke:none" id="path42" />
      <path
          d="m 217.27,52.6602 3.32,-3.3204 c 0.582,-0.5507 1.68,-1.1406 1.68,-2.2304 1.089,0 0.539,0.5508 2.218,1.6797 l 0.551,1.0898 c 2.77,2.2305 3.871,2.2305 0,5.5508 -0.551,0 -0.551,0.5508 -1.09,1.0898 -0.59,0.5899 -0.59,0.5899 -1.14,1.1407 -1.09,0 -2.219,-1.6797 -3.321,-2.7813 l -1.09,-1.1289 z"
          style="fill:#17b7a6;fill-opacity:1;fill-rule:evenodd;stroke:none" id="path44" />
      <path
          d="m 87.0313,8.32031 c 0.5468,0 0.5468,-0.55078 1.0898,-0.55078 5,-4.44922 2.2305,-5 6.6484,-1.67969 2.7696,2.78125 3.3516,2.78125 0,5.55076 l -2.7812,2.7696 C 90.3516,13.8711 89.2188,11.0898 87.5781,10.5508 87.0313,9.96094 87.0313,9.41016 87.0313,8.32031 Z"
          style="fill:#17b7a6;fill-opacity:1;fill-rule:evenodd;stroke:none" id="path46" />
      <path
          d="m 71.4805,52.6602 c 1.1406,-1.1016 1.6797,-1.6797 2.7812,-2.7813 l 2.7696,-2.2187 c 1.1289,0 1.6796,1.1289 2.2304,2.2187 1.6797,1.6797 4.4492,2.2305 0.5391,5 l -1.0899,1.1016 c -1.0898,1.6797 -1.6796,2.2187 -3.3203,0 z"
          style="fill:#17b7a6;fill-opacity:1;fill-rule:evenodd;stroke:none" id="path48" />
    </g>
  </g>
</svg>
