<?xml version="1.0" encoding="UTF-8"?>
<!DOCTYPE svg PUBLIC "-//W3C//DTD SVG 1.1//EN" "http://www.w3.org/Graphics/SVG/1.1/DTD/svg11.dtd">
<!-- Creator: CorelDRAW -->
<svg xmlns="http://www.w3.org/2000/svg" xml:space="preserve" width="32px" height="32px" version="1.1" style="shape-rendering:geometricPrecision; text-rendering:geometricPrecision; image-rendering:optimizeQuality; fill-rule:evenodd; clip-rule:evenodd"
viewBox="0 0 4.31 4.33"
 xmlns:xlink="http://www.w3.org/1999/xlink"
 xmlns:xodm="http://www.corel.com/coreldraw/odm/2003">
 <defs>
  <style type="text/css">
   <![CDATA[
    .fil0 {fill:#17B7A6}
    .fil1 {fill:#FD9802}
    .fil2 {fill:#FF9800}
   ]]>
  </style>
 </defs>
 <g id="Layer_x0020_1">
  <metadata id="CorelCorpID_0Corel-Layer"/>
  <g id="_2598357835504">
   <path class="fil0" d="M2.13 3.21c0,0.19 -0.02,0.14 0.06,0.23l0.01 0c0.01,0.01 0.02,0.02 0.03,0.03 0,0.01 0,0.01 0.01,0.01 0,0 0,0.01 0,0.01l0.14 0.13c0,0.01 0,0.01 0,0.01l0.12 0.11c0.02,0.02 0.02,0.03 0.02,0.06 0,0.06 -0.07,0.04 -0.11,0.04 -0.01,0 -0.01,0.01 -0.03,0.01 -0.02,0 -0.06,0 -0.08,-0.01 -0.13,-0.01 -0.25,0.04 -0.25,-0.06l-0.01 -0.19c0,-0.02 0.01,-0.04 0,-0.04 -0.02,0 -0.04,0.01 -0.06,0.02l-0.05 0.04c0,0 0,0 0,0l-0.04 0.02 0 0.18c-0.03,0.01 -0.01,0.04 -0.09,0.04l-0.11 -0.01c-0.06,0 -0.12,0.02 -0.14,-0.03 -0.01,-0.02 -0.01,-0.19 -0.01,-0.23 0,-0.05 -0.01,-0.03 -0.05,-0.01l-0.05 0.03c0,0 0,0 0,0l-0.02 0.01c-0.04,0.02 -0.04,0.02 -0.04,0.07 0,0.02 0,0.04 0,0.06 0.01,0.04 0.01,0.06 -0.02,0.09 -0.03,0.03 -0.13,0.02 -0.15,0 0,0 -0.01,-0.02 -0.01,-0.02 -0.01,-0.02 0,-0.08 -0.01,-0.1 0,-0.02 0.01,-0.05 0.01,-0.08 0,-0.03 -0.01,-0.05 -0.01,-0.08 -0.03,0 -0.04,0.02 -0.08,0.04l-0.08 0.04c0.01,0.06 0,0.1 0,0.16 0,0.02 0,0.03 -0.02,0.04 -0.03,0.02 -0.14,0.02 -0.16,0.01 -0.01,-0.01 -0.02,-0.02 -0.02,-0.03 -0.01,-0.02 0,-0.21 0,-0.25 0,-0.01 -0.01,-0.01 -0.02,-0.01 -0.01,0 -0.03,0.01 -0.04,0.02l-0.04 0.02c0,0 -0.01,0.01 -0.01,0.01 0,0 0,0 0,0 0,0 0,0 0,0l-0.05 0.03c0,0 0,0 -0.01,0 0,0.03 0,0.04 0.01,0.06 0,0.02 -0.01,0.03 -0.01,0.06l0 0.29c0,0 0,0.01 0,0.01 0,0.02 0,0.01 0,0.02l-0.02 0.03c-0.01,0.02 -0.03,0.03 -0.05,0.04 0,0 0,0 -0.01,0.01 -0.01,0 0.01,0 -0.01,0.01 -0.01,0 -0.01,0 -0.02,0 -0.03,0.01 -0.13,0.01 -0.18,0.01 -0.05,0 -0.07,0 -0.11,-0.02 -0.05,-0.02 -0.07,-0.05 -0.08,-0.1 -0.01,-0.03 -0.01,-0.26 -0.01,-0.3 0,-0.06 -0.01,-0.12 0,-0.18 0,-0.02 0.01,-0.04 -0.02,-0.02l-0.04 0.03c-0.01,0 0,0 -0.01,0l-0.08 0.05c-0.01,0 0,0 -0.01,0 -0.01,0.01 0,0.01 -0.01,0.01l0 0.01c0.01,0.01 0.01,0.02 0.01,0.03 0,0.01 0,0.03 0,0.04 0,0.02 -0.01,0.03 -0.01,0.05l0 0.24c0,0.01 0,0 0.01,0.01 0.01,0.02 0,0.07 0.02,0.11l0.06 0.09c0,0 0,0 0,0l0.06 0.06 0.05 0.03c0,0 0.01,0 0.01,0 0,0 0,0 0,0l0.02 0c0.02,0.01 0.02,0.01 0.03,0.01 0.05,0.01 0.1,0 0.14,0 0.08,0.01 0.16,0.01 0.23,-0.01 0.05,-0.03 0.09,-0.06 0.13,-0.1l0.02 -0.03c0,0 0,0 0,0l0.05 -0.13c0,-0.04 -0.02,-0.1 0.02,-0.07l0.04 0.02c0,0 0,0 0,0 0.03,0.02 0.09,0.01 0.14,0.01 0.03,0 0.07,-0.01 0.09,-0.04 0.02,-0.02 0.01,-0.03 0.03,-0.03 0.01,0 0.02,0.04 0.06,0.06 0.05,0.02 0.11,0.01 0.17,0.01 0.04,0 0.04,-0.01 0.07,-0.01 0.02,-0.01 0.05,-0.04 0.05,-0.06 0.06,0 0.01,0.01 0.06,0.05 0.02,0.01 0.05,0.02 0.07,0.02 0.04,0 0.22,0.01 0.26,-0.01 0,0 0,0 0,0 0.01,-0.01 0,0 0.01,0 0.02,-0.01 0.04,-0.03 0.05,-0.05 0.01,-0.01 0,-0.01 0.02,-0.02 0.01,0.01 0,0.01 0.01,0.02 0,0 0.01,0 0.01,0l0 0.01c0,0 0,0 0,0 0.01,0.01 0.01,0.02 0.02,0.03 0.04,0.03 0.12,0.02 0.17,0.02 0.04,0 0.13,0 0.17,0 0.06,-0.01 0.17,0.02 0.25,-0.03 0,-0.01 0.01,-0.01 0.01,-0.01l0.05 -0.05c0.01,-0.02 0.03,-0.05 0.03,-0.08 0.01,-0.05 0.02,-0.05 -0.01,-0.12 0,0 0,0 0,0 0,0 0,0 0,0l-0.03 -0.05c-0.01,-0.02 -0.02,-0.04 -0.04,-0.05l-0.01 -0.01c0,0 -0.01,-0.01 -0.01,-0.01 0,0 0,0 0,0l-0.12 -0.12c0,0 0,0 0,0l-0.08 -0.08c-0.02,-0.02 -0.02,-0.02 -0.05,-0.05 0,0 0,0 0,0 0,0 -0.01,0 -0.01,0l-0.01 -0.02c-0.01,0 -0.01,0 -0.01,-0.01 -0.01,0 -0.01,-0.01 -0.02,-0.02 0.01,0 0.02,-0.01 0.03,-0.01 0,-0.01 0.01,-0.01 0.01,-0.01l0.06 -0.02c0,-0.01 0,-0.01 0.01,-0.01l0.1 -0.04c0.01,0 0.01,0 0.02,0l0.08 -0.04c0.02,-0.01 0.03,0 0.03,-0.02 0.01,-0.02 0,-0.11 0,-0.15 -0.04,0 -0.02,0 -0.05,0.01 -0.01,0 -0.01,0 -0.01,0 -0.01,0 -0.01,0.01 -0.02,0.01 -0.01,0 -0.01,0 -0.02,0l-0.06 0.03c-0.01,0 0,0 -0.01,0.01l-0.15 0.05c-0.02,0.01 -0.03,0.03 -0.05,0.03l-0.06 0.03c-0.02,0 -0.07,0.02 -0.07,0.04z"/>
   <path class="fil0" d="M0.89 1.13c0,0.03 0.05,0 0.06,-0.01l0.12 -0.07c0,0 0,0 0,0 0.02,0 0.03,-0.01 0.05,-0.01 0.04,0 0.01,0.02 -0.01,0.03l-0.06 0.07c0,0 0,0 0,0 0,0 -0.01,0 -0.01,0.01l-0.1 0.13c-0.01,0.01 -0.04,0.05 -0.04,0.07 0,0.01 0,0 0,0.01 0.01,0 0.04,-0.03 0.05,-0.04l0.01 0c0,-0.01 0,-0.01 0,-0.01l0.03 -0.03c0.02,-0.01 0.01,-0.01 0.02,-0.02l0.05 -0.04c0.06,-0.05 0.12,-0.1 0.18,-0.14l0.22 -0.12c0.01,-0.01 0.01,-0.01 0.02,-0.01 0.01,0 0,0 0.01,-0.01 0.02,0 0.03,-0.02 0.04,-0.02l0.07 -0.02c0.03,-0.01 0.01,-0.01 0.04,-0.01 0.03,0 0.04,-0.01 0.07,-0.01 0.04,0.01 0.12,0 0.19,0.01 0.02,0 0.03,0 0.05,0.01l0.07 0.01c0.01,0 0.01,0.01 0.02,0.01 0.01,0 0.02,0 0.03,0 0.01,0 0,0 0.01,0.01 0.01,0 0,0 0.01,0 0,0 0,0 0.01,0l0.17 0.08c0.01,0.01 0,0 0.02,0.01 0,0.01 0.01,0.01 0.01,0.02l0.1 0.05c0,0 0,0 0,0l0.07 0.04c0,0 0,0 0,0 0.01,0.01 0.01,0.01 0.01,0.01l0.12 0.07c0,0 0,0 0.01,0.01l0.2 0.1c0.01,0 0.02,0 0.02,0 0.01,0.01 0.01,0.01 0.03,0.01 0.02,0 0.02,0.01 0.04,0.01 0.03,0.01 0.02,0.01 0.05,0.02 0.11,0.02 0.15,0.04 0.29,0.02 0.02,0 0.05,-0.01 0.08,-0.01l0.07 -0.02c0.02,-0.01 0,0 0.03,-0.01 0.04,0 0.04,-0.03 0.02,-0.03 -0.02,0 -0.03,0 -0.05,0l-0.2 -0.01c-0.01,0 -0.02,0 -0.04,-0.01 -0.03,0 -0.02,0 -0.04,-0.01 -0.02,0 -0.04,0.01 -0.05,0 -0.01,0 -0.01,-0.01 -0.02,-0.01 -0.01,-0.01 -0.02,0 -0.03,-0.01 -0.01,-0.01 0,0 -0.01,0l-0.01 -0.01c-0.02,0 -0.01,0 -0.03,-0.01 -0.02,0 -0.01,0.01 -0.02,0l-0.08 -0.04c0,0 0,0 -0.01,0 0,0 0,0 0,0 0,0 0,0 0,0l-0.02 -0.02c-0.01,0 0,0 -0.01,0 0,0 0,0 0,0 0,0 0,0 0,-0.01l-0.02 0c0,0 0,0 0,0l-0.03 -0.02c0,0 -0.01,0 -0.01,-0.01 -0.01,0 -0.01,0 -0.02,-0.01l-0.1 -0.05c0,0 0,0 0,-0.01l-0.01 0c0,0 0,0 0,0 -0.03,-0.02 -0.06,-0.04 -0.09,-0.06l-0.03 -0.02c-0.04,-0.03 -0.08,-0.05 -0.12,-0.08l-0.03 -0.02c0,0 0,0 0,0l-0.01 0c0,0 0,0 0,0l-0.05 -0.03c0,0 0,0 0,0l-0.02 -0.01c0,0 0,-0.01 0,-0.01 0,0 -0.01,0 -0.01,0 0,0 0,0 0,0 0,0 -0.01,0 -0.01,0l-0.02 -0.01c0,0 0,0 0,-0.01 -0.01,0 -0.02,0 -0.02,-0.01 0.02,-0.01 0.18,-0.01 0.21,-0.01l0.07 0.02c0.01,0 0.02,0 0.03,0 0.02,0 0.02,0.01 0.04,0.01 0.03,0 0.03,0.01 0.06,0.01 0.01,0 0.03,0 0.04,0.01 0.01,0 0.02,0.01 0.03,0.01 0.03,0 0.02,-0.01 0.04,0 0.01,0.01 0,0.01 0.01,0.01 0.05,0.01 0.11,0.03 0.15,0.04 0.04,0.01 0.16,0.06 0.19,0.06 0.02,0.01 0.01,0 0.03,0.01l0.02 0.01c0.01,0.01 0.01,0.01 0.02,0.01l0.09 0.04c0.03,0.01 0.05,0.01 0.07,0.02 0.03,0.02 0.05,0.03 0.07,0.04 0.03,0 0.04,0.02 0.06,0.01 0,-0.03 -0.06,-0.06 -0.08,-0.08 -0.01,-0.01 -0.02,-0.01 -0.03,-0.02 -0.01,0 -0.02,-0.01 -0.03,-0.02l-0.12 -0.07c0,0 0,0 0,0 0,0 -0.01,0 -0.01,0l-0.15 -0.08c0,-0.01 0,-0.01 -0.01,-0.01 0,0 0,0 0,0l-0.01 -0.01c-0.01,0 -0.02,0 -0.02,0l-0.01 -0.01c0,0 -0.01,0 -0.01,0l-0.02 -0.01c-0.01,0 0,0 -0.01,0l-0.02 -0.01c-0.01,-0.01 -0.02,-0.01 -0.04,-0.02l-0.11 -0.04c-0.01,-0.01 -0.02,0 -0.03,-0.01 -0.01,0 0,0 -0.01,-0.01 -0.01,0 -0.02,0 -0.03,0l-0.08 -0.02c-0.02,-0.01 -0.02,0 -0.04,-0.01 -0.02,-0.01 -0.02,-0.01 -0.05,-0.01 -0.02,0 -0.02,0 -0.04,-0.01 -0.02,0 -0.03,0 -0.05,0 -0.02,0 -0.02,-0.01 -0.04,-0.01 -0.07,0 -0.12,-0.01 -0.18,-0.01 -0.04,0 -0.07,0 -0.11,0 -0.05,0.01 -0.06,0.01 -0.1,0.02 -0.02,0 -0.05,0 -0.07,0.01 -0.01,0 -0.01,0 -0.03,0 -0.02,0 -0.02,0 -0.04,0.01 -0.02,0.01 -0.04,0.01 -0.05,0.01 -0.03,0.01 -0.01,0.01 -0.05,0.01 -0.03,0 -0.02,0.01 -0.04,0.01 -0.01,0 -0.02,0 -0.03,0.01l-0.11 0.03c-0.01,0 0,0 -0.02,0 -0.01,0.01 -0.01,0.01 -0.02,0.01 0,0 0,0 0,0 -0.02,0.01 -0.04,0.01 -0.06,0.02l-0.04 0.02c-0.01,0.01 -0.01,0 -0.02,0.01l-0.04 0.02c-0.01,0 0,0 -0.01,0l-0.11 0.05c-0.01,0 -0.01,0 -0.02,0.01 -0.01,0 -0.01,0 -0.02,0l-0.14 0.08c-0.02,0.02 -0.05,0.03 -0.07,0.05l-0.01 0.01c-0.02,0.02 -0.04,0.02 -0.06,0.04 -0.01,0.01 -0.02,0.02 -0.03,0.02 -0.01,0.01 -0.03,0.02 -0.03,0.04z"/>
   <path class="fil0" d="M1.08 1.98c0,0.02 0.03,0.02 0.05,0 0.01,-0.02 0,-0.01 0.02,-0.02l0 -0.01c0,0 0.01,0 0.01,0 0,0 0,0 0.01,-0.01l0.1 -0.08c0.01,0 0.01,0 0.02,-0.01 0,0 0.01,-0.01 0.01,-0.01 0,0 0,0 0,0l0.01 -0.01c0.02,-0.02 0.05,-0.03 0.08,-0.05l0.21 -0.12c0,0 0,0 0.01,0l0.05 -0.02c0.01,-0.01 0.02,-0.01 0.03,-0.01 0.04,-0.01 0.02,0 0.05,-0.01 0.1,-0.02 0.18,-0.03 0.28,0l0.05 0.01c0,0 0,0 0.01,0 0.04,0.01 0.01,0.01 0.03,0.01 0.01,0.01 0.01,0.01 0.02,0.01 0.01,0 0,0 0.01,0l0.06 0.03c0.03,0.02 0.11,0.06 0.13,0.08 0.01,0.01 0.01,0.01 0.01,0.02 -0.11,0 -0.09,-0.02 -0.26,0 -0.03,0.01 -0.08,0.01 -0.11,0.02 -0.03,0.01 -0.02,0 -0.07,0.02 -0.02,0.01 -0.02,0 -0.04,0.01l-0.04 0.01c-0.02,0 -0.02,0 -0.03,0.01 -0.05,0.01 -0.04,0.01 -0.08,0.02l-0.11 0.04c0,0 0,0 -0.01,0 0,0 0,0.01 0,0.01l-0.04 0.01c0,0 0,0 0,0 -0.01,0 -0.01,0.01 -0.01,0.01l-0.09 0.04c-0.07,0.04 -0.15,0.1 -0.22,0.15l-0.01 0.01c-0.01,0.01 -0.01,0.01 0,0.03 0.02,0 0.01,0 0.03,0 0,0 0,0 0,0l0.2 -0.09c0.03,0 -0.01,0.01 0.01,0 0,0 0,0 0,0l0.02 -0.01c0.02,0 0.01,0.01 0.03,-0.01 0.02,-0.01 0,0 0.03,-0.01 0.01,0 0.01,0 0.02,-0.01l0.11 -0.03c0.02,0 0.01,-0.01 0.04,-0.01 0.03,0 0.04,-0.01 0.06,-0.01 0.03,0 0.04,-0.01 0.06,-0.01l0.13 -0.02c0.03,0 0.03,-0.01 0.06,-0.01 0.04,0 0.04,-0.01 0.07,-0.01 0.05,0 0.01,0 0.07,0 0.02,0 0.04,0 0.07,0l0.34 0.03c0.03,0.01 0.05,0 0.12,0.03 0.03,0.01 0.03,0 0.06,0.01 0.01,0 0.02,0.01 0.03,0.01l0.25 0.09c0,0 0.01,0 0.01,0l0.03 0.02c0.04,0.02 0.03,0.02 0.06,0.02 0,-0.01 0.01,-0.02 0.01,-0.03 0,-0.01 -0.01,-0.01 -0.01,-0.01l-0.01 -0.01c-0.03,-0.03 -0.06,-0.05 -0.09,-0.07 -0.02,-0.01 -0.01,0 -0.01,-0.02l0.05 0c0.01,0 0.01,0 0.02,-0.01 0.02,0 0.03,0 0.04,0l0.03 0c0.01,-0.01 0.01,-0.01 0.03,-0.01 0.01,0 0.02,0 0.02,0 0.02,-0.01 0.04,-0.02 0.06,-0.03 0.01,-0.01 0,-0.01 0,-0.02 -0.04,0 -0.08,0.01 -0.13,0.01 -0.02,0 -0.02,-0.01 -0.04,-0.01 -0.02,0 -0.04,0 -0.05,0 -0.02,-0.01 -0.03,-0.01 -0.05,-0.01 -0.03,-0.01 -0.02,-0.01 -0.04,-0.02 -0.03,0 -0.05,-0.01 -0.07,-0.02 -0.01,0 -0.01,0 -0.02,0l-0.06 -0.03c-0.02,-0.01 0.01,0 -0.01,0 0,0 0,0 0,0l-0.02 -0.01c0,0 0,0 0,0 0,-0.01 0,0 -0.01,-0.01l-0.03 -0.01c0,-0.01 -0.01,-0.01 -0.02,-0.01l-0.02 -0.01c0,0 0,-0.01 0,-0.01l-0.05 -0.03c-0.01,0 -0.01,0 -0.01,0l-0.04 -0.03c0,0 -0.01,0 -0.02,-0.01l-0.07 -0.04c0,0 0,0 0,0 -0.01,0 -0.01,0 -0.01,-0.01 -0.01,0 -0.01,0 -0.02,-0.01l-0.04 -0.03c0,0 0,0 0,0 -0.01,0 -0.01,0 -0.01,0l-0.02 -0.01c0,0 0,0 0,-0.01 -0.01,0 -0.01,0 -0.01,0 -0.04,-0.02 -0.08,-0.05 -0.12,-0.06l-0.08 -0.04c-0.02,-0.01 -0.03,-0.01 -0.04,-0.02 -0.02,0 -0.02,-0.01 -0.06,-0.02 -0.01,0 -0.01,0 -0.02,0 -0.02,-0.01 -0.01,-0.01 -0.02,-0.01 -0.01,0 -0.02,0 -0.03,-0.01 -0.06,-0.02 -0.12,-0.02 -0.19,-0.02 -0.04,0 -0.07,0.01 -0.1,0.01 -0.02,0.01 -0.02,0.01 -0.03,0.02 -0.02,0 -0.01,-0.01 -0.03,0l-0.05 0.02c0,0 -0.01,0 -0.01,0l-0.11 0.06c-0.01,0 -0.02,0.01 -0.03,0.01l-0.01 0.01c-0.03,0.02 -0.06,0.04 -0.08,0.06l-0.12 0.12c-0.01,0.01 -0.01,0.01 -0.02,0.02 -0.01,0.01 -0.02,0.01 -0.03,0.02 -0.02,0.02 -0.08,0.1 -0.1,0.13 0,0.01 0,0 0,0.01 -0.02,0.01 -0.04,0.03 -0.04,0.05z"/>
   <path class="fil0" d="M2.9 3.79l0 -0.05c0.01,-0.02 0.01,-0.01 0.02,-0.02l0.08 -0.11c0.01,-0.01 0,-0.01 0.02,-0.01 0.01,0 0,0 0.02,0.01 0.02,0.03 0.06,0.07 0.08,0.1l0.02 0.04c0,0.06 0,0.05 -0.02,0.09 -0.01,0.02 -0.02,0.01 -0.03,0.03 -0.02,0.01 -0.02,0.03 -0.08,0.02 -0.01,0 -0.02,0 -0.03,0 -0.02,-0.01 0,-0.01 -0.02,-0.02 -0.01,0 -0.01,0.01 -0.02,0 -0.01,-0.01 -0.02,-0.03 -0.03,-0.04l-0.01 -0.04zm0.67 0.06l-0.06 -0.01c-0.01,-0.01 0,-0.01 -0.02,-0.01 0,-0.01 -0.01,-0.01 -0.02,-0.02l-0.12 -0.12c-0.01,-0.01 -0.02,-0.01 -0.02,-0.01 -0.01,-0.01 -0.01,-0.01 -0.01,-0.01l-0.1 -0.1c-0.01,-0.02 -0.02,-0.02 -0.04,-0.04l-0.09 -0.1c-0.02,-0.01 -0.03,-0.02 -0.04,-0.03 -0.03,-0.04 -0.07,-0.06 -0.07,-0.08 -0.03,0 -0.03,0.02 -0.04,0.03l-0.04 0.03c0,0.01 0,0.01 -0.01,0.02l0 0c0,0 -0.01,0 -0.01,0 0,0.01 0,0.01 0,0.01 -0.03,0.03 0.01,0.04 0.02,0.06l-0.05 0.06c-0.04,0.05 -0.02,0.04 -0.04,0.07l-0.04 0.07c0,0.02 0,0 -0.01,0.05 -0.01,0.05 -0.03,0.02 0,0.12l0.03 0.07c0.02,0.03 0.04,0.05 0.07,0.07 0,0 0.01,0.01 0.02,0.01 0.03,0.02 0.09,0.04 0.12,0.04 0.06,0 0.05,0 0.1,-0.01 0.01,0 0.01,0 0.02,-0.01 0.04,-0.01 0.08,-0.04 0.11,-0.07l0.04 -0.06c0,-0.01 0,-0.02 0,-0.02 0.02,0 0.03,0.01 0.04,0.02 0.02,0.03 0.08,0.09 0.11,0.1l0.01 0.01c0.05,0.02 0.26,0.02 0.31,0.02 0.02,0 0.08,-0.04 0.09,-0.08l0.01 0c0.01,0.04 0.04,0.07 0.09,0.08 0.01,0 0.03,-0.01 0.05,-0.01l0.23 0.01c0.02,0 0.03,-0.02 0.03,-0.04l0.07 -0.1c0,-0.01 0,0 0,-0.02 0,-0.01 -0.02,-0.01 -0.03,-0.01l-0.12 0c-0.02,0 -0.02,0.01 -0.04,0.01 -0.03,0 -0.05,0 -0.08,0 -0.02,0 -0.03,-0.01 -0.04,-0.01 -0.04,0 -0.08,0.02 -0.11,-0.03 -0.02,-0.02 -0.02,-0.05 -0.02,-0.08l0 -0.63c-0.01,0 -0.03,0 -0.04,0.01l-0.04 0.02c0,0 0,0 0,0.01l-0.04 0.02c-0.01,0.01 0.01,-0.01 0,0 -0.05,0.03 -0.04,0.05 -0.04,0.17l0 0.39c0,0.12 -0.03,0.13 -0.14,0.13z"/>
   <path class="fil1" d="M2.02 0.42c-0.01,0 -0.02,0.01 -0.04,0.01 -0.01,0 -0.03,0 -0.05,0 -0.02,0 -0.02,0.01 -0.03,0.01 -0.02,0.01 -0.03,0 -0.05,0 -0.02,0.01 -0.02,0.01 -0.03,0.02 -0.02,0 -0.03,-0.01 -0.05,0 -0.02,0.01 -0.04,0.01 -0.05,0.01 -0.02,0.01 -0.01,0.01 -0.02,0.01 -0.02,0.01 -0.02,0 -0.04,0.01l-0.18 0.06c-0.02,0.01 -0.01,0 -0.04,0.02 -0.01,0 -0.01,0 -0.01,0l-0.01 0c0,0 0,0 0,0l-0.04 0.02c0,0 0,0 0,0 0,0 -0.01,0 -0.01,0 0,0.01 0.01,0 0,0.01 0,0 -0.01,0 -0.01,0l-0.14 0.07c0,0 -0.01,0 -0.01,0l-0.02 0.02c0,0 0,0 0,0l-0.01 0.01c-0.02,0 -0.01,0 -0.02,0l-0.17 0.12c-0.02,0.01 -0.05,0.02 -0.05,0.05 0,0.02 0.02,0.03 0.04,0.03 0,0 0.02,-0.01 0.02,-0.02l0.07 -0.03c0,0 0,0 0.01,0l0.06 -0.03c0,0 0,0 0.01,0l0.08 -0.04c0.01,0 0.01,0 0.02,0l0.04 -0.02c0,0 0,0 0.01,0l0.06 -0.03c0,0 0,0 0,0l0.06 -0.01c0.02,-0.01 0.02,-0.01 0.05,-0.02 0.01,0 0,0 0.01,-0.01 0.02,0 0.01,0 0.03,0 0.02,0 0.01,-0.01 0.03,-0.01 0.02,-0.01 0.01,0 0.03,-0.01 0.02,-0.01 0.04,-0.01 0.06,-0.02 0.02,0 0.02,0 0.04,0 0.03,0 0.01,-0.01 0.03,-0.01 0.01,-0.01 0.02,0 0.03,0 0.02,-0.01 0.02,-0.01 0.03,-0.01 0.02,-0.01 0.03,0 0.04,-0.01 0.02,0 0.05,-0.01 0.07,-0.01 0.01,0 0.04,0 0.06,-0.01 0.04,-0.01 0.1,0 0.14,0 0.04,0 0.05,-0.01 0.07,-0.01l0.09 0c0.01,0 0.01,0.01 0.07,0.01 0.04,0 0.09,-0.01 0.13,0 0.03,0.01 0.07,0 0.09,0.01 0.02,0.01 0.04,0.01 0.06,0.01 0.03,0.01 0.04,0.02 0.06,0.02 0.03,0 0.02,0 0.03,0 0.03,0.01 0.04,0 0.06,0.02 0.01,0 0.02,0 0.03,0l0.03 0.01c0.02,0.01 0,0.01 0.03,0.01 0.03,0 0.01,0 0.03,0.01 0.01,0 -0.01,0 0.01,0 0.03,0 0.02,0.01 0.04,0.01 0.01,0 0.01,0 0.02,0.01 0.02,0 0.01,0 0.03,0.01l0.06 0.02c0,0 0,0 0,0l0.02 0c0.02,0.01 0.01,0 0.02,0.01 0.01,0.01 0.01,0 0.01,0.01l0.02 0c0,0 0,0 0,0.01 0.01,0 0.01,0 0.01,0 0,0 0,0 0,0 0.01,0 0.01,0 0.02,0l0.19 0.09c0.03,0.01 0.08,0.04 0.08,-0.01 0,-0.02 -0.12,-0.1 -0.14,-0.11l-0.2 -0.11c0,0 0,0 0,0 -0.03,-0.02 -0.07,-0.04 -0.1,-0.05 -0.03,-0.01 -0.05,-0.02 -0.08,-0.03l-0.05 -0.02c-0.01,-0.01 -0.02,-0.01 -0.04,-0.02 -0.01,0 -0.02,0 -0.04,-0.01l-0.04 -0.01c-0.01,-0.01 0.01,0 -0.02,-0.01 -0.03,0 -0.03,-0.01 -0.06,-0.01 -0.03,0 -0.02,-0.01 -0.07,-0.01 -0.02,0 -0.01,-0.01 -0.03,-0.02 -0.02,0 -0.04,0.01 -0.05,0 -0.02,0 -0.01,-0.01 -0.04,-0.01 -0.08,0 -0.11,-0.01 -0.19,-0.01l-0.18 0c-0.04,0.01 -0.01,0 -0.03,0z"/>
   <path class="fil0" d="M1.21 1.48c-0.03,0 -0.04,0.04 -0.07,0.06 -0.01,0.01 -0.02,0.02 -0.03,0.03l-0.09 0.1c-0.02,0.03 -0.04,0.05 -0.05,0.08 0.02,0.05 0.03,0.02 0.08,-0.02 0.01,0 0.01,-0.01 0.02,-0.01l0.04 -0.04c0.03,-0.02 0.05,-0.04 0.08,-0.06l0.04 -0.03c0.01,0 0.01,0 0.02,-0.01l0.02 -0.02c0.02,-0.01 0.03,-0.02 0.05,-0.03l0.18 -0.11c0,0 0,0 0,0 0.03,-0.02 0.06,-0.03 0.08,-0.04l0.05 -0.02c0.01,0 0.01,0 0.03,0 0.04,-0.01 0.06,-0.02 0.1,-0.02 0.03,0 0.07,-0.01 0.1,0 0.03,0 0.04,0 0.07,0.01l0.05 0.01c0.01,0 0,0 0.02,0.01 0.03,0.01 0.06,0.01 0.08,0.02 0.02,0.01 0.05,0.01 0.07,0.02l0.05 0.02c0,0.01 0,0 0.01,0.01l0.09 0.04c0.03,0.02 0.07,0.04 0.11,0.06l0.13 0.07c0.01,0.01 0,0.01 0.02,0.01l0.21 0.11c0.02,0 0,0 0.01,0l0.07 0.02c0.03,0.01 0.04,0.02 0.08,0.03 0.03,0 0.02,0.01 0.05,0.01 0.05,0.01 0.08,0.02 0.15,0.02 0.04,0 0.09,0 0.13,-0.01l0.11 -0.03c0.01,0 0.01,0 0.01,-0.02 0,-0.03 -0.12,-0.01 -0.15,-0.02 -0.03,0 -0.05,0 -0.08,0 -0.03,-0.01 -0.04,-0.02 -0.07,-0.02 -0.03,0 -0.01,0.01 -0.03,0 -0.02,-0.01 -0.01,0 -0.04,-0.01 -0.02,0 -0.01,0 -0.03,-0.01 -0.01,0 -0.02,0 -0.03,-0.01 -0.01,0 0,0 -0.02,0 0,-0.01 0,0 -0.01,-0.01l-0.17 -0.07c0,0 -0.01,0 -0.01,-0.01 0,0 0,0 -0.01,0 0,-0.01 -0.01,-0.01 -0.01,-0.01l-0.06 -0.03c0,0 -0.01,-0.01 -0.01,-0.01 0,0 0,-0.01 -0.01,-0.01l-0.03 -0.02c-0.01,0 -0.02,0 -0.03,-0.01l-0.01 -0.01c-0.03,-0.03 -0.11,-0.08 -0.15,-0.1l-0.16 -0.09c0,0 0,0 0,0l-0.09 -0.05c-0.03,-0.01 -0.05,-0.02 -0.08,-0.02 -0.01,-0.01 -0.01,0 -0.02,-0.01 -0.02,-0.01 -0.03,0 -0.05,-0.01 -0.04,-0.01 -0.04,0 -0.07,-0.01 -0.01,-0.01 -0.02,-0.01 -0.03,-0.01 -0.04,-0.01 -0.05,0.01 -0.08,0l-0.07 -0.01c-0.01,0 -0.03,0 -0.04,0 -0.02,0.01 -0.05,0.01 -0.07,0.02l-0.14 0.05c0,0 -0.02,0 -0.02,0 -0.01,0.01 -0.01,0.01 -0.02,0.02 -0.02,0.01 -0.04,0.02 -0.06,0.03l-0.14 0.1c-0.02,0.02 -0.04,0.04 -0.06,0.06 -0.01,0.01 0,0 -0.01,0.02z"/>
   <path class="fil0" d="M0.87 1.56c0,0.04 0.03,0.01 0.04,0l0.11 -0.1c0,0 0.01,0 0.01,0l0.06 -0.05c0,0 0,0 0,0l0.05 -0.04c0.04,-0.02 0.11,-0.08 0.14,-0.09l0.04 -0.03c0,0 0,0 0.01,-0.01l0.06 -0.03c0,-0.01 0,0 0,-0.01l0.09 -0.04c0.01,0 0.01,0 0.01,0l0.04 -0.01c0,-0.01 0,-0.01 0,-0.01 0.01,0 0.01,0 0.02,-0.01l0.04 -0.01c0,0 0.01,0 0.01,0 0.02,-0.01 0.01,-0.01 0.03,-0.01 0.08,-0.01 0.06,-0.03 0.19,-0.01 0.03,0 0.07,0 0.1,0.01l0.09 0.02c0.02,0.01 -0.01,0 0,0.01 0,0 0.01,0 0.01,0l0.01 0c0.02,0.01 -0.02,0 0.01,0.01l0.17 0.07c0,0 0,0 0.01,0.01 0.01,0 0,0 0.01,0l0.06 0.04c0.01,0 0,0 0.01,0l0.01 0.01c0,0 0.01,0 0.01,0l0.01 0.01c0,0 0,0 0,0 0,0 0,0 0,0l0.03 0.01c0.01,0.01 0.01,0.01 0.02,0.01l0.03 0.02c0,0 0.01,0 0.01,0l0.02 0.02c0.01,0 0.01,0 0.01,0l0.15 0.08c0,0 0.01,0 0.01,0.01l0.02 0c0,0 0,0 0,0l0.01 0.01c0,0 0,0 0,0l0.04 0.02c0.01,0.01 0,0 0.02,0.01l0.08 0.04c0,0 0,0 0,0 0.01,0 0,0 0.01,0 0.01,0 0.01,0 0.02,0.01l0.16 0.05c0.02,0 0.02,0 0.03,0 0.06,0.02 0.1,0.01 0.14,0.02 0.06,0.01 0.01,-0.01 0.1,-0.01 0.04,0 0.04,0 0.07,-0.01 0,0 0.01,0 0.03,0 0.02,0 0.02,0 0.03,-0.01 0.03,0 0.06,0 0.06,-0.03 0,-0.03 -0.08,0 -0.1,0 -0.02,0 -0.02,0 -0.05,0 -0.03,0 -0.06,-0.01 -0.1,-0.01 -0.03,0 -0.02,-0.01 -0.04,-0.01 -0.02,0 -0.04,0 -0.05,-0.01 -0.02,-0.01 -0.03,0 -0.05,-0.01l-0.04 -0.01c-0.01,-0.01 -0.01,-0.01 -0.02,-0.01l-0.13 -0.05c0,0 0,0 0,0l-0.04 -0.02c0,0 0,0 0,0l-0.03 -0.02c0,0 0,0 0,0l0 0c0,0 -0.01,0 -0.01,0 0,0 0,0 0,0l-0.12 -0.07c-0.01,-0.01 -0.02,-0.02 -0.03,-0.02 -0.01,-0.01 -0.01,-0.01 -0.01,-0.01l-0.23 -0.14c-0.01,-0.01 -0.09,-0.06 -0.11,-0.07l-0.06 -0.02c0,0 0,0 0,0l-0.07 -0.03c0,0 -0.01,0 -0.02,0l-0.04 -0.02c0,0 0,0 0,0 -0.02,-0.01 -0.02,0 -0.04,-0.01 -0.01,0 0,0 -0.02,-0.01l-0.09 -0.02c-0.02,-0.01 -0.03,-0.01 -0.05,-0.01 -0.08,0 -0.06,-0.01 -0.16,0l-0.08 0.01c-0.02,0 -0.01,0.01 -0.04,0.01 -0.02,0 -0.03,0.01 -0.05,0.01 -0.02,0 -0.02,0.01 -0.04,0.02l-0.04 0.01c-0.06,0.03 -0.11,0.06 -0.17,0.1 0,0 0,0 0,0 -0.01,0.01 0,0.01 -0.01,0.01l-0.05 0.04c-0.03,0.03 -0.07,0.05 -0.1,0.08 -0.05,0.05 -0.1,0.09 -0.14,0.15l-0.03 0.03c-0.01,0.01 -0.01,0.02 -0.02,0.03 -0.01,0.01 -0.02,0.02 -0.03,0.03 0,0.01 -0.01,0.02 -0.01,0.02l-0.01 0.01c0,0 0,0 0,0 0,0 -0.01,0.01 -0.01,0.01 0,0 -0.02,0.02 -0.02,0.03z"/>
   <path class="fil2" d="M1.07 0.62c0.02,0.03 0.05,0.01 0.1,-0.01l0.05 -0.03c0.01,0 0,0 0.01,0l0.13 -0.06c0.01,0 0,0 0.02,0 0.03,-0.01 0.12,-0.05 0.14,-0.05l0.11 -0.03c0.02,0 0.01,-0.01 0.03,-0.01 0.01,-0.01 0.02,0 0.03,-0.01 0.02,0 0.01,-0.01 0.04,-0.01 0.03,0 0.03,-0.01 0.07,-0.01 0.03,0 0.04,-0.01 0.07,-0.01 0.03,0 0.04,-0.01 0.07,-0.01 0.03,-0.01 0.08,0 0.12,-0.01 0.02,-0.01 0.14,-0.01 0.16,-0.01l0.08 0.01c0.04,0.01 0.08,0 0.12,0 0.03,0.01 0.05,0.02 0.07,0.02 0.03,0 0,-0.01 0.05,0.01 0.02,0 0.03,0 0.05,0 0.01,0 0.01,0.01 0.02,0.01 0.03,0.01 0.01,0 0.06,0.01 0.01,0.01 0.01,0 0.03,0.01 0.02,0 0.02,0.01 0.04,0.01 0.02,0 0.03,0.01 0.05,0.01 0.03,0.01 0.01,0 0.03,0.01 0.01,0.01 0.01,0 0.02,0.01 0.02,0 0.01,0 0.03,0.01 0,0 0.01,0 0.02,0 0.01,0 0,0 0.01,0.01 0.01,0 0,0 0.01,0 0.01,0 0.01,0 0.01,0 0.03,0.01 -0.01,0 0.01,0l0.13 0.06c0,0 0.01,0 0.01,0 0,0 0,0 0,0l0.02 0.01c0,0 0,0 0,0l0.05 0.02c0.01,0 0,0 0.01,0 0.01,0 0,0 0.01,0 0,0.01 0,0.01 0,0.01 0,0 0.01,0 0.01,0l0.08 0.03c0,0 0.06,-0.01 -0.02,-0.06 -0.01,0 0,0 -0.01,-0.01l-0.01 -0.01c-0.01,-0.01 -0.03,-0.01 -0.04,-0.02l-0.09 -0.06c-0.01,-0.01 -0.03,-0.02 -0.04,-0.03l-0.15 -0.07c-0.03,-0.02 -0.06,-0.03 -0.09,-0.04l-0.04 -0.02c-0.01,0 -0.01,0 -0.02,0 -0.02,-0.01 -0.01,-0.01 -0.03,-0.01l-0.1 -0.03c-0.02,0 -0.02,-0.01 -0.03,-0.01 -0.02,0 -0.02,0 -0.04,-0.01 -0.01,0 -0.01,0 -0.03,-0.01 -0.01,0 -0.03,0 -0.04,0 -0.04,-0.01 0,-0.01 -0.07,-0.01 -0.03,0 -0.05,-0.01 -0.08,-0.01l-0.25 0c-0.02,0 -0.04,0.01 -0.07,0.01 -0.06,0 -0.05,0.01 -0.08,0.01 -0.02,0 -0.03,0 -0.04,0.01 -0.01,0 -0.02,0.01 -0.03,0.01 -0.02,0 -0.02,-0.01 -0.04,0 -0.02,0.01 -0.01,0.01 -0.03,0.01l-0.26 0.09c0,0 0,0 -0.01,0l-0.04 0.01c0,0.01 0,0.01 0,0.01l-0.07 0.03c0,0 0,0 -0.01,0.01l-0.14 0.08c0,0 -0.01,0 -0.01,0l-0.01 0c0,0.01 0,0.01 -0.01,0.01l-0.06 0.05c-0.03,0.02 -0.08,0.03 -0.09,0.07z"/>
   <path class="fil2" d="M1.31 0.32c0,0.04 0.04,0.02 0.05,0.02 0.01,-0.01 0.01,-0.01 0.02,-0.01 0.02,-0.01 0,0 0.03,-0.01 0.02,0 0,0 0.02,-0.01 0.01,0 0.01,0 0.02,0 0.02,-0.01 0.01,-0.01 0.02,-0.01 0.02,-0.01 0.02,-0.01 0.03,-0.01 0.01,0 0.01,-0.01 0.02,-0.01 0.03,0 0.03,-0.01 0.05,-0.01 0.02,0 0.03,-0.01 0.05,-0.01 0.03,0 0.02,-0.02 0.04,-0.02 0.02,0 0.02,0 0.03,0 0.02,-0.01 0,-0.01 0.02,-0.01 0.06,-0.01 0.02,0 0.05,-0.01 0.03,-0.01 0.04,0 0.06,-0.01 0.03,-0.01 0.02,-0.01 0.05,-0.01 0.02,0 0.03,-0.01 0.06,-0.01 0.02,0 0.03,0 0.05,-0.01 0.05,-0.01 0.11,0 0.15,0 0.02,-0.01 0.02,-0.01 0.03,-0.01 0.01,-0.01 0.09,0 0.11,0 0.02,0.01 0.14,0 0.17,0.01 0.02,0 0.03,0.01 0.06,0.01 0.02,0 0.04,0 0.06,0 0.02,0.01 0.02,0.01 0.05,0.01 0.03,0 0.03,0.01 0.05,0.01 0.02,0.01 0.03,0 0.05,0.01 0.03,0.01 0.04,0 0.06,0.01 0.01,0 0.01,0.01 0.02,0.01 0.02,0 0.02,0 0.03,0l0.05 0.02c0.01,0 0.01,0 0.02,0.01 0.01,0 0.02,0 0.03,0 0.01,0 0.01,0.01 0.02,0.01 0.02,0 0.01,0 0.03,0 0.02,0.01 0.04,0.02 0.07,0.01 0,-0.04 0,-0.03 -0.03,-0.05 0,0 0,0 0,0l-0.07 -0.04c-0.01,-0.01 -0.01,-0.01 -0.02,-0.01l-0.13 -0.07c0,0 0,0 0,0l-0.06 -0.03c-0.01,0 0,0 -0.01,0l-0.02 -0.01c-0.01,0 0,0 -0.01,0l-0.06 -0.02c-0.02,0 -0.02,-0.01 -0.04,-0.01 -0.02,0 -0.02,-0.01 -0.03,-0.01 -0.01,-0.01 -0.02,0 -0.03,-0.01 -0.01,0 -0.01,0 -0.03,-0.01 -0.03,0 -0.02,0 -0.06,-0.01 -0.02,0 -0.05,0 -0.07,0 -0.01,-0.01 0.01,-0.01 -0.01,-0.01 0,0 0,0 0,0l-0.2 0 -0.07 0c0,0 0,0 0,0 -0.03,0 0,0.01 -0.03,0.01 -0.01,0 -0.02,0 -0.04,0 -0.02,0 -0.02,0.01 -0.05,0.01 -0.03,0 -0.03,0.01 -0.06,0.02 -0.03,0 -0.03,0 -0.06,0.01l-0.05 0.02c-0.02,0 -0.01,0 -0.03,0.01 -0.02,0 -0.02,0 -0.04,0.01l-0.02 0.01c-0.01,0 0,0 -0.01,0 0,0 0,0 0,0l-0.05 0.02c0,0 0,0 0,0l-0.12 0.06c0,0 -0.01,0 -0.01,0l-0.07 0.04c0,0 0,0 0,0 0,0 0,0 0,0l-0.1 0.06c-0.01,0.01 -0.04,0.02 -0.04,0.04z"/>
   <path class="fil0" d="M1.37 2.34c0,0.03 0.06,0 0.07,-0.01l0.01 0c0.01,-0.01 0.01,0 0.01,-0.01 0.02,-0.01 0.02,-0.01 0.04,-0.01 0.04,-0.01 0.08,-0.03 0.11,-0.04 0.02,-0.01 0.02,-0.01 0.03,-0.01l0.1 -0.03c0.01,0 0.01,0 0.02,0 0.01,-0.01 0.01,-0.01 0.02,-0.01 0.02,-0.01 0.02,0 0.03,-0.01 0.03,-0.01 0.02,-0.01 0.05,-0.01 0.03,0 0.03,-0.01 0.05,-0.01 0.05,0 0.06,-0.01 0.09,-0.01 0.03,-0.01 0.06,0 0.09,-0.01 0.01,-0.01 0.01,-0.01 0.02,-0.01l0.25 0c0.04,0.01 0.07,0.02 0.11,0.02 0.03,0 0.03,0 0.06,0.01l0.15 0.03c0.02,0 0.01,0 0.03,0l0.15 0.05c0.02,0 0,0 0.02,0.01 0.01,0 0.01,0 0.01,0l0.11 0.05c0.01,0 -0.01,0 0.02,0 0.02,0 0.02,-0.02 -0.01,-0.04l-0.22 -0.14c-0.01,-0.01 -0.02,-0.01 -0.03,-0.02 -0.01,0 0,0 -0.01,0l-0.02 -0.01c0,0 0,0 0,0l-0.04 -0.02c0,0 -0.01,0 -0.01,0 0,0 0,0 0,0l-0.04 -0.01c-0.01,-0.01 -0.01,-0.01 -0.03,-0.02 -0.01,0 0,0 -0.01,0l-0.04 -0.01c-0.01,0 -0.01,-0.01 -0.02,-0.01l-0.22 -0.04c-0.06,0 -0.16,-0.01 -0.21,0.01 -0.02,0 -0.02,0 -0.03,0 -0.02,0 -0.05,0 -0.07,0.01 -0.01,0 -0.01,0 -0.02,0 -0.03,0 -0.04,0.01 -0.06,0.01l-0.07 0.02c-0.02,0.01 0,0 -0.04,0.01 -0.01,0 -0.01,0.01 -0.02,0.01 -0.02,0.01 -0.01,0 -0.03,0.01 0,0 0,0 -0.01,0.01 -0.01,0 -0.01,0.01 -0.03,0.01l-0.05 0.02c0,0 0,0 0,0l-0.08 0.04c-0.01,0.01 -0.01,0.01 -0.01,0.01l-0.07 0.04c-0.01,0.01 -0.02,0.01 -0.04,0.03 0,0 0,0 0,0l-0.07 0.05c-0.01,0.01 -0.04,0.02 -0.04,0.04z"/>
   <path class="fil0" d="M1.61 2.45c0,0.03 0.04,0.01 0.06,0.01 0,-0.01 0.02,-0.01 0.05,-0.02 0.02,0 0.08,-0.01 0.09,-0.02 0.01,-0.01 0,0 0.01,-0.01 0.01,0 0.02,0 0.03,0 0.02,0 0.01,-0.01 0.03,-0.01 0.06,0 0.05,-0.01 0.08,-0.02l0.25 -0.01c0.04,0 0.22,0 0.25,0 0.01,0.01 0,0.01 0.01,0.01 0.05,0.01 0.03,-0.01 0.07,0.01 0.02,0.02 0.03,0 0.06,0.02 0.02,0 0.02,0 0.03,0 0.01,0 0.02,0.01 0.03,0.01 0.02,0.01 0.03,0.01 0.04,0.01 0.01,0 0,0 0.01,0l0.03 0.01c0.02,0.01 0.12,0.06 0.1,0 -0.01,-0.02 -0.04,-0.04 -0.05,-0.05 -0.01,-0.01 -0.01,-0.01 -0.02,-0.01 -0.03,-0.02 -0.09,-0.06 -0.12,-0.07 -0.01,-0.01 0,0 -0.01,-0.01l-0.02 -0.01c-0.01,0 -0.01,0 -0.02,-0.01 -0.07,-0.03 -0.03,-0.01 -0.05,-0.01 -0.01,0 -0.01,0 -0.02,-0.01l-0.06 -0.02c-0.03,0 -0.01,0 -0.04,-0.01 -0.02,0 -0.02,0.01 -0.07,-0.01 -0.04,-0.01 -0.18,-0.01 -0.22,0 -0.04,0.01 -0.1,0.02 -0.13,0.03 -0.04,0.01 -0.03,0 -0.05,0.01 -0.01,0.01 0,0.01 -0.02,0.01l-0.01 0c-0.02,0.01 -0.01,0.01 -0.03,0.01 -0.04,0.01 0,0.01 -0.04,0.02l-0.07 0.03c-0.02,0.01 -0.02,0 -0.04,0.02l-0.05 0.02c0,0 0,0 0,0l-0.07 0.05c-0.01,0.01 -0.02,0.01 -0.02,0.03z"/>
   <path class="fil0" d="M1.84 2.55c0,0.01 0,0.01 0,0.02 0.03,0 0.16,0 0.19,0 0.01,0 0.01,0 0.01,0l0.6 0 0.01 -0.01c-0.01,-0.02 -0.02,-0.03 -0.04,-0.04l-0.09 -0.05c-0.01,0 -0.03,-0.01 -0.04,-0.02 -0.04,-0.01 -0.02,-0.01 -0.06,-0.01 -0.02,0 -0.01,-0.01 -0.05,-0.01 -0.02,-0.01 -0.01,-0.01 -0.06,-0.02 -0.01,0 -0.02,0 -0.03,0 -0.08,0 -0.04,0 -0.1,0 -0.04,0 -0.06,0.01 -0.08,0.02l-0.11 0.03c-0.01,0 -0.01,0 -0.02,0.01 -0.02,0 -0.13,0.05 -0.13,0.08z"/>
   <path class="fil0" d="M0.89 3.38c0,0.02 0.03,0.04 0.04,0.05 0.02,0.01 0.02,0.03 0.05,0.05 0.02,-0.01 0.04,-0.03 0.05,-0.05 0,0 0,0 0,0 0,0 0,0 0,0l0.01 -0.01c0.05,-0.04 0.04,-0.04 -0.01,-0.09 -0.01,-0.01 -0.04,-0.04 -0.05,-0.04 -0.01,0 -0.01,0 -0.01,0.01 -0.01,0 -0.01,0 -0.01,0l-0.06 0.07c-0.01,0 -0.01,0 -0.01,0.01z"/>
   <path class="fil0" d="M1.09 3.38c0,0.02 0.01,0.03 0.03,0.04l0.01 0.01c0.02,0.02 0.03,0.04 0.05,0.05 0.02,-0.01 0.06,-0.05 0.07,-0.07 0.01,-0.02 0.02,-0.01 0.03,-0.03 -0.01,-0.01 -0.02,-0.01 -0.03,-0.02 -0.03,-0.03 -0.03,-0.05 -0.07,-0.07l-0.09 0.09z"/>
   <path class="fil0" d="M4.13 3.38c0,0.02 0.05,0.06 0.06,0.07 0.02,0.02 0.02,0.02 0.02,0.03 0.03,0 0.02,-0.01 0.04,-0.03l0.05 -0.05c0.03,-0.02 0.02,-0.02 -0.03,-0.06 -0.06,-0.06 -0.04,-0.06 -0.1,0 -0.01,0.01 -0.04,0.03 -0.04,0.04z"/>
   <path class="fil0" d="M1.77 4.17c0.01,0.01 0.08,0.09 0.1,0.09 0.01,0 0,0 0.02,-0.02l0.04 -0.05c0.04,-0.03 0.03,-0.02 -0.02,-0.07 -0.01,-0.01 -0.03,-0.05 -0.05,-0.05 -0.01,0 -0.03,0.03 -0.03,0.04l-0.02 0.01c-0.02,0.03 -0.03,0.03 -0.04,0.05z"/>
   <path class="fil0" d="M3.92 3.38l0.06 0.06c0.01,0.01 0.03,0.02 0.03,0.04 0.02,0 0.01,-0.01 0.04,-0.03 0,0 0,0 0,0l0.01 -0.02c0.05,-0.04 0.07,-0.04 0,-0.1 -0.01,0 -0.01,-0.01 -0.02,-0.02 -0.01,-0.01 -0.01,-0.01 -0.02,-0.02 -0.02,0 -0.04,0.03 -0.06,0.05l-0.02 0.02c0,0 0,0 0,0l-0.02 0.02z"/>
   <path class="fil0" d="M1.57 4.18c0.01,0 0.01,0.01 0.02,0.01 0.09,0.08 0.04,0.09 0.12,0.03 0.05,-0.05 0.06,-0.05 0,-0.1l-0.05 -0.05c-0.03,0.01 -0.05,0.06 -0.08,0.07 -0.01,0.01 -0.01,0.02 -0.01,0.04z"/>
   <path class="fil0" d="M1.29 3.38c0.02,0.02 0.03,0.03 0.05,0.05l0.05 0.04c0.02,0 0.03,-0.02 0.04,-0.04 0.03,-0.03 0.08,-0.04 0.01,-0.09l-0.02 -0.02c-0.02,-0.03 -0.03,-0.04 -0.06,0l-0.07 0.06z"/>
  </g>
 </g>
</svg>
